<svg xmlns="http://www.w3.org/2000/svg" viewBox="0 0 163.8 35.19"><defs><style>.cls-1{fill:#fff;}</style></defs><g id="Layer_2" data-name="Layer 2"><g id="Layer_1-2" data-name="Layer 1"><path class="cls-1" d="M17.7,33.82A24.24,24.24,0,0,1,13,33.35c-1.37-.25-2.72-.54-4.09-.8-.38-.08-.76-.13-1.15-.2a.25.25,0,0,1-.14-.08C6.82,30.86,6.05,29.44,5.27,28a35.83,35.83,0,0,1-2-4.14,20.84,20.84,0,0,1-1.2-4.44c-.19-1.24-.32-2.48-.48-3.73-.11-.87-.23-1.75-.34-2.62a.19.19,0,0,1,0-.15c1.08-1.11,2.17-2.22,3.25-3.34A40.7,40.7,0,0,1,7.77,6.55a23.56,23.56,0,0,1,5-3.1c1.22-.57,2.46-1.11,3.68-1.66l1.45-.7a.15.15,0,0,1,.16,0L22.13,3a40,40,0,0,1,4.39,2.33A24.31,24.31,0,0,1,31,9.09c.92,1,1.83,2,2.75,2.94.29.31.59.6.88.89a.18.18,0,0,1,.06.19c-.15,1.07-.32,2.15-.46,3.23a49.06,49.06,0,0,1-.89,5.38,22.87,22.87,0,0,1-2.29,5.75c-.64,1.15-1.3,2.28-1.95,3.41-.26.45-.5.91-.74,1.37a.17.17,0,0,1-.14.1c-1.39.25-2.78.48-4.16.74s-2.65.48-4,.61c-.79.07-1.58.1-2.37.15Zm0-.29v0c.74-.05,1.49-.08,2.23-.14,1.43-.12,2.84-.39,4.24-.65L28,32.08a.19.19,0,0,0,.12-.09l.38-.7c.66-1.15,1.32-2.29,2-3.44a24.19,24.19,0,0,0,2.36-5.48,37.37,37.37,0,0,0,1-5.13c.17-1.35.37-2.7.56-4a.19.19,0,0,0-.07-.18l-.76-.77c-.92-1-1.83-2-2.75-2.94a24,24,0,0,0-4-3.43A31.66,31.66,0,0,0,22.6,3.56L18,1.41a.17.17,0,0,0-.14,0L17,1.85C15.69,2.43,14.4,3,13.12,3.59A24.12,24.12,0,0,0,8.61,6.26,32.31,32.31,0,0,0,5,9.5L1.63,13a.24.24,0,0,0-.08.22c.1.63.19,1.26.26,1.9.14,1.14.26,2.29.41,3.43A22.14,22.14,0,0,0,3.36,23.3a29.62,29.62,0,0,0,2,4.31L7.78,32a.19.19,0,0,0,.12.07l1,.18c1.35.27,2.7.55,4.06.8A24,24,0,0,0,17.69,33.53Z"/><path class="cls-1" d="M23.18,14.31l-1.56-1.69-.65.6-1.14-.6v4.32H18.2V9.57a1.28,1.28,0,0,1,.39-.9.66.66,0,0,1,.9.05,1.38,1.38,0,0,1,.33.87c0,.34,0,.67,0,1,0,.09,0,.12.11.15a6.92,6.92,0,0,1,4.82,4.76,7.08,7.08,0,0,1-4.81,8.87c-.09,0-.12.06-.12.16,0,.75,0,1.5,0,2.25a.43.43,0,0,1-.18.38,1.42,1.42,0,0,1-.89.31H18.2v-.16q0-4.23,0-8.45a.78.78,0,0,1,.77-.78.89.89,0,0,1,.65.22.73.73,0,0,1,.21.5v3.68l.58-.27L21,21.9l.66.61,1.56-1.69-.66-.61a.39.39,0,0,1,0-.09,5.24,5.24,0,0,0,.51-1.31.11.11,0,0,1,.13-.1H24V16.42h-.9c0-.11-.05-.21-.08-.31A4.91,4.91,0,0,0,22.56,15c0-.06,0-.09,0-.14Z"/><path class="cls-1" d="M17.74,16.94H16.12V12.65a4.67,4.67,0,0,0-1.13.59l-.67-.62-1.57,1.69.55.5c.12.11.12.11,0,.26a5.52,5.52,0,0,0-.5,1.34h-.9v2.3h.82s.09,0,.09.06a5.28,5.28,0,0,0,.57,1.42l-.67.62,1.57,1.69.67-.62a5.06,5.06,0,0,0,1.13.59v-.15c0-1.16,0-2.32,0-3.48a.79.79,0,0,1,.76-.76.78.78,0,0,1,.77.39.67.67,0,0,1,.1.34v8.65a2,2,0,0,1-1.44-.3.47.47,0,0,1-.19-.39c0-.74,0-1.49,0-2.24,0-.1,0-.14-.12-.16a7.09,7.09,0,0,1,0-13.63c.09,0,.11-.07.11-.16q0-.54,0-1.08a1.18,1.18,0,0,1,.44-.88.62.62,0,0,1,.81.06,1.34,1.34,0,0,1,.37.94v7.31Z"/><path class="cls-1" d="M7.43,26.59l.09.08a6.36,6.36,0,0,0,.66.5A.87.87,0,0,0,9.35,27a4.68,4.68,0,0,0,.45-.62c.11-.18.2-.38.3-.57a2.91,2.91,0,0,1,2-1.52,3.66,3.66,0,0,1,2.26.21c.3.12.58.26.87.4v0H15.1a2.07,2.07,0,0,0-1.87.77,7,7,0,0,0-.82,1.39c-.2.42-.4.83-.62,1.25a4,4,0,0,1-.28.43,2.13,2.13,0,0,1-2,.92,2.91,2.91,0,0,1-.59-.1,1.91,1.91,0,0,1-1-.78A3.22,3.22,0,0,1,7.43,26.59Z"/><path class="cls-1" d="M20.76,24.91a4.29,4.29,0,0,1,2.71-.7,2.93,2.93,0,0,1,2.36,1.55c.16.31.33.62.51.92a1.9,1.9,0,0,0,.35.4.86.86,0,0,0,.93.16,2.32,2.32,0,0,0,.79-.56l.11-.1a3.34,3.34,0,0,1-.39,2.18,1.8,1.8,0,0,1-1.08.81,2.74,2.74,0,0,1-1.42,0,2,2,0,0,1-1.18-.83,8,8,0,0,1-.77-1.37c-.2-.41-.4-.81-.61-1.2a4,4,0,0,0-.38-.54,2.07,2.07,0,0,0-1.84-.77Z"/><path class="cls-1" d="M22.92,23.69c.19-.19.37-.4.58-.59a2.88,2.88,0,0,1,1.8-.79,2,2,0,0,1,1.41.47c.2.17.4.34.61.49a1.93,1.93,0,0,0,.49.26.78.78,0,0,0,.85-.16A4.71,4.71,0,0,0,29,23a.7.7,0,0,0,.06-.09h0c0,.22,0,.44,0,.65a3.24,3.24,0,0,1-.26,1.27,1.57,1.57,0,0,1-2.2.71A5.59,5.59,0,0,1,26,25c-.16-.14-.32-.3-.47-.46A2.84,2.84,0,0,0,23,23.71h-.08Z"/><path class="cls-1" d="M13,23.7c-.3,0-.59,0-.88,0a2.44,2.44,0,0,0-1.49.65c-.24.21-.47.44-.7.66s-.25.23-.37.33A1.6,1.6,0,0,1,7,24.51a4.82,4.82,0,0,1-.13-1.66l.07.1a5,5,0,0,0,.37.43.76.76,0,0,0,.82.15,2.63,2.63,0,0,0,.57-.31,3.4,3.4,0,0,0,.47-.38,2.07,2.07,0,0,1,2.07-.43A3.49,3.49,0,0,1,13,23.7Z"/><path class="cls-1" d="M11.71,22c-.27-.14-.5-.27-.74-.38a1.33,1.33,0,0,0-1.43.18c-.21.17-.42.36-.64.53a1.38,1.38,0,0,1-1.22.29A1.23,1.23,0,0,1,7,22.19a2.37,2.37,0,0,1-.5-1.25,2.64,2.64,0,0,1,0-.84c0,.06,0,.1.07.13s.23.33.36.47a.87.87,0,0,0,.93.23,3,3,0,0,0,.58-.26c.15-.08.28-.17.42-.26a1.43,1.43,0,0,1,1.63,0,2.4,2.4,0,0,1,.86.9C11.47,21.53,11.58,21.77,11.71,22Z"/><path class="cls-1" d="M24.25,22c.06-.14.12-.28.19-.42a3.07,3.07,0,0,1,.74-1,1.56,1.56,0,0,1,1.5-.38,1.19,1.19,0,0,1,.36.17c.2.11.39.25.59.36a3,3,0,0,0,.45.19.92.92,0,0,0,1-.25c.15-.17.27-.36.41-.54a.68.68,0,0,1,0,.15A2.77,2.77,0,0,1,29.11,22a1.34,1.34,0,0,1-1.26.7,1.4,1.4,0,0,1-.74-.28L26.54,22l-.27-.2A1.27,1.27,0,0,0,25,21.64C24.76,21.75,24.52,21.89,24.25,22Z"/><path class="cls-1" d="M6.2,17.34c.13.21.24.41.37.59a1,1,0,0,0,.65.43,1.24,1.24,0,0,0,.63-.08c.25-.09.49-.21.75-.3a1.86,1.86,0,0,1,.46-.13,1.13,1.13,0,0,1,1.16.57,2.81,2.81,0,0,1,.38,1.23c0,.08,0,.15,0,.25l-.11-.06-.33-.19a1.31,1.31,0,0,0-1.34,0,4.68,4.68,0,0,1-.54.3,1.39,1.39,0,0,1-1.82-.59A2.89,2.89,0,0,1,6.2,17.34Z"/><path class="cls-1" d="M29.72,17.31a3,3,0,0,1,.06,1.15,2.6,2.6,0,0,1-.33,1,1.42,1.42,0,0,1-1.78.57,3.33,3.33,0,0,1-.46-.24,1.43,1.43,0,0,0-1.67,0l-.22.14a2.76,2.76,0,0,1,.54-1.67,1.12,1.12,0,0,1,1.28-.32c.23.07.45.18.67.27a5,5,0,0,0,.55.17.88.88,0,0,0,.89-.29,4.7,4.7,0,0,0,.4-.59A1.44,1.44,0,0,0,29.72,17.31Z"/><path class="cls-1" d="M22.72,17.26v.59H15.45a2,2,0,0,0,.27.8l-2.54-1.09,2.54-1.08a2.08,2.08,0,0,0-.27.78Z"/><path class="cls-1" d="M10.2,17.74l-.3-.24a1.29,1.29,0,0,0-1.43-.17,3,3,0,0,1-.65.24,1.07,1.07,0,0,1-1.28-1,3.08,3.08,0,0,1,.31-1.71.44.44,0,0,1,0,.1s0,.08,0,.11.08.32.14.47a.41.41,0,0,0,.58.27,5.62,5.62,0,0,0,.53-.19,1.38,1.38,0,0,1,1-.07,1.43,1.43,0,0,1,1,1.09,3.05,3.05,0,0,1,.06,1A.15.15,0,0,1,10.2,17.74Z"/><path class="cls-1" d="M25.73,17.75A2.47,2.47,0,0,1,26,16.18a1.44,1.44,0,0,1,1.6-.59c.2.06.4.15.59.22.43.16.64.06.78-.38.05-.17.08-.35.12-.53l.05.07a3.09,3.09,0,0,1,.24,1.72,1.06,1.06,0,0,1-1.4.85,4.71,4.71,0,0,1-.52-.21,1.28,1.28,0,0,0-1.41.16Z"/><path class="cls-1" d="M25.43,16.11a3.14,3.14,0,0,1,0-1.64,1.06,1.06,0,0,1,1-.73c.2,0,.4,0,.6-.05a.61.61,0,0,0,.65-.68v-.37h0a3,3,0,0,1,.75.93,1.23,1.23,0,0,1,.13.92.69.69,0,0,1-.71.58c-.21,0-.42,0-.64,0a5.56,5.56,0,0,0-.71,0,1.21,1.21,0,0,0-.86.63C25.57,15.82,25.51,16,25.43,16.11Z"/><path class="cls-1" d="M8.28,12.62a4,4,0,0,0,0,.49.57.57,0,0,0,.59.58l.52,0a1.14,1.14,0,0,1,1.18,1.07,4,4,0,0,1-.06,1.32L10.45,16a3.58,3.58,0,0,0-.25-.42,1.21,1.21,0,0,0-1-.53c-.25,0-.5,0-.75,0a4.3,4.3,0,0,1-.51,0,.64.64,0,0,1-.51-.37,1.15,1.15,0,0,1,0-.89A2.89,2.89,0,0,1,8.28,12.62Z"/><path class="cls-1" d="M26.09,11.45a1.94,1.94,0,0,1,.91.78.56.56,0,0,1-.29.83c-.19.07-.4.11-.59.17a1.15,1.15,0,0,0-1,1.22v.07h0a3.37,3.37,0,0,1-.38-1.06.72.72,0,0,1,.6-.89c.15,0,.3-.07.44-.12a.54.54,0,0,0,.39-.65A2.73,2.73,0,0,0,26.09,11.45Z"/><path class="cls-1" d="M9.84,11.46c0,.13,0,.24-.06.35a.55.55,0,0,0,.36.62c.14.05.29.08.43.12a.73.73,0,0,1,.64.94,3.32,3.32,0,0,1-.39,1.06c0-.15,0-.28-.06-.41a1.06,1.06,0,0,0-.75-.86l-.49-.13-.24-.07A.58.58,0,0,1,9,12.17,2,2,0,0,1,9.84,11.46Z"/><path class="cls-1" d="M32.36,16.16l-2.07.68c0-.12-.08-.24-.11-.35s0-.07.05-.1l.79-.7a.29.29,0,0,0,.07-.1L30,16l-.12-.39L32,14.89c0,.12.08.23.11.34s0,.07-.05.1L31.2,16a.71.71,0,0,0-.07.09l1.11-.35Z"/><path class="cls-1" d="M14.47,6.71,14.15,5.6l.39-.11.6,2.1-.35.1a.18.18,0,0,1-.1-.06L14,6.82a.24.24,0,0,0-.09-.08l.31,1.1L13.86,8l-.61-2.1.35-.09s.08,0,.1.05l.67.81.08.09Z"/><path class="cls-1" d="M26.79,10.88l-.27-.3,1.59-1.49.25.27a.22.22,0,0,1,0,.11l-.42,1a.18.18,0,0,0,0,.11l.84-.78.28.29-1.6,1.49-.25-.27a.22.22,0,0,1,0-.11c.13-.32.27-.63.41-.95a.28.28,0,0,0,0-.13Z"/><path class="cls-1" d="M10.43,9.78c-.1.08-.19.16-.28.22A.13.13,0,0,1,10,10L9.1,9.52a.21.21,0,0,0-.12,0l.72.89-.32.25L8,8.93a2.69,2.69,0,0,1,.28-.22.13.13,0,0,1,.12,0c.35.18.69.36,1.05.52l-.72-.9.31-.26Z"/><path class="cls-1" d="M21.27,6.79,21,7.64l-.41-.12.6-2.1c.29.09.58.17.86.27a.32.32,0,0,1,.22.33.82.82,0,0,1-.22.67,1,1,0,0,1-.27.18,2.68,2.68,0,0,1,.13,1l-.42-.12s-.05-.07-.05-.1c0-.24,0-.48-.05-.72A.16.16,0,0,0,21.27,6.79ZM21.51,6c0,.08-.05.15-.07.22l-.06.21c.13,0,.25.11.37,0a.27.27,0,0,0,.08-.28C21.78,6,21.62,6,21.51,6Z"/><path class="cls-1" d="M31.53,19.64a1,1,0,0,0-.87-.22V19l2.16,0v.43h-.76v0c.22.11.43.24.65.34a.22.22,0,0,1,.15.24c0,.13,0,.26,0,.41l-.37-.22L32.1,20a.15.15,0,0,0-.16,0l-1.28.53c0-.18,0-.35,0-.51s0,0,.08-.06Z"/><path class="cls-1" d="M9.15,10.84c-.11.12-.21.22-.3.33a.09.09,0,0,1-.13,0l-.66-.31-.1,0c0,.36.23.56.48.76l-.3.32L6.55,10.43l.29-.31.57.53h0c0-.07,0-.15-.07-.23l-.18-.54a.16.16,0,0,1,0-.12c.11-.13.23-.25.35-.38a.83.83,0,0,0,0,.12c.06.23.13.46.18.7a.24.24,0,0,0,.15.16L9,10.79Z"/><path class="cls-1" d="M11.79,7.92c-.14.34,0,.6.2.87L11.61,9l-1-1.93.38-.2.39.72c0-.06,0-.09,0-.12,0-.25,0-.49,0-.73a.19.19,0,0,1,.07-.12l.43-.23c0,.26,0,.5,0,.74A.37.37,0,0,0,12,7.5c.32.25.62.52.95.8l-.44.23s-.07,0-.09,0Z"/><path class="cls-1" d="M27.26,8.63a2.52,2.52,0,0,1-.12.39,2.09,2.09,0,0,1-.67.83.94.94,0,0,1-.22.12.59.59,0,0,1-.65-.07.58.58,0,0,1-.23-.64,1.75,1.75,0,0,1,1-1.21A.64.64,0,0,1,27.26,8.63Zm-.49.11a.24.24,0,0,0-.38-.22,1.35,1.35,0,0,0-.55.69.27.27,0,0,0,0,.13.22.22,0,0,0,.27.2.34.34,0,0,0,.17-.08c.15-.18.31-.36.45-.55A.44.44,0,0,0,26.77,8.74Z"/><path class="cls-1" d="M4.1,17.11a2.57,2.57,0,0,1,.82.18,1.17,1.17,0,0,1,.31.17.58.58,0,0,1,.24.59.56.56,0,0,1-.43.51,1.82,1.82,0,0,1-1.55-.26.6.6,0,0,1-.25-.61.62.62,0,0,1,.45-.51A2.7,2.7,0,0,1,4.1,17.11Zm.05.43a1,1,0,0,0-.27.07.21.21,0,0,0-.06.36.47.47,0,0,0,.19.12c.2.05.39.08.59.11a.55.55,0,0,0,.24-.05.21.21,0,0,0,.06-.37.31.31,0,0,0-.16-.1C4.54,17.62,4.34,17.58,4.15,17.54Z"/><path class="cls-1" d="M18.51,5.67l-.42.13L18,5.68a.22.22,0,0,0-.38,0,.38.38,0,0,0-.08.17,1.45,1.45,0,0,0,0,.8.29.29,0,0,0,.51.14c.09-.07.05-.16.05-.26h-.28c0-.07,0-.14,0-.21V6.05h.66l0,.88a.14.14,0,0,1,0,.06.84.84,0,0,1-.8.34A.58.58,0,0,1,17.28,7a1.68,1.68,0,0,1-.17-1,1.69,1.69,0,0,1,.12-.54.67.67,0,0,1,.9-.36.51.51,0,0,1,.23.21A2.84,2.84,0,0,1,18.51,5.67Z"/><path class="cls-1" d="M19,7.32l.3-2.16,1.15.16-.07.45-.71-.09L19.62,6l.67.1-.06.43-.66-.09-.07.43.74.11-.06.48Z"/><path class="cls-1" d="M6.05,11.92l.29.2.39-.55.36.25-.38.55.35.25L7.49,12l.4.28-.67,1L5.43,12l.66-.95.38.27Z"/><path class="cls-1" d="M15.85,6.07,16.52,6l.06.44-.67.1.06.42.74-.1.07.49-1.17.16-.3-2.16,1.15-.16.06.45-.72.11Z"/><path class="cls-1" d="M29.74,15.25l-.18-.4.3-.21-.2-.45-.36.08-.17-.4.67-.13,1.44-.26c.08,0,.11,0,.13.07a2.36,2.36,0,0,1,.12.28.12.12,0,0,1,0,.1l-1.7,1.31Zm.52-.88.61-.44v0l-.73.17Z"/><path class="cls-1" d="M32.59,17.31c0,.14,0,.27.07.4a.15.15,0,0,1-.08.1l-1.51.66-.45.2-.08-.45.27-.1s.06-.05.06-.07-.05-.29-.08-.45h-.28c-.06,0-.09,0-.1-.08s0-.22-.06-.35Zm-1.31.31,0,.3.7-.27v0Z"/><path class="cls-1" d="M19.53,30.26H19.2a.11.11,0,0,1-.08-.07l-.5-.84a.23.23,0,0,0-.09-.11v1h-.36v-1.8c.11,0,.22,0,.33,0a.2.2,0,0,1,.08.08l.51.88a.23.23,0,0,0,.08.09v-1h.36Z"/><path class="cls-1" d="M4.47,19.87h.79v.45l-2.17,0a1.76,1.76,0,0,1,0-.23c0-.16,0-.32,0-.48a.4.4,0,0,1,.3-.42,1.17,1.17,0,0,1,.74,0,.45.45,0,0,1,.33.46Zm-.46,0c0-.11,0-.22-.08-.29a.35.35,0,0,0-.33,0c-.09.07-.07.17-.06.28Z"/><path class="cls-1" d="M24.5,8.15l-.42.7-.37-.23,1.13-1.87c.23.14.47.28.69.43a.34.34,0,0,1,.13.37,1.15,1.15,0,0,1-.41.7.42.42,0,0,1-.52,0ZM25,7.36l-.25.41c.2.14.31.13.41,0S25.21,7.48,25,7.36Z"/><path class="cls-1" d="M16.54,29.35c0,.09,0,.17,0,.25a.78.78,0,0,1-.86.69.77.77,0,0,1-.77-.75,1.62,1.62,0,0,1,0-.49.75.75,0,0,1,.8-.62.79.79,0,0,1,.79.63C16.53,29.16,16.53,29.26,16.54,29.35Zm-.39,0c0-.11,0-.21,0-.3a.41.41,0,0,0-.38-.28.4.4,0,0,0-.4.27.91.91,0,0,0,0,.63.4.4,0,0,0,.38.26.36.36,0,0,0,.37-.26A2.34,2.34,0,0,0,16.15,29.36Z"/><path class="cls-1" d="M19.84,30.26V28.47h1.27v.34h-.88v.33h.82v.35h-.82v.43h.91v.34Z"/><path class="cls-1" d="M11.29,10.69c0,.1,0,.17,0,.25a.42.42,0,0,0,.2.45c.08.06.17.1.25.15a.64.64,0,0,1,.32.78,2.29,2.29,0,0,1-.47.81c0-.12,0-.23,0-.34a.81.81,0,0,0-.37-.6c-.11-.07-.22-.13-.33-.21a.57.57,0,0,1-.1-.9A1.41,1.41,0,0,1,11.29,10.69Z"/><path class="cls-1" d="M24.64,10.68a1.22,1.22,0,0,1,.73.69.52.52,0,0,1-.19.55,1.81,1.81,0,0,1-.29.19.91.91,0,0,0-.49.91.28.28,0,0,1,0,.09,1.76,1.76,0,0,1-.51-1,.59.59,0,0,1,.28-.54l.27-.16a.48.48,0,0,0,.25-.59A.91.91,0,0,1,24.64,10.68Z"/><path class="cls-1" d="M21.39,28.45l.95,0a.33.33,0,0,1,.16.07.62.62,0,0,1,.18.66.5.5,0,0,1-.46.37c-.15,0-.29,0-.45,0v.67h-.38Zm.38.81c.13,0,.26,0,.38,0s.15-.09.16-.2a.2.2,0,0,0-.16-.21l-.38,0Z"/><path class="cls-1" d="M28.21,12.52,28,12.18l1.31-1L29,10.83l.43-.32.79,1.05-.42.32-.27-.35Z"/><path class="cls-1" d="M6.61,14.34l-1.48-.72L4.94,14l-.48-.23L5,12.6l.49.23-.2.4L6.8,14Z"/><path class="cls-1" d="M13.79,29.61v.65h-.38V28.47h.83a.48.48,0,0,1,.48.51.52.52,0,0,1-.42.6C14.14,29.6,14,29.6,13.79,29.61Zm0-.35.35,0a.21.21,0,0,0,.19-.22.2.2,0,0,0-.19-.2c-.11,0-.23,0-.35,0Z"/><path class="cls-1" d="M3.54,16.36,3.65,16l1.59.42.18-.65.52.14-.29,1.07Z"/><path class="cls-1" d="M12.46,10.06s0,0,0,0a.71.71,0,0,0,.24.83.63.63,0,0,1,.23.64.69.69,0,0,1-.13.29,3.51,3.51,0,0,1-.4.48s0-.07,0-.1,0-.27,0-.41a.56.56,0,0,0-.21-.39L12,11.26a.55.55,0,0,1-.12-.7,1,1,0,0,1,.4-.42A.49.49,0,0,1,12.46,10.06Z"/><path class="cls-1" d="M23.51,12.34a5.79,5.79,0,0,1-.43-.58.63.63,0,0,1,.1-.78l.17-.18a.62.62,0,0,0,.14-.64,1,1,0,0,0,0-.11l.17.07a.92.92,0,0,1,.44.47.55.55,0,0,1-.11.65l-.13.12a.76.76,0,0,0-.31.72,1.94,1.94,0,0,0,0,.24Z"/><path class="cls-1" d="M13.39,9.54c0,.07,0,.12,0,.17a.47.47,0,0,0,.2.47l.09.07a.53.53,0,0,1,.14.72.77.77,0,0,1-.14.21l-.39.38,0-.18a.8.8,0,0,0-.23-.73.57.57,0,0,1,.06-1l.15-.1Z"/><path class="cls-1" d="M22.53,9.53a.94.94,0,0,1,.55.5.37.37,0,0,1,0,.34.92.92,0,0,1-.19.28.75.75,0,0,0-.23.73s0,.11,0,.19a2.41,2.41,0,0,1-.52-.6.5.5,0,0,1,.1-.68A.6.6,0,0,0,22.53,9.53Z"/><path class="cls-1" d="M18,29.91v.35H16.76V28.48h.38v1.43Z"/><path class="cls-1" d="M22.64,8.19,22.24,8l.82-2,.4.16Z"/><path class="cls-1" d="M10.83,9.5,9.64,7.67,10,7.43l1.19,1.83Z"/><path class="cls-1" d="M30.55,12.05l.23.37-1.85,1.15-.23-.36Z"/><path class="cls-1" d="M6.26,15.11l-.16.4-2-.78.16-.4Z"/><path class="cls-1" d="M21.58,10.79a4.2,4.2,0,0,1-.37-.49.49.49,0,0,1,.16-.74c.24-.17.27-.24.25-.6a.58.58,0,0,1,.34.9,1,1,0,0,1-.14.15.58.58,0,0,0-.22.51,2.09,2.09,0,0,1,0,.25Z"/><path class="cls-1" d="M14.33,10.77c0-.11,0-.22,0-.33a.54.54,0,0,0-.17-.39,2.26,2.26,0,0,1-.25-.29.37.37,0,0,1,0-.39.86.86,0,0,1,.43-.43V9a.5.5,0,0,0,.24.55.49.49,0,0,1,.18.73,6,6,0,0,1-.38.5Z"/><path class="cls-1" d="M20.42,8.46c.57.34.87.94.28,1.45a.61.61,0,0,1-.28-.77A.89.89,0,0,0,20.42,8.46Z"/><path class="cls-1" d="M15.26,9.93a.83.83,0,0,1,.26-1.46.92.92,0,0,0,0,.76.41.41,0,0,1-.06.4Z"/><path d="M0,12.83c1-.92,1.93-1.9,2.87-2.88S5,7.71,6.16,6.67A23.75,23.75,0,0,1,12,2.81c1.26-.6,2.53-1.15,3.8-1.73.71-.33,1.41-.69,2.12-1L18,0h0l.09.06c1.43.76,2.91,1.42,4.38,2.1A39.07,39.07,0,0,1,26.9,4.49,22.67,22.67,0,0,1,31.23,8c1,1,2,2.09,3,3.13.55.57,1.11,1.12,1.66,1.68a.17.17,0,0,1,.06.16c-.3,1.56-.48,3.14-.68,4.71a38.48,38.48,0,0,1-1,5.43,24.13,24.13,0,0,1-2.14,5.11c-.68,1.23-1.4,2.45-2.09,3.67-.31.55-.59,1.11-.88,1.67a.19.19,0,0,1-.16.11c-1.83.24-3.64.62-5.46.95a36.81,36.81,0,0,1-4.7.59,23.53,23.53,0,0,1-3.46-.1c-1.69-.17-3.36-.51-5-.84C9.19,34,8.07,33.82,7,33.62a.2.2,0,0,1-.12-.08C6,31.83,5,30.2,4.12,28.53a32,32,0,0,1-2.06-4.4A22.63,22.63,0,0,1,1,20c-.25-1.4-.38-2.81-.55-4.23-.11-.94-.26-1.88-.4-2.83,0,0,0,0,0-.05ZM17.69,34.61A32.11,32.11,0,0,0,23.22,34c1.79-.32,3.56-.71,5.36-.94a.17.17,0,0,0,.14-.1c.26-.5.52-1,.79-1.48.67-1.19,1.37-2.36,2-3.56a23.47,23.47,0,0,0,2.21-5.36,43.58,43.58,0,0,0,1-5.32c.19-1.38.39-2.76.59-4.14a.17.17,0,0,0,0-.17c-.42-.42-.84-.83-1.25-1.26-1-1-1.92-2.06-2.9-3.08A23.8,23.8,0,0,0,26.8,5.11a36.56,36.56,0,0,0-4.33-2.3C21,2.11,19.49,1.46,18,.69a.2.2,0,0,0-.15,0c-.53.25-1,.52-1.57.76C15.11,2,13.89,2.54,12.68,3.1A25,25,0,0,0,8.35,5.63,31.66,31.66,0,0,0,4.54,9C3.25,10.35,2,11.72.68,13a.21.21,0,0,0,0,.14L1,16c.17,1.28.31,2.57.5,3.84a21,21,0,0,0,1.4,5,39.26,39.26,0,0,0,2,4.11q1.11,2,2.21,4.07a.28.28,0,0,0,.22.16c.53.08,1.06.16,1.59.26,1.51.29,3,.6,4.51.87A23.48,23.48,0,0,0,17.69,34.61Z"/><path class="cls-1" d="M17.69,34.61a23.48,23.48,0,0,1-4.19-.37c-1.5-.27-3-.58-4.51-.87-.53-.1-1.06-.18-1.59-.26A.28.28,0,0,1,7.18,33q-1.09-2-2.21-4.07a39.26,39.26,0,0,1-2-4.11,21,21,0,0,1-1.4-5C1.34,18.52,1.2,17.23,1,16L.64,13.12a.21.21,0,0,1,0-.14C2,11.72,3.25,10.35,4.54,9A31.66,31.66,0,0,1,8.35,5.63,25,25,0,0,1,12.68,3.1c1.21-.56,2.43-1.09,3.64-1.64.53-.24,1-.51,1.57-.76a.2.2,0,0,1,.15,0c1.45.77,2.95,1.42,4.43,2.12a36.56,36.56,0,0,1,4.33,2.3,23.8,23.8,0,0,1,4.29,3.52c1,1,1.93,2.06,2.9,3.08.41.43.83.84,1.25,1.26a.17.17,0,0,1,0,.17c-.2,1.38-.4,2.76-.59,4.14a43.58,43.58,0,0,1-1,5.32A23.47,23.47,0,0,1,31.54,28c-.66,1.2-1.36,2.37-2,3.56-.27.49-.53,1-.79,1.48a.17.17,0,0,1-.14.1c-1.8.23-3.57.62-5.36.94A32.11,32.11,0,0,1,17.69,34.61Zm0-.56v0c.79,0,1.58-.08,2.37-.15,1.34-.12,2.66-.37,4-.61l4.16-.73a.18.18,0,0,0,.14-.11c.24-.45.48-.91.74-1.36.65-1.14,1.31-2.27,1.95-3.41A22.94,22.94,0,0,0,33.34,22a48.66,48.66,0,0,0,.89-5.38c.14-1.08.31-2.15.46-3.23a.18.18,0,0,0-.06-.19c-.29-.29-.59-.58-.88-.88-.92-1-1.83-2-2.75-2.94a23.92,23.92,0,0,0-4.48-3.74,36.87,36.87,0,0,0-4.39-2.33L18,1.32a.15.15,0,0,0-.16,0c-.48.23-1,.47-1.45.69-1.22.56-2.46,1.09-3.68,1.66a24,24,0,0,0-5,3.11A39,39,0,0,0,4.53,9.85C3.45,11,2.36,12.07,1.28,13.19a.17.17,0,0,0,0,.14c.11.88.23,1.75.34,2.63.16,1.24.29,2.49.48,3.73a20.59,20.59,0,0,0,1.2,4.43,34.32,34.32,0,0,0,2,4.14c.78,1.41,1.55,2.83,2.32,4.24a.22.22,0,0,0,.14.09l1.15.19c1.37.27,2.72.55,4.09.81A24.23,24.23,0,0,0,17.7,34.05Z"/><path d="M17.7,34.05A24.23,24.23,0,0,1,13,33.59c-1.37-.26-2.72-.54-4.09-.81l-1.15-.19a.22.22,0,0,1-.14-.09c-.77-1.41-1.54-2.83-2.32-4.24a34.32,34.32,0,0,1-2-4.14,20.59,20.59,0,0,1-1.2-4.43c-.19-1.24-.32-2.49-.48-3.73-.11-.88-.23-1.75-.34-2.63a.17.17,0,0,1,0-.14C2.36,12.07,3.45,11,4.53,9.85A39,39,0,0,1,7.77,6.79a24,24,0,0,1,5-3.11C14,3.11,15.21,2.58,16.43,2c.49-.22,1-.46,1.45-.69a.15.15,0,0,1,.16,0l4.09,1.94a36.87,36.87,0,0,1,4.39,2.33A23.92,23.92,0,0,1,31,9.33c.92,1,1.83,2,2.75,2.94.29.3.59.59.88.88a.18.18,0,0,1,.06.19c-.15,1.08-.32,2.15-.46,3.23A48.66,48.66,0,0,1,33.34,22a22.94,22.94,0,0,1-2.29,5.76c-.64,1.14-1.3,2.27-1.95,3.41-.26.45-.5.91-.74,1.36a.18.18,0,0,1-.14.11l-4.16.73c-1.33.24-2.65.49-4,.61-.79.07-1.58.1-2.37.15Zm0-.29v0c.74,0,1.49-.07,2.23-.14,1.43-.12,2.84-.38,4.24-.64L28,32.32a.19.19,0,0,0,.12-.09l.38-.71c.66-1.14,1.32-2.28,2-3.43a24.39,24.39,0,0,0,2.36-5.48,37.51,37.51,0,0,0,1-5.14c.17-1.35.37-2.69.56-4a.17.17,0,0,0-.07-.17c-.25-.26-.51-.51-.76-.78-.92-1-1.83-2-2.75-2.93a23.58,23.58,0,0,0-4-3.44A31.6,31.6,0,0,0,22.6,3.8L18,1.64a.17.17,0,0,0-.14,0L17,2.09c-1.29.58-2.58,1.14-3.86,1.73A24.67,24.67,0,0,0,8.61,6.49,31.43,31.43,0,0,0,5,9.74L1.63,13.25a.21.21,0,0,0-.08.21c.1.64.19,1.27.26,1.9.14,1.15.26,2.29.41,3.44a22,22,0,0,0,1.14,4.73,29.62,29.62,0,0,0,2,4.31q1.2,2.2,2.41,4.4a.2.2,0,0,0,.12.08l1,.18,4.06.8A24.74,24.74,0,0,0,17.69,33.76Z"/><path class="cls-1" d="M17.69,33.76A24.74,24.74,0,0,1,13,33.3l-4.06-.8-1-.18a.2.2,0,0,1-.12-.08q-1.22-2.19-2.41-4.4a29.62,29.62,0,0,1-2-4.31A22,22,0,0,1,2.22,18.8c-.15-1.15-.27-2.29-.41-3.44-.07-.63-.16-1.26-.26-1.9a.21.21,0,0,1,.08-.21L5,9.74A31.43,31.43,0,0,1,8.61,6.49a24.67,24.67,0,0,1,4.51-2.67C14.4,3.23,15.69,2.67,17,2.09l.91-.44a.17.17,0,0,1,.14,0L22.6,3.8a31.6,31.6,0,0,1,4.19,2.31,23.58,23.58,0,0,1,4,3.44c.92,1,1.83,2,2.75,2.93.25.27.51.52.76.78a.17.17,0,0,1,.07.17c-.19,1.35-.39,2.69-.56,4a37.51,37.51,0,0,1-1,5.14,24.39,24.39,0,0,1-2.36,5.48c-.65,1.15-1.31,2.29-2,3.43l-.38.71a.19.19,0,0,1-.12.09L24.16,33c-1.4.26-2.81.52-4.24.64-.74.07-1.49.1-2.23.14Zm5.49-19.22-.6.56a.09.09,0,0,0,0,.14,5,5,0,0,1,.46,1.1c0,.1.05.2.08.31H24V19h-.8c-.08,0-.11,0-.13.1a5,5,0,0,1-.51,1.3l0,.09.66.62-1.56,1.68L21,22.13l-.56.32c-.18.1-.37.18-.58.28V19.05a.71.71,0,0,0-.21-.5.85.85,0,0,0-.65-.22.77.77,0,0,0-.77.77q0,4.23,0,8.46v.16h.55a1.36,1.36,0,0,0,.89-.31.42.42,0,0,0,.18-.37c0-.75,0-1.51,0-2.26,0-.1,0-.13.12-.16a7.07,7.07,0,0,0,4.81-8.87A7,7,0,0,0,19.93,11a.12.12,0,0,1-.11-.14c0-.34,0-.68,0-1A1.41,1.41,0,0,0,19.49,9a.68.68,0,0,0-.9,0,1.31,1.31,0,0,0-.39.91v7.36h1.63V12.85l1.14.6.65-.6Zm-5.44,2.63V9.86a1.33,1.33,0,0,0-.37-.93.62.62,0,0,0-.81-.07,1.18,1.18,0,0,0-.44.89q0,.54,0,1.08c0,.09,0,.13-.11.15a7.09,7.09,0,0,0,0,13.63.14.14,0,0,1,.12.16c0,.75,0,1.5,0,2.25a.48.48,0,0,0,.19.39,1.92,1.92,0,0,0,1.44.29V19.05a.7.7,0,0,0-.1-.34.83.83,0,0,0-1.53.38c0,1.16,0,2.32,0,3.48v.14A5.06,5.06,0,0,1,15,22.12l-.67.62-1.57-1.68.67-.62A5.48,5.48,0,0,1,12.85,19s-.06-.06-.09-.06h-.82v-2.3h.9a5.75,5.75,0,0,1,.5-1.35c.08-.14.08-.14,0-.26l-.55-.5,1.57-1.69.67.62a5.06,5.06,0,0,1,1.13-.59v4.29ZM7.43,26.83A3.22,3.22,0,0,0,7.82,29a1.85,1.85,0,0,0,1,.77,2.93,2.93,0,0,0,.59.11,2.12,2.12,0,0,0,2-.93,4,4,0,0,0,.28-.43c.22-.41.42-.83.62-1.24a6.69,6.69,0,0,1,.82-1.39,2.08,2.08,0,0,1,1.87-.78h.08v0c-.29-.13-.57-.28-.87-.39a3.59,3.59,0,0,0-2.26-.21,2.88,2.88,0,0,0-2,1.52c-.1.19-.19.38-.3.56a4.78,4.78,0,0,1-.45.63.88.88,0,0,1-1.17.19,6.36,6.36,0,0,1-.66-.5Zm13.33-1.68h.09a2.07,2.07,0,0,1,1.84.76,4,4,0,0,1,.38.54c.21.4.41.8.61,1.2A7.74,7.74,0,0,0,24.45,29a2.05,2.05,0,0,0,1.18.82,2.73,2.73,0,0,0,1.42,0A1.88,1.88,0,0,0,28.13,29a3.38,3.38,0,0,0,.39-2.19l-.11.11a2.44,2.44,0,0,1-.79.55.82.82,0,0,1-.93-.16,1.9,1.9,0,0,1-.35-.4c-.18-.29-.35-.61-.51-.91a2.94,2.94,0,0,0-2.36-1.56A4.3,4.3,0,0,0,20.76,25.15Zm2.16-1.22,0,0H23a2.81,2.81,0,0,1,2.54.86c.15.15.31.32.47.46a4.51,4.51,0,0,0,.61.47,1.56,1.56,0,0,0,2.2-.71,3.23,3.23,0,0,0,.26-1.26c0-.22,0-.44,0-.66h0L29,23.2a4.55,4.55,0,0,1-.35.4.77.77,0,0,1-.85.17,2.34,2.34,0,0,1-.49-.27c-.21-.15-.41-.32-.61-.49a2,2,0,0,0-1.41-.46,2.83,2.83,0,0,0-1.8.79A8.07,8.07,0,0,0,22.92,23.93Zm-9.92,0a3.54,3.54,0,0,0-1.78-1.29,2.07,2.07,0,0,0-2.07.44,4.33,4.33,0,0,1-.47.38,3.15,3.15,0,0,1-.57.31.74.74,0,0,1-.82-.16,3.09,3.09,0,0,1-.37-.43l-.07-.09A4.84,4.84,0,0,0,7,24.75a1.6,1.6,0,0,0,2.58.83l.37-.33c.23-.22.46-.45.7-.66a2.45,2.45,0,0,1,1.49-.66C12.41,23.91,12.7,23.93,13,23.93Zm-1.29-1.66c-.13-.26-.24-.51-.38-.74a2.42,2.42,0,0,0-.86-.91,1.47,1.47,0,0,0-1.63,0c-.14.09-.27.19-.42.27a3.76,3.76,0,0,1-.58.25.87.87,0,0,1-.93-.23,5.82,5.82,0,0,1-.36-.47l-.07-.12a2.58,2.58,0,0,0,0,.83A2.44,2.44,0,0,0,7,22.43a1.27,1.27,0,0,0,.71.46A1.38,1.38,0,0,0,8.9,22.6l.64-.52A1.32,1.32,0,0,1,11,21.89C11.21,22,11.44,22.13,11.71,22.27Zm12.54,0c.27-.14.51-.28.77-.39a1.3,1.3,0,0,1,1.25.12l.27.2c.19.15.38.32.57.46a1.25,1.25,0,0,0,.74.28,1.33,1.33,0,0,0,1.26-.69,2.8,2.8,0,0,0,.37-1.72.59.59,0,0,0,0-.14c-.14.18-.26.37-.41.53a.91.91,0,0,1-1,.25,2.25,2.25,0,0,1-.45-.19c-.2-.11-.39-.24-.59-.36a1.49,1.49,0,0,0-.36-.17,1.59,1.59,0,0,0-1.5.39,3,3,0,0,0-.74,1C24.37,22,24.31,22.12,24.25,22.26Zm-18-4.69a2.88,2.88,0,0,0,.28,2.06,1.39,1.39,0,0,0,1.82.59,3.5,3.5,0,0,0,.54-.29,1.31,1.31,0,0,1,1.34,0l.33.18.11.06c0-.09,0-.17,0-.25a2.85,2.85,0,0,0-.38-1.23,1.14,1.14,0,0,0-1.16-.56,2.39,2.39,0,0,0-.46.12l-.75.31a1.23,1.23,0,0,1-.63.07,1,1,0,0,1-.65-.42C6.44,18,6.33,17.78,6.2,17.57Zm23.52,0-.07.15a4.81,4.81,0,0,1-.4.6.89.89,0,0,1-.89.28,3.5,3.5,0,0,1-.55-.17c-.22-.08-.44-.2-.67-.27a1.14,1.14,0,0,0-1.28.33,2.71,2.71,0,0,0-.54,1.67l.22-.14a1.44,1.44,0,0,1,1.67,0,2.55,2.55,0,0,0,.46.25,1.41,1.41,0,0,0,1.78-.58,2.6,2.6,0,0,0,.33-1A3,3,0,0,0,29.72,17.55Zm-7-.05H15.45a2.12,2.12,0,0,1,.27-.79L13.18,17.8l2.54,1.08a2,2,0,0,1-.27-.79h7.27ZM10.2,18a.13.13,0,0,0,0-.06,3.07,3.07,0,0,0-.06-1,1.43,1.43,0,0,0-1-1.09,1.5,1.5,0,0,0-1,.07c-.18.07-.35.15-.53.2A.43.43,0,0,1,7,15.82c-.06-.15-.09-.32-.14-.47s0-.08,0-.11a.3.3,0,0,0,0-.1,3.06,3.06,0,0,0-.31,1.7,1.06,1.06,0,0,0,1.28,1,3,3,0,0,0,.65-.23,1.29,1.29,0,0,1,1.43.16Zm15.53,0,.32-.26a1.27,1.27,0,0,1,1.41-.15,4.65,4.65,0,0,0,.52.2,1.06,1.06,0,0,0,1.4-.84,3.07,3.07,0,0,0-.24-1.72.35.35,0,0,0-.05-.08c0,.19-.07.37-.12.54-.14.43-.35.53-.78.38-.19-.07-.39-.16-.59-.22a1.42,1.42,0,0,0-1.6.58A2.49,2.49,0,0,0,25.73,18Zm-.3-1.64c.08-.15.14-.28.22-.41a1.2,1.2,0,0,1,.86-.62,3.35,3.35,0,0,1,.71,0c.22,0,.43,0,.64,0a.69.69,0,0,0,.71-.58,1.21,1.21,0,0,0-.13-.91,2.93,2.93,0,0,0-.75-.93h0v.37a.62.62,0,0,1-.65.68l-.6,0a1.08,1.08,0,0,0-1,.73A3.14,3.14,0,0,0,25.43,16.34ZM8.28,12.86A2.83,2.83,0,0,0,7.4,14a1.12,1.12,0,0,0,0,.88.62.62,0,0,0,.51.37,2.88,2.88,0,0,0,.51,0c.25,0,.5,0,.75,0a1.18,1.18,0,0,1,1,.53,3.45,3.45,0,0,1,.25.41,1.14,1.14,0,0,0,.06.14A4,4,0,0,0,10.57,15,1.15,1.15,0,0,0,9.39,14l-.52,0a.58.58,0,0,1-.59-.58A4,4,0,0,1,8.28,12.86Zm17.81-1.18a2.86,2.86,0,0,1,.06.35.54.54,0,0,1-.39.64,3.19,3.19,0,0,1-.44.13.71.71,0,0,0-.6.88,3.42,3.42,0,0,0,.38,1.07h0v-.07a1.17,1.17,0,0,1,1-1.23,4.36,4.36,0,0,0,.59-.17.55.55,0,0,0,.29-.82A2,2,0,0,0,26.09,11.68Zm-16.25,0a2,2,0,0,0-.87.7.59.59,0,0,0,.31.92l.24.07.49.13a1,1,0,0,1,.75.86,4,4,0,0,1,.06.41,3.41,3.41,0,0,0,.39-1.06.73.73,0,0,0-.64-1,2.3,2.3,0,0,1-.43-.12.54.54,0,0,1-.36-.61Zm22.52,4.7L32.24,16l-1.11.36a.35.35,0,0,1,.07-.09l.81-.72s.06-.07.05-.09-.07-.22-.11-.35l-2.07.68.12.38,1.09-.35a.35.35,0,0,1-.07.09l-.79.71s-.06.07-.05.09.07.23.11.35ZM14.47,7h0l-.08-.09c-.22-.27-.44-.55-.67-.81,0,0-.07-.07-.1-.06a2.68,2.68,0,0,0-.35.1l.61,2.09.38-.11L13.93,7a.22.22,0,0,1,.09.07l.67.81s.07.07.1.06a2.3,2.3,0,0,0,.35-.1l-.6-2.09-.39.11Zm12.32,4.16.84-.78a.29.29,0,0,1,0,.14c-.14.31-.28.63-.41.95a.18.18,0,0,0,0,.1c.08.1.17.19.25.28L29,10.31l-.28-.3-.84.79a.23.23,0,0,1,0-.12l.42-1a.21.21,0,0,0,0-.11l-.25-.26-1.59,1.49ZM10.43,10,9.05,8.32l-.31.25.72.9c-.36-.16-.7-.34-1.05-.51,0,0-.09,0-.12,0L8,9.16l1.37,1.7.32-.26L9,9.72a.21.21,0,0,1,.12,0l.93.48a.17.17,0,0,0,.12,0ZM21.27,7a.16.16,0,0,1,.14.17c0,.24,0,.48.05.71,0,0,0,.09.05.1l.42.13a2.68,2.68,0,0,0-.13-1,1.27,1.27,0,0,0,.27-.18.83.83,0,0,0,.22-.67.33.33,0,0,0-.22-.34l-.86-.27-.6,2.11.41.12ZM31.53,19.87l-.78.28s-.08,0-.08.06,0,.32,0,.5l1.28-.53a.15.15,0,0,1,.16,0l.38.22.37.22c0-.15,0-.28,0-.41A.22.22,0,0,0,32.7,20c-.22-.1-.43-.22-.65-.34v0h.76v-.44l-2.16,0v.44A1,1,0,0,1,31.53,19.87ZM9.15,11.08A.34.34,0,0,0,9,11l-1.13-.45a.22.22,0,0,1-.15-.16c0-.23-.12-.46-.18-.69,0,0,0-.07,0-.12L7.19,10a.16.16,0,0,0,0,.12l.18.54c0,.08,0,.16.07.24h0l-.57-.54-.29.32,1.59,1.49.3-.32c-.25-.21-.49-.4-.48-.76l.1,0,.66.31a.1.1,0,0,0,.13,0C8.94,11.29,9,11.19,9.15,11.08Zm2.64-2.93.6.58s.07,0,.09,0l.44-.23c-.33-.28-.63-.55-.95-.81a.36.36,0,0,1-.15-.37c0-.24,0-.48,0-.74l-.43.23a.21.21,0,0,0-.07.12c0,.25,0,.49,0,.73,0,0,0,.06,0,.12L11,7.11l-.38.2,1,1.92L12,9C11.83,8.75,11.65,8.49,11.79,8.15Zm15.47.72a.65.65,0,0,0-.9-.59,1.77,1.77,0,0,0-1,1.22.57.57,0,0,0,.23.63.6.6,0,0,0,.65.08l.22-.13a2.13,2.13,0,0,0,.67-.82A2.52,2.52,0,0,0,27.26,8.87ZM4.1,17.34c-.14,0-.28,0-.41.08a.6.6,0,0,0-.45.5.59.59,0,0,0,.25.61A1.83,1.83,0,0,0,5,18.8a.58.58,0,0,0,.43-.51.56.56,0,0,0-.24-.59,1.2,1.2,0,0,0-.31-.18A2.87,2.87,0,0,0,4.1,17.34ZM18.51,5.9c-.06-.12-.09-.24-.15-.34a.49.49,0,0,0-.23-.2.67.67,0,0,0-.9.36,1.63,1.63,0,0,0-.12.54,1.68,1.68,0,0,0,.17,1,.59.59,0,0,0,.45.34.84.84,0,0,0,.8-.34.11.11,0,0,0,0-.06l0-.87h-.66v.23c0,.07,0,.14,0,.22h.28c0,.09,0,.18-.05.26a.29.29,0,0,1-.51-.15,1.42,1.42,0,0,1,0-.79.38.38,0,0,1,.08-.17.22.22,0,0,1,.38,0l.06.12ZM19,7.55l1.17.17.06-.49-.74-.11.07-.42.66.09.06-.44-.67-.1.06-.34.71.1.07-.46-1.15-.16Zm-13,4.6.42-.6-.38-.26-.66,1,1.79,1.25.67-1-.4-.28-.43.61-.35-.24.38-.56-.36-.25-.39.55Zm9.8-5.84,0-.35.72-.1-.06-.46-1.15.16.3,2.17,1.17-.17-.07-.48-.74.1-.06-.43.67-.1-.06-.43Zm13.89,9.17h0l1.7-1.32s0-.07,0-.1-.08-.18-.12-.28-.05-.08-.13-.07L29.8,14l-.67.12.17.4.36-.08.2.45-.3.21Zm2.85,2.06-2.24-.14c0,.13,0,.24.06.35s0,.09.1.09h.28c0,.16.06.31.08.45a.1.1,0,0,1-.06.07l-.27.11.08.44.45-.2L32.58,18a.12.12,0,0,0,.08-.09C32.64,17.81,32.62,17.68,32.59,17.54Zm-13.06,13V28.7h-.36v1a.2.2,0,0,1-.08-.08l-.51-.88s0-.08-.08-.08h-.33v1.8h.36v-1a.29.29,0,0,1,.09.11l.5.84a.16.16,0,0,0,.08.08ZM4.47,20.11v-.25a.46.46,0,0,0-.33-.46,1.11,1.11,0,0,0-.74,0,.38.38,0,0,0-.3.41c0,.16,0,.32,0,.48a1.77,1.77,0,0,0,0,.23l2.17,0v-.44Zm20-11.72.23.13a.44.44,0,0,0,.52,0,1.12,1.12,0,0,0,.41-.7.35.35,0,0,0-.13-.37c-.22-.15-.46-.28-.69-.43L23.71,8.86l.37.22Zm-8,21.19c0-.08,0-.18,0-.28a.79.79,0,0,0-.79-.64.76.76,0,0,0-.8.63,1.62,1.62,0,0,0,0,.49.78.78,0,0,0,.77.75.79.79,0,0,0,.86-.7C16.53,29.76,16.53,29.68,16.54,29.58Zm3.3.91h1.3v-.34h-.91v-.42h.82v-.35h-.82V29h.88V28.7H19.84ZM11.29,10.93a1.3,1.3,0,0,0-.56.38.57.57,0,0,0,.1.9l.33.22a.78.78,0,0,1,.37.6c0,.1,0,.21,0,.34a2.38,2.38,0,0,0,.47-.81.66.66,0,0,0-.32-.79l-.25-.14a.44.44,0,0,1-.2-.46C11.26,11.1,11.27,11,11.29,10.93Zm13.35,0a1,1,0,0,0,0,.15.49.49,0,0,1-.25.6l-.27.15a.6.6,0,0,0-.28.54,1.79,1.79,0,0,0,.51,1,.28.28,0,0,0,0-.09.9.9,0,0,1,.49-.91,1.87,1.87,0,0,0,.29-.2.51.51,0,0,0,.19-.55A1.17,1.17,0,0,0,24.64,10.92ZM21.39,28.68v1.81h.38v-.66a3.34,3.34,0,0,0,.45,0,.48.48,0,0,0,.46-.37.61.61,0,0,0-.18-.65.35.35,0,0,0-.16-.08Zm6.82-15.92,1.32-1,.27.35.42-.32-.79-1.05-.43.32.27.35-1.31,1ZM6.61,14.57l.19-.38-1.48-.72.2-.4L5,12.83,4.46,14l.48.23.19-.4Zm7.18,15.28a4.06,4.06,0,0,0,.51,0,.52.52,0,0,0,.42-.6.48.48,0,0,0-.48-.5c-.26,0-.52,0-.78,0h-.05v1.78h.38ZM3.54,16.6l2.11.56.29-1.07L5.42,16l-.18.65-1.59-.43Zm8.92-6.31-.18.08a1,1,0,0,0-.4.43.54.54,0,0,0,.12.69l.19.17a.59.59,0,0,1,.21.4c0,.13,0,.27,0,.4s0,.07,0,.1a3.44,3.44,0,0,0,.4-.47.72.72,0,0,0,.13-.3.62.62,0,0,0-.23-.63.72.72,0,0,1-.24-.83S12.46,10.31,12.46,10.29Zm11.05,2.29,0,0a2.11,2.11,0,0,1,0-.25.76.76,0,0,1,.31-.72.71.71,0,0,0,.13-.12.54.54,0,0,0,.11-.65,1,1,0,0,0-.44-.47l-.17-.06a1,1,0,0,1,0,.11.63.63,0,0,1-.14.64l-.17.18a.61.61,0,0,0-.1.77A5.9,5.9,0,0,0,23.51,12.58ZM13.39,9.77l-.12.05-.15.1a.57.57,0,0,0-.06,1,.83.83,0,0,1,.23.74c0,.05,0,.1,0,.17.15-.14.27-.25.39-.38a.9.9,0,0,0,.14-.2.53.53,0,0,0-.14-.72l-.09-.07a.49.49,0,0,1-.2-.47S13.38,9.84,13.39,9.77Zm9.14,0a.61.61,0,0,1-.28.77.5.5,0,0,0-.1.68,2.21,2.21,0,0,0,.52.59c0-.08,0-.13,0-.19a.73.73,0,0,1,.23-.72,1.12,1.12,0,0,0,.19-.29.35.35,0,0,0,0-.33A.93.93,0,0,0,22.53,9.76ZM18,30.15h-.83V28.72h-.38v1.77H18ZM22.64,8.43l.82-2-.4-.16-.82,2ZM10.83,9.73l.36-.23L10,7.67l-.36.23Zm19.72,2.56L28.7,13.44l.23.37,1.85-1.16ZM6.26,15.35l-2-.79L4.06,15l2,.78ZM21.58,11h0a2.08,2.08,0,0,0,0-.25.6.6,0,0,1,.22-.52A.62.62,0,0,0,22,10.1a.58.58,0,0,0-.34-.9c0,.36,0,.43-.25.59a.5.5,0,0,0-.16.75A4.1,4.1,0,0,0,21.58,11Zm-7.25,0,0,0c.13-.17.27-.33.38-.5a.5.5,0,0,0-.18-.74.49.49,0,0,1-.24-.55V9.18a.79.79,0,0,0-.43.43.35.35,0,0,0,0,.38,2.34,2.34,0,0,0,.25.3.52.52,0,0,1,.17.39C14.34,10.79,14.33,10.9,14.33,11Zm6.09-2.32a.89.89,0,0,1,0,.68.63.63,0,0,0,.28.78C21.29,9.64,21,9,20.42,8.69Zm-5.16,1.47c.08-.1.16-.19.23-.29a.44.44,0,0,0,.06-.41.92.92,0,0,1,0-.76A.83.83,0,0,0,15.26,10.16Z"/><path d="M23.18,14.54l-1.56-1.69-.65.6-1.14-.6v4.32H18.2V9.81a1.31,1.31,0,0,1,.39-.91.68.68,0,0,1,.9,0,1.41,1.41,0,0,1,.33.88c0,.33,0,.67,0,1a.12.12,0,0,0,.11.14,7,7,0,0,1,4.82,4.76,7.07,7.07,0,0,1-4.81,8.87c-.09,0-.12.06-.12.16,0,.75,0,1.51,0,2.26a.42.42,0,0,1-.18.37,1.36,1.36,0,0,1-.89.31H18.2v-.16q0-4.23,0-8.46a.77.77,0,0,1,.77-.77.85.85,0,0,1,.65.22.71.71,0,0,1,.21.5v3.68c.21-.1.4-.18.58-.28l.56-.32.66.61,1.56-1.68-.66-.62,0-.09a5,5,0,0,0,.51-1.3c0-.08.05-.11.13-.1H24v-2.3h-.9c0-.11-.05-.21-.08-.31a5,5,0,0,0-.46-1.1.09.09,0,0,1,0-.14Z"/><path d="M17.74,17.17H16.12V12.88a5.06,5.06,0,0,0-1.13.59l-.67-.62-1.57,1.69.55.5c.12.12.12.12,0,.26a5.75,5.75,0,0,0-.5,1.35h-.9V19h.82s.09,0,.09.06a5.48,5.48,0,0,0,.57,1.43l-.67.62,1.57,1.68.67-.62a5.06,5.06,0,0,0,1.13.59v-.14c0-1.16,0-2.32,0-3.48a.83.83,0,0,1,1.53-.38.7.7,0,0,1,.1.34V27.7a1.92,1.92,0,0,1-1.44-.29.48.48,0,0,1-.19-.39c0-.75,0-1.5,0-2.25a.14.14,0,0,0-.12-.16A7.09,7.09,0,0,1,16,11c.09,0,.11-.06.11-.15q0-.54,0-1.08a1.18,1.18,0,0,1,.44-.89.62.62,0,0,1,.81.07,1.33,1.33,0,0,1,.37.93v7.31Z"/><path d="M7.43,26.83l.09.08a6.36,6.36,0,0,0,.66.5.88.88,0,0,0,1.17-.19,4.78,4.78,0,0,0,.45-.63c.11-.18.2-.37.3-.56a2.88,2.88,0,0,1,2-1.52,3.59,3.59,0,0,1,2.26.21c.3.11.58.26.87.39v0H15.1a2.08,2.08,0,0,0-1.87.78,6.69,6.69,0,0,0-.82,1.39c-.2.41-.4.83-.62,1.24a4,4,0,0,1-.28.43,2.12,2.12,0,0,1-2,.93,2.93,2.93,0,0,1-.59-.11,1.85,1.85,0,0,1-1-.77A3.22,3.22,0,0,1,7.43,26.83Z"/><path d="M20.76,25.15a4.3,4.3,0,0,1,2.71-.71A2.94,2.94,0,0,1,25.83,26c.16.3.33.62.51.91a1.9,1.9,0,0,0,.35.4.82.82,0,0,0,.93.16,2.44,2.44,0,0,0,.79-.55l.11-.11A3.38,3.38,0,0,1,28.13,29a1.88,1.88,0,0,1-1.08.81,2.73,2.73,0,0,1-1.42,0A2.05,2.05,0,0,1,24.45,29a7.74,7.74,0,0,1-.77-1.38c-.2-.4-.4-.8-.61-1.2a4,4,0,0,0-.38-.54,2.07,2.07,0,0,0-1.84-.76Z"/><path d="M22.92,23.93a8.07,8.07,0,0,1,.58-.59,2.83,2.83,0,0,1,1.8-.79,2,2,0,0,1,1.41.46c.2.17.4.34.61.49a2.34,2.34,0,0,0,.49.27.77.77,0,0,0,.85-.17,4.55,4.55,0,0,0,.35-.4l.06-.09h0c0,.22,0,.44,0,.66A3.23,3.23,0,0,1,28.84,25a1.56,1.56,0,0,1-2.2.71,4.51,4.51,0,0,1-.61-.47c-.16-.14-.32-.31-.47-.46A2.81,2.81,0,0,0,23,24h-.08Z"/><path d="M13,23.93c-.3,0-.59,0-.88,0a2.45,2.45,0,0,0-1.49.66c-.24.21-.47.44-.7.66l-.37.33A1.6,1.6,0,0,1,7,24.75a4.84,4.84,0,0,1-.13-1.66l.07.09a3.09,3.09,0,0,0,.37.43.74.74,0,0,0,.82.16,3.15,3.15,0,0,0,.57-.31,4.33,4.33,0,0,0,.47-.38,2.07,2.07,0,0,1,2.07-.44A3.54,3.54,0,0,1,13,23.93Z"/><path d="M11.71,22.27c-.27-.14-.5-.27-.74-.38a1.32,1.32,0,0,0-1.43.19l-.64.52a1.38,1.38,0,0,1-1.22.29A1.27,1.27,0,0,1,7,22.43a2.44,2.44,0,0,1-.5-1.26,2.58,2.58,0,0,1,0-.83l.07.12a5.82,5.82,0,0,0,.36.47.87.87,0,0,0,.93.23,3.76,3.76,0,0,0,.58-.25c.15-.08.28-.18.42-.27a1.47,1.47,0,0,1,1.63,0,2.42,2.42,0,0,1,.86.91C11.47,21.76,11.58,22,11.71,22.27Z"/><path d="M24.25,22.26c.06-.14.12-.29.19-.43a3,3,0,0,1,.74-1,1.59,1.59,0,0,1,1.5-.39,1.49,1.49,0,0,1,.36.17c.2.12.39.25.59.36a2.25,2.25,0,0,0,.45.19.91.91,0,0,0,1-.25c.15-.16.27-.35.41-.53a.59.59,0,0,1,0,.14,2.8,2.8,0,0,1-.37,1.72,1.33,1.33,0,0,1-1.26.69,1.25,1.25,0,0,1-.74-.28c-.19-.14-.38-.31-.57-.46l-.27-.2A1.3,1.3,0,0,0,25,21.87C24.76,22,24.52,22.12,24.25,22.26Z"/><path d="M6.2,17.57c.13.21.24.41.37.6a1,1,0,0,0,.65.42,1.23,1.23,0,0,0,.63-.07l.75-.31a2.39,2.39,0,0,1,.46-.12,1.14,1.14,0,0,1,1.16.56,2.85,2.85,0,0,1,.38,1.23c0,.08,0,.16,0,.25l-.11-.06-.33-.18a1.31,1.31,0,0,0-1.34,0,3.5,3.5,0,0,1-.54.29,1.39,1.39,0,0,1-1.82-.59A2.88,2.88,0,0,1,6.2,17.57Z"/><path d="M29.72,17.55a3,3,0,0,1,.06,1.14,2.6,2.6,0,0,1-.33,1,1.41,1.41,0,0,1-1.78.58,2.55,2.55,0,0,1-.46-.25,1.44,1.44,0,0,0-1.67,0l-.22.14a2.71,2.71,0,0,1,.54-1.67,1.14,1.14,0,0,1,1.28-.33c.23.07.45.19.67.27a3.5,3.5,0,0,0,.55.17.89.89,0,0,0,.89-.28,4.81,4.81,0,0,0,.4-.6Z"/><path d="M22.72,17.5v.59H15.45a2,2,0,0,0,.27.79L13.18,17.8l2.54-1.09a2.12,2.12,0,0,0-.27.79Z"/><path d="M10.2,18l-.3-.24a1.29,1.29,0,0,0-1.43-.16,3,3,0,0,1-.65.23,1.06,1.06,0,0,1-1.28-1,3.06,3.06,0,0,1,.31-1.7.3.3,0,0,1,0,.1s0,.07,0,.11.08.32.14.47a.43.43,0,0,0,.58.27c.18-.05.35-.13.53-.2a1.5,1.5,0,0,1,1-.07,1.43,1.43,0,0,1,1,1.09,3.07,3.07,0,0,1,.06,1A.13.13,0,0,1,10.2,18Z"/><path d="M25.73,18A2.49,2.49,0,0,1,26,16.41a1.42,1.42,0,0,1,1.6-.58c.2.06.4.15.59.22.43.15.64.05.78-.38.05-.17.08-.35.12-.54a.35.35,0,0,1,.05.08,3.07,3.07,0,0,1,.24,1.72,1.06,1.06,0,0,1-1.4.84,4.65,4.65,0,0,1-.52-.2,1.27,1.27,0,0,0-1.41.15Z"/><path d="M25.43,16.34a3.14,3.14,0,0,1,0-1.64,1.08,1.08,0,0,1,1-.73l.6,0a.62.62,0,0,0,.65-.68v-.37h0a2.93,2.93,0,0,1,.75.93,1.21,1.21,0,0,1,.13.91.69.69,0,0,1-.71.58c-.21,0-.42,0-.64,0a3.35,3.35,0,0,0-.71,0,1.2,1.2,0,0,0-.86.62C25.57,16.06,25.51,16.19,25.43,16.34Z"/><path d="M8.28,12.86a4,4,0,0,0,0,.49.58.58,0,0,0,.59.58l.52,0A1.15,1.15,0,0,1,10.57,15a4,4,0,0,1-.06,1.33,1.14,1.14,0,0,1-.06-.14,3.45,3.45,0,0,0-.25-.41,1.18,1.18,0,0,0-1-.53c-.25,0-.5,0-.75,0a2.88,2.88,0,0,1-.51,0,.62.62,0,0,1-.51-.37,1.12,1.12,0,0,1,0-.88A2.83,2.83,0,0,1,8.28,12.86Z"/><path d="M26.09,11.68a2,2,0,0,1,.91.79.55.55,0,0,1-.29.82,4.36,4.36,0,0,1-.59.17,1.17,1.17,0,0,0-1,1.23v.07h0a3.42,3.42,0,0,1-.38-1.07.71.71,0,0,1,.6-.88,3.19,3.19,0,0,0,.44-.13.54.54,0,0,0,.39-.64A2.86,2.86,0,0,0,26.09,11.68Z"/><path d="M9.84,11.7l-.06.35a.54.54,0,0,0,.36.61,2.3,2.3,0,0,0,.43.12.73.73,0,0,1,.64,1,3.41,3.41,0,0,1-.39,1.06,4,4,0,0,0-.06-.41,1,1,0,0,0-.75-.86l-.49-.13-.24-.07A.59.59,0,0,1,9,12.4,2,2,0,0,1,9.84,11.7Z"/><path d="M32.36,16.4l-2.07.67c0-.12-.08-.23-.11-.35s0-.07.05-.09l.79-.71a.35.35,0,0,0,.07-.09L30,16.18l-.12-.38L32,15.12c0,.13.08.23.11.35s0,.07-.05.09l-.81.72a.35.35,0,0,0-.07.09L32.24,16Z"/><path d="M14.47,7l-.32-1.11.39-.11.6,2.09a2.3,2.3,0,0,1-.35.1s-.07,0-.1-.06L14,7.05A.22.22,0,0,0,13.93,7l.31,1.1-.38.11L13.25,6.1A2.68,2.68,0,0,1,13.6,6s.08,0,.1.06c.23.26.45.54.67.81l.08.09Z"/><path d="M26.79,11.11l-.27-.29,1.59-1.49.25.26a.21.21,0,0,1,0,.11l-.42,1a.23.23,0,0,0,0,.12l.84-.79.28.3-1.6,1.49c-.08-.09-.17-.18-.25-.28a.18.18,0,0,1,0-.1c.13-.32.27-.64.41-.95a.29.29,0,0,0,0-.14Z"/><path d="M10.43,10l-.28.23a.17.17,0,0,1-.12,0L9.1,9.75a.21.21,0,0,0-.12,0l.72.88-.32.26L8,9.16l.28-.22s.09,0,.12,0c.35.17.69.35,1.05.51l-.72-.9.31-.25Z"/><path d="M21.27,7,21,7.88l-.41-.12.6-2.11.86.27a.33.33,0,0,1,.22.34.83.83,0,0,1-.22.67,1.27,1.27,0,0,1-.27.18,2.68,2.68,0,0,1,.13,1L21.51,8s-.05-.06-.05-.1c0-.23,0-.47-.05-.71A.16.16,0,0,0,21.27,7Zm.24-.84-.07.22-.06.22c.13,0,.25.11.37,0a.25.25,0,0,0,.08-.27C21.78,6.22,21.62,6.26,21.51,6.19Z"/><path d="M31.53,19.87a1,1,0,0,0-.87-.21v-.44l2.16,0v.44h-.76v0c.22.12.43.24.65.34a.22.22,0,0,1,.15.24c0,.13,0,.26,0,.41l-.37-.22-.38-.22a.15.15,0,0,0-.16,0l-1.28.53c0-.18,0-.34,0-.5s0-.05.08-.06Z"/><path d="M9.15,11.08c-.11.11-.21.21-.3.32a.1.1,0,0,1-.13,0l-.66-.31-.1,0c0,.36.23.55.48.76l-.3.32L6.55,10.67l.29-.32.57.54h0c0-.08,0-.16-.07-.24l-.18-.54a.16.16,0,0,1,0-.12l.35-.37c0,.05,0,.08,0,.12.06.23.13.46.18.69a.22.22,0,0,0,.15.16L9,11A.34.34,0,0,1,9.15,11.08Z"/><path d="M11.79,8.15c-.14.34,0,.6.2.88l-.38.2-1-1.92.38-.2.39.71c0-.06,0-.09,0-.12,0-.24,0-.48,0-.73a.21.21,0,0,1,.07-.12l.43-.23c0,.26,0,.5,0,.74a.36.36,0,0,0,.15.37c.32.26.62.53.95.81l-.44.23s-.07,0-.09,0Z"/><path d="M27.26,8.87a2.52,2.52,0,0,1-.12.39,2.13,2.13,0,0,1-.67.82l-.22.13a.6.6,0,0,1-.65-.08.57.57,0,0,1-.23-.63,1.77,1.77,0,0,1,1-1.22A.65.65,0,0,1,27.26,8.87ZM26.77,9a.24.24,0,0,0-.38-.22,1.36,1.36,0,0,0-.55.68.3.3,0,0,0,0,.13.22.22,0,0,0,.27.21.45.45,0,0,0,.17-.08c.15-.18.31-.36.45-.55A.58.58,0,0,0,26.77,9Z"/><path d="M4.1,17.34a2.87,2.87,0,0,1,.82.18,1.2,1.2,0,0,1,.31.18.56.56,0,0,1,.24.59A.58.58,0,0,1,5,18.8a1.83,1.83,0,0,1-1.55-.27.59.59,0,0,1-.25-.61.6.6,0,0,1,.45-.5C3.82,17.38,4,17.37,4.1,17.34Zm.05.43c-.1,0-.2,0-.27.07a.21.21,0,0,0-.06.36.33.33,0,0,0,.19.12,4.08,4.08,0,0,0,.59.11.53.53,0,0,0,.24,0A.22.22,0,0,0,4.9,18a.54.54,0,0,0-.16-.1Z"/><path d="M18.51,5.9,18.09,6,18,5.91a.22.22,0,0,0-.38,0,.38.38,0,0,0-.08.17,1.42,1.42,0,0,0,0,.79.29.29,0,0,0,.51.15c.09-.08.05-.17.05-.26h-.28c0-.08,0-.15,0-.22V6.29h.66l0,.87a.11.11,0,0,1,0,.06.84.84,0,0,1-.8.34.59.59,0,0,1-.45-.34,1.68,1.68,0,0,1-.17-1,1.63,1.63,0,0,1,.12-.54.67.67,0,0,1,.9-.36.49.49,0,0,1,.23.2C18.42,5.66,18.45,5.78,18.51,5.9Z"/><path d="M19,7.55l.3-2.16,1.15.16L20.39,6l-.71-.1-.06.34.67.1-.06.44-.66-.09-.07.42.74.11-.06.49Z"/><path d="M6.05,12.15l.29.2.39-.55.36.25-.38.56.35.24.43-.61.4.28-.67,1L5.43,12.24l.66-1,.38.26Z"/><path d="M15.85,6.31l.67-.09.06.43-.67.1.06.43.74-.1.07.48-1.17.17-.3-2.17,1.15-.16.06.46L15.8,6Z"/><path d="M29.74,15.48l-.18-.4.3-.21-.2-.45-.36.08-.17-.4L29.8,14l1.44-.27c.08,0,.11,0,.13.07s.09.19.12.28,0,.09,0,.1l-1.7,1.32Zm.52-.88.61-.43v0l-.73.16Z"/><path d="M32.59,17.54c0,.14,0,.27.07.41a.12.12,0,0,1-.08.09l-1.51.66-.45.2-.08-.44.27-.11a.1.1,0,0,0,.06-.07c0-.14-.05-.29-.08-.45h-.28c-.06,0-.09,0-.1-.09s0-.22-.06-.35Zm-1.31.32,0,.3.7-.27v0Z"/><path d="M19.53,30.5H19.2a.16.16,0,0,1-.08-.08l-.5-.84a.29.29,0,0,0-.09-.11v1h-.36v-1.8h.33s.06.05.08.08l.51.88a.2.2,0,0,0,.08.08v-1h.36Z"/><path d="M4.47,20.11h.79v.44l-2.17,0a1.77,1.77,0,0,1,0-.23c0-.16,0-.32,0-.48a.38.38,0,0,1,.3-.41,1.11,1.11,0,0,1,.74,0,.46.46,0,0,1,.33.46Zm-.46,0c0-.11,0-.22-.08-.29a.33.33,0,0,0-.33,0c-.09.08-.07.18-.06.29Z"/><path d="M24.5,8.39l-.42.69-.37-.22L24.84,7c.23.15.47.28.69.43a.35.35,0,0,1,.13.37,1.12,1.12,0,0,1-.41.7.44.44,0,0,1-.52,0Zm.48-.8L24.73,8c.2.15.31.14.41,0S25.21,7.71,25,7.59Z"/><path d="M16.54,29.58c0,.1,0,.18,0,.25a.79.79,0,0,1-.86.7.78.78,0,0,1-.77-.75,1.62,1.62,0,0,1,0-.49.76.76,0,0,1,.8-.63.79.79,0,0,1,.79.64C16.53,29.4,16.53,29.5,16.54,29.58Zm-.39,0c0-.11,0-.2,0-.29a.38.38,0,0,0-.38-.28.39.39,0,0,0-.4.27.91.91,0,0,0,0,.63.39.39,0,0,0,.38.25.36.36,0,0,0,.37-.26A1.83,1.83,0,0,0,16.15,29.59Z"/><path d="M19.84,30.49V28.7h1.27V29h-.88v.34h.82v.35h-.82v.42h.91v.34Z"/><path d="M11.29,10.93c0,.09,0,.17,0,.24a.44.44,0,0,0,.2.46l.25.14a.66.66,0,0,1,.32.79,2.38,2.38,0,0,1-.47.81c0-.13,0-.24,0-.34a.78.78,0,0,0-.37-.6l-.33-.22a.57.57,0,0,1-.1-.9A1.3,1.3,0,0,1,11.29,10.93Z"/><path d="M24.64,10.92a1.17,1.17,0,0,1,.73.68.51.51,0,0,1-.19.55,1.87,1.87,0,0,1-.29.2.9.9,0,0,0-.49.91.28.28,0,0,1,0,.09,1.79,1.79,0,0,1-.51-1,.6.6,0,0,1,.28-.54l.27-.15a.49.49,0,0,0,.25-.6A1,1,0,0,1,24.64,10.92Z"/><path d="M21.39,28.68l.95,0a.35.35,0,0,1,.16.08.61.61,0,0,1,.18.65.48.48,0,0,1-.46.37,3.34,3.34,0,0,1-.45,0v.66h-.38Zm.38.81a2.36,2.36,0,0,0,.38,0,.2.2,0,0,0,.16-.2.19.19,0,0,0-.16-.21,2.36,2.36,0,0,0-.38,0Z"/><path d="M28.21,12.76,28,12.41l1.31-1L29,11.07l.43-.32.79,1.05-.42.32-.27-.35Z"/><path d="M6.61,14.57l-1.48-.72-.19.4L4.46,14,5,12.83l.49.24-.2.4,1.48.72Z"/><path d="M13.79,29.85v.64h-.38V28.71h.05c.26,0,.52,0,.78,0a.48.48,0,0,1,.48.5.52.52,0,0,1-.42.6A4.06,4.06,0,0,1,13.79,29.85Zm0-.36a2,2,0,0,0,.35,0,.2.2,0,0,0,.19-.21.21.21,0,0,0-.19-.21c-.11,0-.23,0-.35,0Z"/><path d="M3.54,16.6l.11-.42,1.59.43L5.42,16l.52.13-.29,1.07Z"/><path d="M12.46,10.29s0,0,0,0a.72.72,0,0,0,.24.83.62.62,0,0,1,.23.63.72.72,0,0,1-.13.3,3.44,3.44,0,0,1-.4.47s0-.06,0-.1,0-.27,0-.4a.59.59,0,0,0-.21-.4L12,11.49a.54.54,0,0,1-.12-.69,1,1,0,0,1,.4-.43Z"/><path d="M23.51,12.58a5.9,5.9,0,0,1-.43-.59.61.61,0,0,1,.1-.77l.17-.18a.63.63,0,0,0,.14-.64,1,1,0,0,0,0-.11l.17.06a1,1,0,0,1,.44.47.54.54,0,0,1-.11.65.71.71,0,0,1-.13.12.76.76,0,0,0-.31.72,2.11,2.11,0,0,0,0,.25Z"/><path d="M13.39,9.77q0,.11,0,.18a.49.49,0,0,0,.2.47l.09.07a.53.53,0,0,1,.14.72.9.9,0,0,1-.14.2c-.12.13-.24.24-.39.38,0-.07,0-.12,0-.17a.83.83,0,0,0-.23-.74.57.57,0,0,1,.06-1l.15-.1Z"/><path d="M22.53,9.76a.93.93,0,0,1,.55.51.35.35,0,0,1,0,.33,1.12,1.12,0,0,1-.19.29.73.73,0,0,0-.23.72c0,.06,0,.11,0,.19a2.21,2.21,0,0,1-.52-.59.5.5,0,0,1,.1-.68A.61.61,0,0,0,22.53,9.76Z"/><path d="M18,30.15v.34H16.76V28.72h.38v1.43Z"/><path d="M22.64,8.43l-.4-.17.82-2,.4.16Z"/><path d="M10.83,9.73,9.64,7.9,10,7.67,11.19,9.5Z"/><path d="M30.55,12.29l.23.36-1.85,1.16-.23-.37Z"/><path d="M6.26,15.35l-.16.4-2-.78.16-.41Z"/><path d="M21.58,11a4.1,4.1,0,0,1-.37-.48.5.5,0,0,1,.16-.75c.24-.16.27-.23.25-.59a.58.58,0,0,1,.34.9.62.62,0,0,1-.14.14.6.6,0,0,0-.22.52,2.08,2.08,0,0,1,0,.25Z"/><path d="M14.33,11c0-.11,0-.22,0-.33a.52.52,0,0,0-.17-.39,2.34,2.34,0,0,1-.25-.3.35.35,0,0,1,0-.38.79.79,0,0,1,.43-.43v.06a.49.49,0,0,0,.24.55.5.5,0,0,1,.18.74c-.11.17-.25.33-.38.5Z"/><path d="M20.42,8.69c.57.34.87,1,.28,1.46a.63.63,0,0,1-.28-.78A.89.89,0,0,0,20.42,8.69Z"/><path d="M15.26,10.16a.83.83,0,0,1,.26-1.46.92.92,0,0,0,0,.76.44.44,0,0,1-.06.41C15.42,10,15.34,10.06,15.26,10.16Z"/><path class="cls-1" d="M21.51,6.19c.11.07.27,0,.32.18a.25.25,0,0,1-.08.27c-.12.1-.24,0-.37,0l.06-.22Z"/><path class="cls-1" d="M26.77,9a.58.58,0,0,1-.06.17c-.14.19-.3.37-.45.55a.45.45,0,0,1-.17.08.22.22,0,0,1-.27-.21.3.3,0,0,1,0-.13,1.36,1.36,0,0,1,.55-.68A.24.24,0,0,1,26.77,9Z"/><path class="cls-1" d="M4.15,17.77l.59.14a.54.54,0,0,1,.16.1.22.22,0,0,1-.06.38.53.53,0,0,1-.24,0A4.08,4.08,0,0,1,4,18.32a.33.33,0,0,1-.19-.12.21.21,0,0,1,.06-.36C4,17.81,4.05,17.8,4.15,17.77Z"/><path class="cls-1" d="M30.26,14.6l-.13-.29.73-.16v0Z"/><path class="cls-1" d="M31.28,17.86H32v0l-.7.27Z"/><path class="cls-1" d="M4,20.09H3.54c0-.11,0-.21.06-.29a.33.33,0,0,1,.33,0C4.05,19.87,4,20,4,20.09Z"/><path class="cls-1" d="M25,7.59c.23.12.26.22.16.39s-.21.17-.41,0Z"/><path class="cls-1" d="M16.15,29.59a1.83,1.83,0,0,1-.07.32.36.36,0,0,1-.37.26.39.39,0,0,1-.38-.25.91.91,0,0,1,0-.63.39.39,0,0,1,.4-.27.38.38,0,0,1,.38.28C16.12,29.39,16.13,29.48,16.15,29.59Z"/><path class="cls-1" d="M21.77,29.49V29a2.36,2.36,0,0,1,.38,0,.19.19,0,0,1,.16.21.2.2,0,0,1-.16.2A2.36,2.36,0,0,1,21.77,29.49Z"/><path class="cls-1" d="M13.79,29.49v-.44c.12,0,.24,0,.35,0a.21.21,0,0,1,.19.21.2.2,0,0,1-.19.21A2,2,0,0,1,13.79,29.49Z"/><path class="cls-1" d="M60.49,1.87h1.35a1.2,1.2,0,0,1,1.35,1.26,1.2,1.2,0,0,1-1.35,1.26H61V5.84h-.49ZM61.83,4a.77.77,0,0,0,.88-.83c0-.48-.24-.83-.89-.83H61V4Z"/><path class="cls-1" d="M63.89,2.86h.44v.45h0a.82.82,0,0,1,.78-.49h.24v.47a1.28,1.28,0,0,0-.28,0,.7.7,0,0,0-.75.7V5.84h-.46Z"/><path class="cls-1" d="M65.68,4.37a1.36,1.36,0,1,1,2.7,0,1.36,1.36,0,1,1-2.7,0Zm2.24,0c0-.6-.28-1.14-.89-1.14s-.89.54-.89,1.14.28,1.12.89,1.12S67.92,5,67.92,4.37Z"/><path class="cls-1" d="M69.06,6.42l.36-.26a.91.91,0,0,0,.85.45c.48,0,.83-.22.83-.72v-.6h0a.9.9,0,0,1-.87.5c-.72,0-1.26-.52-1.26-1.46s.52-1.51,1.27-1.51a.93.93,0,0,1,.87.51h.05V2.86h.44V5.92c0,.77-.58,1.1-1.29,1.1A1.3,1.3,0,0,1,69.06,6.42Zm2-2.09c0-.65-.3-1.1-.85-1.1s-.87.49-.87,1.1.29,1,.87,1S71.11,5,71.11,4.33Z"/><path class="cls-1" d="M72.39,2.86h.44v.45h0a.82.82,0,0,1,.78-.49h.24v.47a1.28,1.28,0,0,0-.28,0,.7.7,0,0,0-.75.7V5.84h-.46Z"/><path class="cls-1" d="M74.27,5c0-.68.61-.8,1.16-.87s.77,0,.77-.27v0a.55.55,0,0,0-.63-.6.8.8,0,0,0-.78.45l-.43-.16a1.21,1.21,0,0,1,1.19-.7,1,1,0,0,1,1.1,1.06v2H76.2v-.4h0A1,1,0,0,1,74.27,5Zm1.93-.23V4.34a2.15,2.15,0,0,1-.79.17c-.36,0-.68.16-.68.51s.26.48.63.48A.77.77,0,0,0,76.2,4.76Z"/><path class="cls-1" d="M77.48,2.86h.45v.47h0a.81.81,0,0,1,.8-.51.83.83,0,0,1,.8.51h0a.94.94,0,0,1,.89-.51c.53,0,.91.33.91,1v2h-.46v-2a.56.56,0,0,0-.6-.62.63.63,0,0,0-.66.67V5.84H79.2v-2a.55.55,0,0,0-.59-.57.71.71,0,0,0-.67.75V5.84h-.46Z"/><path class="cls-1" d="M85.09,2.24c-.53,0-.88.28-.88.66s.48.58.77.66l.4.11c.41.11,1.12.35,1.12,1.09S86,5.91,85.06,5.91s-1.37-.44-1.42-1.09h.49c0,.45.46.65.93.65s1-.28,1-.72-.37-.54-.79-.66L84.75,4c-.62-.18-1-.5-1-1a1.38,1.38,0,0,1,2.69-.06H86C85.93,2.47,85.57,2.24,85.09,2.24Z"/><path class="cls-1" d="M88.51,3.25h-.63V5c0,.38.19.45.39.45a.79.79,0,0,0,.21,0l.09.41a.79.79,0,0,1-.34.06.76.76,0,0,1-.81-.77V3.25H87V2.86h.45V2.15h.46v.71h.63Z"/><path class="cls-1" d="M91.07,2.86h.46v3h-.46V5.33h0a.92.92,0,0,1-.88.55c-.56,0-1-.37-1-1.13V2.86h.46V4.72a.65.65,0,0,0,.65.72.77.77,0,0,0,.76-.82Z"/><path class="cls-1" d="M92.22,4.36c0-.94.52-1.54,1.27-1.54a.91.91,0,0,1,.86.51h0V1.87h.46v4h-.44V5.38h-.06a.92.92,0,0,1-.87.52C92.74,5.9,92.22,5.3,92.22,4.36Zm2.18,0c0-.67-.3-1.12-.85-1.12s-.87.49-.87,1.12.29,1.14.87,1.14S94.4,5,94.4,4.35Z"/><path class="cls-1" d="M95.65,2.06A.31.31,0,0,1,96,1.75a.32.32,0,0,1,.33.31.32.32,0,0,1-.33.31A.31.31,0,0,1,95.65,2.06Zm.09.8h.46v3h-.46Z"/><path class="cls-1" d="M60.54,10.68h6.8v1.44H64.8V19H63.07V12.12H60.54Z"/><path class="cls-1" d="M67.28,15.88a2.94,2.94,0,0,1,3-3.21,2.81,2.81,0,0,1,2.92,3.15v.48H69a1.35,1.35,0,0,0,1.41,1.5,1.16,1.16,0,0,0,1.19-.72l1.6.1a2.59,2.59,0,0,1-2.82,1.9A2.91,2.91,0,0,1,67.28,15.88Zm4.31-.65A1.22,1.22,0,0,0,70.32,14,1.31,1.31,0,0,0,69,15.23Z"/><path class="cls-1" d="M74.35,10.68h1.72v4.43h.09l2-2.36h2l-2.31,2.69L80.24,19h-2l-1.7-2.5-.46.53v2H74.35Z"/><path class="cls-1" d="M82.7,19H81V12.75h1.64v1.1h.07a1.88,1.88,0,0,1,1.87-1.18A2.1,2.1,0,0,1,86.7,15v4H85V15.31a1.07,1.07,0,0,0-1.11-1.21,1.14,1.14,0,0,0-1.17,1.27Z"/><path class="cls-1" d="M88,11.08a.93.93,0,1,1,.93.87A.9.9,0,0,1,88,11.08Zm.06,1.67h1.73V19H88.06Z"/><path class="cls-1" d="M91.16,10.68h1.73v4.43H93l2-2.36h2l-2.31,2.69L97.06,19h-2l-1.7-2.5-.46.53v2H91.16Z"/><path class="cls-1" d="M102.22,19h-1.75V10.68h1.75Z"/><path class="cls-1" d="M105.36,19h-1.72V12.75h1.64v1.1h.07a1.88,1.88,0,0,1,1.87-1.18A2.1,2.1,0,0,1,109.36,15v4h-1.72V15.31a1.07,1.07,0,0,0-1.11-1.21,1.14,1.14,0,0,0-1.17,1.27Z"/><path class="cls-1" d="M114.06,14h-1.23V19h-1.72V14h-.88V12.75h.88V12.3a1.87,1.87,0,0,1,2-2,4.64,4.64,0,0,1,1.21.17l-.3,1.3a1.76,1.76,0,0,0-.55-.09c-.51,0-.68.24-.68.66v.42h1.23Z"/><path class="cls-1" d="M114.65,15.88a3.06,3.06,0,1,1,6.11,0,3.06,3.06,0,1,1-6.11,0Zm4.36,0c0-1.09-.44-1.89-1.29-1.89s-1.32.8-1.32,1.89.45,1.88,1.32,1.88S119,17,119,15.87Z"/><path class="cls-1" d="M121.9,12.75h1.66v1.08h.07a1.52,1.52,0,0,1,1.49-1.17,3,3,0,0,1,.54.06v1.53a3,3,0,0,0-.72-.09,1.25,1.25,0,0,0-1.32,1.29V19H121.9Z"/><path class="cls-1" d="M126.55,12.75h1.65v1.1h.07A1.73,1.73,0,0,1,130,12.67a1.65,1.65,0,0,1,1.69,1.18h.06a2,2,0,0,1,3.83.93V19h-1.72V15.12a.92.92,0,0,0-1-1,1,1,0,0,0-1,1.08V19h-1.67V15.09a.91.91,0,0,0-.94-1,1,1,0,0,0-1,1.14V19h-1.73Z"/><path class="cls-1" d="M136.66,17.23c0-1.39,1.1-1.8,2.33-1.92,1.08-.1,1.51-.15,1.51-.55v0c0-.51-.34-.8-.93-.8a1,1,0,0,0-1.1.71l-1.59-.13a2.46,2.46,0,0,1,2.7-1.84c1.38,0,2.64.62,2.64,2.1V19h-1.64V18.1h0a1.92,1.92,0,0,1-1.82,1A1.82,1.82,0,0,1,136.66,17.23Zm3.85-.49v-.66a4,4,0,0,1-1.2.28c-.61.09-1,.33-1,.81s.38.72.91.72A1.2,1.2,0,0,0,140.51,16.74Z"/><path class="cls-1" d="M146.87,14H145.7v3c0,.48.24.61.58.61a2.11,2.11,0,0,0,.43-.06l.27,1.28a3.27,3.27,0,0,1-.93.17c-1.25.05-2.08-.55-2.07-1.77V14h-.85V12.75H144V11.26h1.72v1.49h1.17Z"/><path class="cls-1" d="M147.93,11.08a.93.93,0,1,1,.93.87A.9.9,0,0,1,147.93,11.08Zm.06,1.67h1.72V19H148Z"/><path class="cls-1" d="M151.09,10.68h1.72v4.43h.1l2-2.36h2l-2.3,2.69L157,19h-2l-1.69-2.5-.47.53v2h-1.72Z"/><path class="cls-1" d="M157.43,17.23c0-1.39,1.11-1.8,2.34-1.92,1.08-.1,1.5-.15,1.5-.55v0c0-.51-.34-.8-.92-.8a1,1,0,0,0-1.11.71l-1.59-.13a2.48,2.48,0,0,1,2.71-1.84c1.38,0,2.63.62,2.63,2.1V19h-1.63V18.1h-.05a1.91,1.91,0,0,1-1.82,1A1.82,1.82,0,0,1,157.43,17.23Zm3.85-.49v-.66a3.93,3.93,0,0,1-1.2.28c-.6.09-1,.33-1,.81s.38.72.91.72A1.19,1.19,0,0,0,161.28,16.74Z"/><path class="cls-1" d="M60.5,24.65h2.22a1.9,1.9,0,1,1,0,3.8h-1v1.82H60.5Zm2,2.85a.9.9,0,0,0,1-.95c0-.56-.33-.93-1-.93h-.8V27.5Z"/><path class="cls-1" d="M65.24,28.18a2.08,2.08,0,1,1,4.16,0,2.08,2.08,0,1,1-4.16,0Zm3,0c0-.73-.31-1.28-.89-1.28s-.89.55-.89,1.28.3,1.28.89,1.28S68.21,28.91,68.21,28.17Z"/><path class="cls-1" d="M71.32,30.27H70.15V24.65h1.17Z"/><path class="cls-1" d="M72.21,24.92a.63.63,0,0,1,1.26,0,.63.63,0,0,1-1.26,0Zm0,1.13h1.17v4.22H72.25Z"/><path class="cls-1" d="M76.6,26.93h-.8V29c0,.32.17.41.4.41a1.68,1.68,0,0,0,.29,0l.18.87a2.1,2.1,0,0,1-.63.11c-.85,0-1.41-.37-1.41-1.2v-2.2h-.57v-.88h.57V25H75.8v1h.8Z"/><path class="cls-1" d="M77.14,28.18a2,2,0,0,1,2-2.18,1.92,1.92,0,0,1,2,2.14v.32H78.3a.91.91,0,0,0,1,1,.8.8,0,0,0,.81-.49l1.08.07a1.75,1.75,0,0,1-1.91,1.3A2,2,0,0,1,77.14,28.18Zm2.93-.44a.85.85,0,0,0-.87-.87.89.89,0,0,0-.9.87Z"/><path class="cls-1" d="M81.93,24.65H83.1v3h.06l1.35-1.61h1.34l-1.56,1.83,1.64,2.39H84.56l-1.15-1.7-.31.36v1.34H81.93Z"/><path class="cls-1" d="M87.59,30.27H86.42V26.05h1.11v.75h0a1.28,1.28,0,0,1,1.27-.8,1.42,1.42,0,0,1,1.46,1.59v2.68H89.14V27.8a.73.73,0,0,0-.75-.83.77.77,0,0,0-.8.86Z"/><path class="cls-1" d="M91.18,24.92a.63.63,0,0,1,1.26,0,.63.63,0,0,1-1.26,0Zm0,1.13h1.17v4.22H91.22Z"/><path class="cls-1" d="M93.32,24.65h1.17v3h.06l1.35-1.61h1.35l-1.57,1.83,1.65,2.39H96l-1.15-1.7-.32.36v1.34H93.32Z"/><path class="cls-1" d="M104.33,30.27h-1l-2.44-3.54h0v3.54H99.63V24.65h1l2.43,3.54h.05V24.65h1.18Z"/><path class="cls-1" d="M105.11,28.18a2,2,0,0,1,2-2.18,1.92,1.92,0,0,1,2,2.14v.32h-2.87a.91.91,0,0,0,1,1A.8.8,0,0,0,108,29l1.08.07a1.75,1.75,0,0,1-1.91,1.3A2,2,0,0,1,105.11,28.18Zm2.93-.44a.84.84,0,0,0-.86-.87.89.89,0,0,0-.91.87Z"/><path class="cls-1" d="M109.87,30.77l1.08-.15a.86.86,0,0,0,.87.45c.51,0,.88-.22.88-.77v-.77h0a1.23,1.23,0,0,1-1.2.68c-1,0-1.71-.65-1.71-2.05s.78-2.16,1.71-2.16a1.24,1.24,0,0,1,1.2.76h0v-.71h1.16v4.26c0,1.06-.86,1.61-2.06,1.61S110,31.4,109.87,30.77Zm2.84-2.62c0-.74-.32-1.22-.89-1.22s-.88.5-.88,1.22.31,1.18.88,1.18S112.71,28.89,112.71,28.15Z"/><path class="cls-1" d="M114.62,28.18a2,2,0,0,1,2-2.18,1.92,1.92,0,0,1,2,2.14v.32h-2.88a.92.92,0,0,0,1,1,.8.8,0,0,0,.81-.49l1.08.07a1.76,1.76,0,0,1-1.91,1.3A2,2,0,0,1,114.62,28.18Zm2.92-.44a.83.83,0,0,0-.86-.87.9.9,0,0,0-.91.87Z"/><path class="cls-1" d="M119.4,26.05h1.14v.74h0a1,1,0,0,1,1-.8A1.44,1.44,0,0,1,122,26v1a2.26,2.26,0,0,0-.49-.06.86.86,0,0,0-.9.88v2.38H119.4Z"/><path class="cls-1" d="M122.51,24.92a.64.64,0,1,1,.64.59A.62.62,0,0,1,122.51,24.92Zm0,1.13h1.17v4.22h-1.17Z"/><path class="cls-1" d="M126.47,24.65h2.22a1.9,1.9,0,1,1,0,3.8h-1v1.82h-1.19Zm2,2.85a.9.9,0,0,0,1-.95c0-.56-.33-.93-1-.93h-.8V27.5Z"/><path class="cls-1" d="M131.21,28.18a2.08,2.08,0,1,1,4.15,0,2.08,2.08,0,1,1-4.15,0Zm3,0c0-.73-.3-1.28-.88-1.28s-.89.55-.89,1.28.3,1.28.89,1.28S134.17,28.91,134.17,28.17Z"/><path class="cls-1" d="M137.29,30.27h-1.17V26.05h1.11v.75h.05a1.28,1.28,0,0,1,1.27-.8A1.42,1.42,0,0,1,140,27.59v2.68h-1.17V27.8a.73.73,0,0,0-.75-.83.78.78,0,0,0-.8.86Z"/><path class="cls-1" d="M143.17,26.93h-.8V29c0,.32.16.41.4.41a1.68,1.68,0,0,0,.29,0l.18.87a2.1,2.1,0,0,1-.63.11c-.85,0-1.41-.37-1.41-1.2v-2.2h-.57v-.88h.57V25h1.17v1h.8Z"/><path class="cls-1" d="M143.88,24.92a.63.63,0,0,1,1.26,0,.63.63,0,0,1-1.26,0Zm0,1.13h1.17v4.22h-1.17Z"/><path class="cls-1" d="M145.83,29.09c0-.94.75-1.22,1.58-1.29s1-.11,1-.38v0c0-.35-.23-.55-.62-.55a.71.71,0,0,0-.75.49L146,27.25A1.69,1.69,0,0,1,147.81,26c.94,0,1.79.42,1.79,1.43v2.84h-1.11v-.58h0a1.3,1.3,0,0,1-1.23.66A1.23,1.23,0,0,1,145.83,29.09Zm2.61-.32v-.45a3.12,3.12,0,0,1-.81.19c-.41,0-.69.22-.69.55s.26.48.62.48A.81.81,0,0,0,148.44,28.77Z"/><path class="cls-1" d="M151.68,30.27H150.5V26.05h1.12v.75h0a1.28,1.28,0,0,1,1.27-.8,1.42,1.42,0,0,1,1.45,1.59v2.68h-1.17V27.8a.72.72,0,0,0-.75-.83.77.77,0,0,0-.79.86Z"/><path class="cls-1" d="M155.11,29.09c0-.94.75-1.22,1.58-1.29s1-.11,1-.38v0c0-.35-.23-.55-.63-.55a.71.71,0,0,0-.75.49l-1.08-.09A1.67,1.67,0,0,1,157.1,26c.93,0,1.79.42,1.79,1.43v2.84h-1.11v-.58h0a1.29,1.29,0,0,1-1.23.66A1.24,1.24,0,0,1,155.11,29.09Zm2.61-.32v-.45a3,3,0,0,1-.81.19c-.41,0-.68.22-.68.55s.25.48.62.48A.8.8,0,0,0,157.72,28.77Z"/><path class="cls-1" d="M159.79,24.65H161v3H161l1.35-1.61h1.35l-1.57,1.83,1.65,2.39h-1.38l-1.15-1.7-.31.36v1.34h-1.17Z"/><rect class="cls-1" x="47.55" y="0.93" width="1.65" height="33.47"/></g></g></svg>