<svg xmlns="http://www.w3.org/2000/svg" viewBox="0 0 163.91 35.31"><defs><style>.cls-1{fill:#fff;}.cls-2{fill:#1f1a1a;}.cls-3{fill:#00fdfd;}.cls-4{fill:#8a8a8b;}.cls-5{fill:#e2232b;}.cls-6{fill:#ee8419;}</style></defs><g id="Layer_2" data-name="Layer 2"><g id="Layer_1-2" data-name="Layer 1"><path d="M.11,13c1-.92,1.94-1.9,2.87-2.88C4,8.94,5.12,7.83,6.27,6.79a24.43,24.43,0,0,1,5.8-3.86c1.26-.6,2.54-1.15,3.8-1.73.71-.33,1.41-.69,2.12-1a.18.18,0,0,0,.07-.05h0l.1.06c1.43.77,2.91,1.42,4.38,2.1A44.68,44.68,0,0,1,27,4.61a22.92,22.92,0,0,1,4.32,3.47c1,1,2,2.09,3,3.13.54.57,1.1,1.12,1.66,1.68a.14.14,0,0,1,.05.16c-.3,1.56-.48,3.14-.68,4.71a37.11,37.11,0,0,1-1,5.43,23.41,23.41,0,0,1-2.14,5.11c-.68,1.24-1.4,2.45-2.09,3.67-.3.55-.59,1.11-.88,1.67a.16.16,0,0,1-.15.11c-1.84.24-3.65.62-5.47,1a36.88,36.88,0,0,1-4.69.59,23.67,23.67,0,0,1-3.47-.1c-1.69-.17-3.35-.51-5-.84-1.11-.22-2.24-.41-3.35-.61A.17.17,0,0,1,7,33.66c-.83-1.71-1.81-3.34-2.72-5a32.48,32.48,0,0,1-2.06-4.39A23,23,0,0,1,1.08,20.1C.84,18.7.7,17.29.53,15.88.42,14.93.27,14,.13,13l0,0ZM17.8,34.73a31.06,31.06,0,0,0,5.53-.57c1.79-.32,3.56-.7,5.36-.94a.18.18,0,0,0,.15-.1c.26-.49.51-1,.78-1.48.68-1.19,1.37-2.36,2-3.56a23,23,0,0,0,2.21-5.36,41.77,41.77,0,0,0,1-5.32c.18-1.38.39-2.76.59-4.14a.18.18,0,0,0-.06-.17c-.42-.42-.84-.83-1.25-1.26-1-1-1.92-2.06-2.9-3.08a24.09,24.09,0,0,0-4.28-3.52,38.19,38.19,0,0,0-4.33-2.3c-1.49-.69-3-1.35-4.44-2.12a.2.2,0,0,0-.15,0c-.52.25-1,.52-1.57.76-1.21.55-2.43,1.08-3.64,1.64A24.92,24.92,0,0,0,8.47,5.75,32.53,32.53,0,0,0,4.65,9.16C3.37,10.47,2.14,11.84.8,13.1a.17.17,0,0,0,0,.14c.12.94.26,1.89.38,2.83.17,1.28.31,2.57.5,3.84a21,21,0,0,0,1.4,5,43.63,43.63,0,0,0,2,4.11c.75,1.35,1.48,2.71,2.22,4.07a.26.26,0,0,0,.21.16c.53.08,1.07.16,1.6.26,1.5.29,3,.6,4.5.87A22.67,22.67,0,0,0,17.8,34.73Z"/><path class="cls-1" d="M17.8,34.73a22.67,22.67,0,0,1-4.19-.37c-1.5-.27-3-.58-4.5-.87-.53-.1-1.07-.18-1.6-.26a.26.26,0,0,1-.21-.16C6.56,31.71,5.83,30.35,5.08,29a43.63,43.63,0,0,1-2-4.11,21,21,0,0,1-1.4-5c-.19-1.27-.33-2.56-.5-3.84C1,15.13.88,14.18.76,13.24a.17.17,0,0,1,0-.14c1.34-1.26,2.57-2.63,3.85-3.94A32.53,32.53,0,0,1,8.47,5.75a24.92,24.92,0,0,1,4.32-2.53c1.21-.56,2.43-1.09,3.64-1.64C17,1.34,17.48,1.07,18,.82a.2.2,0,0,1,.15,0c1.45.77,3,1.43,4.44,2.12a38.19,38.19,0,0,1,4.33,2.3A24.09,24.09,0,0,1,31.2,8.75c1,1,1.93,2.06,2.9,3.08.41.43.83.84,1.25,1.26a.18.18,0,0,1,.06.17c-.2,1.38-.41,2.76-.59,4.14a41.77,41.77,0,0,1-1,5.32,23,23,0,0,1-2.21,5.36c-.66,1.2-1.35,2.37-2,3.56-.27.49-.52,1-.78,1.48a.18.18,0,0,1-.15.1c-1.8.24-3.57.62-5.36.94A31.06,31.06,0,0,1,17.8,34.73Zm0-.56v0c.79-.05,1.59-.08,2.38-.15,1.34-.12,2.66-.37,4-.61l4.16-.73a.19.19,0,0,0,.15-.11c.24-.45.48-.91.73-1.36.65-1.14,1.32-2.27,1.95-3.41a23,23,0,0,0,2.3-5.76,48.64,48.64,0,0,0,.88-5.38c.14-1.08.31-2.15.47-3.23a.18.18,0,0,0-.07-.18c-.29-.3-.59-.59-.87-.89-.92-1-1.83-2-2.76-2.94a23.92,23.92,0,0,0-4.48-3.74,36.87,36.87,0,0,0-4.39-2.33L18.16,1.44a.17.17,0,0,0-.17,0c-.48.23-1,.47-1.45.69L12.86,3.8a24,24,0,0,0-5,3.11A39,39,0,0,0,4.64,10L1.39,13.31a.17.17,0,0,0,0,.14c.11.88.23,1.75.35,2.63.16,1.24.29,2.49.48,3.73a21.16,21.16,0,0,0,1.19,4.43,34.32,34.32,0,0,0,2,4.14l2.33,4.24a.19.19,0,0,0,.14.09L9,32.9c1.36.27,2.72.55,4.08.81A24.23,24.23,0,0,0,17.81,34.17Z"/><path d="M17.81,34.17a24.23,24.23,0,0,1-4.73-.46c-1.36-.26-2.72-.54-4.08-.81l-1.15-.19a.19.19,0,0,1-.14-.09L5.38,28.38a34.32,34.32,0,0,1-2-4.14,21.16,21.16,0,0,1-1.19-4.43c-.19-1.24-.32-2.49-.48-3.73-.12-.88-.24-1.75-.35-2.63a.17.17,0,0,1,0-.14L4.64,10A39,39,0,0,1,7.88,6.91a24,24,0,0,1,5-3.11l3.68-1.66c.49-.22,1-.46,1.45-.69a.17.17,0,0,1,.17,0l4.08,1.94a36.87,36.87,0,0,1,4.39,2.33,23.92,23.92,0,0,1,4.48,3.74c.93,1,1.84,2,2.76,2.94.28.3.58.59.87.89a.18.18,0,0,1,.07.18c-.16,1.08-.33,2.15-.47,3.23a48.64,48.64,0,0,1-.88,5.38,23,23,0,0,1-2.3,5.76c-.63,1.14-1.3,2.27-1.95,3.41-.25.45-.49.91-.73,1.36a.19.19,0,0,1-.15.11l-4.16.73c-1.32.24-2.64.49-4,.61-.79.07-1.59.1-2.38.15Zm0-.28v0c.74,0,1.49-.07,2.23-.13,1.43-.13,2.84-.39,4.25-.65s2.58-.46,3.88-.69a.26.26,0,0,0,.12-.09c.13-.23.24-.47.38-.7.65-1.15,1.31-2.29,2-3.44A24.35,24.35,0,0,0,33,22.73a37.51,37.51,0,0,0,1-5.14c.18-1.35.37-2.69.56-4a.19.19,0,0,0-.06-.18c-.26-.26-.52-.51-.77-.78-.92-1-1.82-2-2.75-2.93a24,24,0,0,0-4-3.44,31.6,31.6,0,0,0-4.19-2.31L18.15,1.76a.26.26,0,0,0-.15,0l-.91.44L13.24,3.94A23.93,23.93,0,0,0,8.72,6.62,31.26,31.26,0,0,0,5.15,9.86L1.74,13.37a.19.19,0,0,0-.07.21c.09.64.18,1.27.26,1.9.14,1.15.26,2.29.41,3.44a22.73,22.73,0,0,0,1.13,4.74,31.12,31.12,0,0,0,2,4.3l2.41,4.4a.2.2,0,0,0,.12.08l1,.18,4.06.8A24.83,24.83,0,0,0,17.8,33.89Z"/><path class="cls-1" d="M17.8,33.89a24.83,24.83,0,0,1-4.71-.47L9,32.62l-1-.18a.2.2,0,0,1-.12-.08L5.48,28a31.12,31.12,0,0,1-2-4.3,22.73,22.73,0,0,1-1.13-4.74c-.15-1.15-.27-2.29-.41-3.44-.08-.63-.17-1.26-.26-1.9a.19.19,0,0,1,.07-.21L5.15,9.86A31.26,31.26,0,0,1,8.72,6.62a23.93,23.93,0,0,1,4.52-2.68l3.85-1.73L18,1.77a.26.26,0,0,1,.15,0l4.56,2.16A31.6,31.6,0,0,1,26.9,6.23a24,24,0,0,1,4,3.44c.93,1,1.83,2,2.75,2.93.25.27.51.52.77.78a.19.19,0,0,1,.06.18c-.19,1.34-.38,2.68-.56,4a37.51,37.51,0,0,1-1,5.14,24.35,24.35,0,0,1-2.35,5.48c-.66,1.15-1.32,2.29-2,3.44-.14.23-.25.47-.38.7a.26.26,0,0,1-.12.09c-1.3.23-2.59.45-3.88.69s-2.82.52-4.25.65c-.74.06-1.49.09-2.23.13Zm5.5-19.23-.61.56a.09.09,0,0,0,0,.14,5,5,0,0,1,.46,1.1l.09.31h.89v2.3h-.8c-.08,0-.11,0-.13.1a5,5,0,0,1-.5,1.3l-.05.09.67.62-1.57,1.68-.66-.61c-.19.11-.37.23-.55.32l-.59.28V19.17a.67.67,0,0,0-.21-.5.88.88,0,0,0-.64-.22.76.76,0,0,0-.77.77v8.62h.55a1.41,1.41,0,0,0,.9-.31.46.46,0,0,0,.18-.37c0-.75,0-1.51,0-2.26,0-.1,0-.13.12-.16a7.07,7.07,0,0,0,4.82-8.87A7,7,0,0,0,20,11.1a.12.12,0,0,1-.11-.14c0-.34,0-.68,0-1a1.31,1.31,0,0,0-.33-.87A.67.67,0,0,0,18.7,9a1.35,1.35,0,0,0-.39.91v7.36h1.63V13l1.14.6.65-.6Zm-5.45,2.63v-.15c0-2.39,0-4.77,0-7.16a1.34,1.34,0,0,0-.38-.93A.62.62,0,0,0,16.67,9a1.22,1.22,0,0,0-.44.89c0,.36,0,.72,0,1.08,0,.09,0,.13-.11.15a7.09,7.09,0,0,0,0,13.63c.1,0,.12.07.12.16,0,.75,0,1.5,0,2.25a.42.42,0,0,0,.19.39,1.89,1.89,0,0,0,1.43.29v-.09c0-2.85,0-5.7,0-8.56a.86.86,0,0,0-.09-.34.82.82,0,0,0-.78-.39.79.79,0,0,0-.75.77c0,1.16,0,2.32,0,3.48v.15a6,6,0,0,1-1.13-.59l-.67.61-1.56-1.68.67-.62A5.48,5.48,0,0,1,13,19.13a.14.14,0,0,0-.1-.06h-.82v-2.3H13a5.16,5.16,0,0,1,.51-1.34c.07-.15.07-.15-.05-.26l-.54-.51L14.43,13l.67.62A5.28,5.28,0,0,1,16.23,13v4.29ZM7.54,27a3.28,3.28,0,0,0,.39,2.2A1.84,1.84,0,0,0,9,29.92a2.83,2.83,0,0,0,.58.11,2.14,2.14,0,0,0,2.06-.93,4,4,0,0,0,.28-.43l.62-1.24A6.28,6.28,0,0,1,13.35,26a2.06,2.06,0,0,1,1.86-.78h.08v0c-.29-.13-.57-.27-.87-.39a3.66,3.66,0,0,0-2.26-.21,2.9,2.9,0,0,0-2,1.52c-.1.19-.19.38-.3.56a4.78,4.78,0,0,1-.45.63.87.87,0,0,1-1.17.19,7.64,7.64,0,0,1-.66-.5Zm13.33-1.68H21A2.07,2.07,0,0,1,22.8,26a3.29,3.29,0,0,1,.38.54c.22.4.41.8.61,1.2a7.74,7.74,0,0,0,.77,1.38,2.11,2.11,0,0,0,1.18.83,2.89,2.89,0,0,0,1.43,0,1.91,1.91,0,0,0,1.08-.81,3.38,3.38,0,0,0,.39-2.19l-.12.11a2.17,2.17,0,0,1-.79.55.82.82,0,0,1-.93-.16,1.8,1.8,0,0,1-.34-.39c-.19-.3-.35-.61-.52-.92a2.94,2.94,0,0,0-2.35-1.56A4.31,4.31,0,0,0,20.87,25.27ZM23,24.05l0,0h.07a2.81,2.81,0,0,1,2.54.86c.16.16.31.32.48.46a4.43,4.43,0,0,0,.6.47,1.57,1.57,0,0,0,2.21-.7,3.47,3.47,0,0,0,.26-1.27v-.66h0l-.06.09a3.44,3.44,0,0,1-.35.41.77.77,0,0,1-.84.16,2.54,2.54,0,0,1-.49-.26,7.52,7.52,0,0,1-.62-.5,2,2,0,0,0-1.41-.46,2.83,2.83,0,0,0-1.8.79A8.07,8.07,0,0,0,23,24.05Zm-9.92,0a3.56,3.56,0,0,0-1.78-1.29,2.07,2.07,0,0,0-2.06.44,5.71,5.71,0,0,1-.48.38,2.77,2.77,0,0,1-.56.31.75.75,0,0,1-.83-.16A3.09,3.09,0,0,1,7,23.3s0-.05-.07-.09a4.6,4.6,0,0,0,.14,1.66,1.59,1.59,0,0,0,2.57.83l.37-.33c.24-.22.46-.45.7-.66a2.54,2.54,0,0,1,1.5-.66C12.52,24,12.82,24.05,13.11,24.05ZM11.83,22.4c-.14-.27-.25-.52-.39-.75a2.26,2.26,0,0,0-.86-.9,1.45,1.45,0,0,0-1.63,0c-.13.09-.27.19-.41.27a6,6,0,0,1-.58.26A.87.87,0,0,1,7,21.05a4.17,4.17,0,0,1-.36-.47l-.07-.12a2.59,2.59,0,0,0,0,.83,2.62,2.62,0,0,0,.5,1.26,1.3,1.3,0,0,0,.71.46A1.38,1.38,0,0,0,9,22.72l.65-.52A1.31,1.31,0,0,1,11.08,22C11.32,22.12,11.55,22.26,11.83,22.4Zm12.53,0c.27-.13.52-.28.78-.38a1.25,1.25,0,0,1,1.24.11l.27.2c.19.15.38.32.58.46a1.22,1.22,0,0,0,.73.28,1.32,1.32,0,0,0,1.26-.69,2.87,2.87,0,0,0,.38-1.72l0-.14c-.14.18-.26.37-.41.53a.89.89,0,0,1-1,.25,2,2,0,0,1-.45-.19c-.2-.11-.38-.24-.58-.36a1.73,1.73,0,0,0-.37-.16A1.54,1.54,0,0,0,25.3,21a3.06,3.06,0,0,0-.75,1C24.48,22.09,24.42,22.24,24.36,22.38Zm-18-4.69a2.86,2.86,0,0,0,.27,2.07,1.39,1.39,0,0,0,1.82.58A4.14,4.14,0,0,0,9,20.05a1.3,1.3,0,0,1,1.33,0,3.47,3.47,0,0,1,.33.18l.11.07a1.69,1.69,0,0,0,0-.25,2.85,2.85,0,0,0-.38-1.24,1.13,1.13,0,0,0-1.16-.56,2.6,2.6,0,0,0-.46.12L8,18.64a1.22,1.22,0,0,1-.63.07,1,1,0,0,1-.65-.42A6.8,6.8,0,0,1,6.32,17.69Zm23.51,0a.53.53,0,0,1-.07.15,6.17,6.17,0,0,1-.39.6.9.9,0,0,1-.9.28,3.38,3.38,0,0,1-.54-.17c-.23-.08-.45-.2-.68-.27a1.15,1.15,0,0,0-1.28.33,2.78,2.78,0,0,0-.54,1.67l.23-.14a1.43,1.43,0,0,1,1.66,0,2.55,2.55,0,0,0,.46.25,1.41,1.41,0,0,0,1.78-.58,2.54,2.54,0,0,0,.33-1A3,3,0,0,0,29.83,17.67Zm-7-.05H15.56a2.39,2.39,0,0,1,.27-.79L13.3,17.92,15.83,19a1.8,1.8,0,0,1-.26-.79h7.26Zm-12.52.47a.14.14,0,0,0,0-.06,3.07,3.07,0,0,0-.07-1,1.42,1.42,0,0,0-1-1.09,1.53,1.53,0,0,0-1,.07,4.81,4.81,0,0,1-.53.2.41.41,0,0,1-.57-.27A3.68,3.68,0,0,1,7,15.47s0-.08,0-.11a.3.3,0,0,0,0-.1A3.06,3.06,0,0,0,6.65,17a1.06,1.06,0,0,0,1.29,1,2.66,2.66,0,0,0,.65-.23,1.29,1.29,0,0,1,1.42.16Zm15.53,0,.33-.26a1.26,1.26,0,0,1,1.4-.15,3.28,3.28,0,0,0,.52.2,1.06,1.06,0,0,0,1.4-.84,3,3,0,0,0-.24-1.72.59.59,0,0,1,0-.08c-.05.19-.08.37-.13.54-.14.43-.35.54-.77.38-.2-.07-.39-.16-.59-.22a1.41,1.41,0,0,0-1.6.58A2.43,2.43,0,0,0,25.84,18.1Zm-.3-1.63c.08-.15.14-.29.22-.42a1.22,1.22,0,0,1,.86-.62,3.47,3.47,0,0,1,.72,0c.21,0,.42,0,.63,0a.7.7,0,0,0,.72-.58,1.31,1.31,0,0,0-.13-.91,3.08,3.08,0,0,0-.75-.93h0c0,.12,0,.25,0,.37a.61.61,0,0,1-.64.68l-.61,0a1.08,1.08,0,0,0-1,.73A3.29,3.29,0,0,0,25.54,16.47ZM8.39,13a2.83,2.83,0,0,0-.88,1.18,1.12,1.12,0,0,0,0,.88.6.6,0,0,0,.5.37,2.9,2.9,0,0,0,.51,0c.25,0,.5,0,.75,0a1.24,1.24,0,0,1,1,.53c.09.13.16.27.24.41s0,.08.06.14a4,4,0,0,0,.06-1.33A1.15,1.15,0,0,0,9.5,14.08l-.51,0a.58.58,0,0,1-.6-.58C8.38,13.31,8.39,13.16,8.39,13ZM26.21,11.8c0,.14,0,.24.06.35a.56.56,0,0,1-.4.65c-.14,0-.29.08-.44.12a.73.73,0,0,0-.6.89,3.63,3.63,0,0,0,.38,1.06h0a.15.15,0,0,1,0-.07,1.16,1.16,0,0,1,1-1.23,4,4,0,0,0,.59-.17.56.56,0,0,0,.3-.82A2,2,0,0,0,26.21,11.8ZM10,11.82a2.07,2.07,0,0,0-.87.7.59.59,0,0,0,.32.92l.23.07.49.13a1,1,0,0,1,.76.86c0,.13,0,.25,0,.41a3.41,3.41,0,0,0,.39-1.06.72.72,0,0,0-.63-.94,2.7,2.7,0,0,1-.43-.13.54.54,0,0,1-.37-.61Zm22.53,4.7-.13-.39-1.1.36a.22.22,0,0,1,.07-.09l.8-.72s.06-.07.05-.09-.07-.22-.11-.35L30,15.92l.12.38L31.2,16a.26.26,0,0,1-.07.1l-.79.7a.19.19,0,0,0-.05.1c0,.11.07.22.11.34ZM14.58,7.07h0L14.49,7l-.68-.81a.16.16,0,0,0-.09-.06l-.35.1L14,8.31l.39-.11L14,7.1a.22.22,0,0,1,.09.07l.68.81s.06.07.09.06a2.42,2.42,0,0,0,.36-.1l-.6-2.09L14.27,6Zm12.33,4.16.83-.78a.29.29,0,0,1,0,.14l-.41.95a.14.14,0,0,0,0,.11c.07.09.16.18.24.27l1.6-1.49-.28-.3-.84.79a.43.43,0,0,1,0-.12c.14-.32.29-.65.42-1,0,0,0-.08,0-.1s-.16-.18-.24-.27l-1.6,1.49ZM10.54,10.14,9.17,8.44l-.32.26.73.89c-.37-.16-.71-.34-1.06-.51a.17.17,0,0,0-.12,0l-.28.22L9.5,11l.31-.25L9.1,9.84a.24.24,0,0,1,.12,0l.93.48a.14.14,0,0,0,.11,0Zm10.84-3a.16.16,0,0,1,.15.17c0,.24,0,.48,0,.72,0,0,0,.08.05.09s.27.08.43.13a2.89,2.89,0,0,0-.13-1,1.59,1.59,0,0,0,.27-.18.91.91,0,0,0,.22-.67A.35.35,0,0,0,22.18,6l-.86-.27-.6,2.11.41.12ZM31.64,20l-.78.28s-.08,0-.08.06,0,.32,0,.5l1.27-.52a.13.13,0,0,1,.16,0l.38.22.37.22c0-.15,0-.28,0-.41a.2.2,0,0,0-.14-.23l-.66-.34v0h.77v-.43l-2.17,0v.43A1,1,0,0,1,31.64,20ZM9.27,11.2l-.12,0L8,10.7a.19.19,0,0,1-.14-.16c-.06-.23-.13-.46-.19-.69l0-.12c-.12.13-.24.25-.34.37a.13.13,0,0,0,0,.12c0,.18.11.36.17.55a1.55,1.55,0,0,1,.07.23h0L7,10.48l-.29.31,1.6,1.49L8.55,12c-.24-.21-.49-.4-.48-.76l.1,0,.66.31a.09.09,0,0,0,.13,0ZM11.9,8.27l.6.58s.07.05.09,0L13,8.66l-.94-.81a.34.34,0,0,1-.15-.37c0-.24,0-.48.05-.74L11.55,7a.21.21,0,0,0-.07.11c0,.25,0,.49,0,.73a.62.62,0,0,1,0,.12l-.38-.71-.38.2,1,1.93.39-.21C12,8.87,11.77,8.61,11.9,8.27ZM27.38,9a.65.65,0,0,0-.91-.59,1.8,1.8,0,0,0-1,1.22.57.57,0,0,0,.23.63.58.58,0,0,0,.65.08l.22-.12a2.24,2.24,0,0,0,.67-.83A2.55,2.55,0,0,0,27.38,9ZM4.21,17.46c-.13,0-.27,0-.4.08a.59.59,0,0,0-.45.5.56.56,0,0,0,.25.61,1.81,1.81,0,0,0,1.55.27.6.6,0,0,0,.43-.51.58.58,0,0,0-.24-.59A1.92,1.92,0,0,0,5,17.64,2.93,2.93,0,0,0,4.21,17.46ZM18.62,6a2.67,2.67,0,0,0-.15-.34.55.55,0,0,0-.23-.2.67.67,0,0,0-.9.36,2.48,2.48,0,0,0-.12.54,1.77,1.77,0,0,0,.17,1,.58.58,0,0,0,.46.34.81.81,0,0,0,.79-.33s0,0,0-.06l0-.88H18a1.76,1.76,0,0,0,0,.23,1.7,1.7,0,0,0,0,.22h.28c0,.1,0,.18-.05.26A.29.29,0,0,1,17.71,7a1.56,1.56,0,0,1,0-.8A.38.38,0,0,1,17.76,6a.22.22,0,0,1,.38,0,.67.67,0,0,1,.06.12Zm.5,1.65,1.17.17.07-.49-.74-.11.06-.42.66.09.07-.44-.67-.09L19.79,6l.72.1.06-.46-1.15-.16ZM6.17,12.27l.42-.59-.38-.27-.67.95,1.79,1.25.68-1-.41-.28L7.17,13l-.35-.25.38-.56-.36-.25-.39.55ZM16,6.43l0-.34L16.63,6l-.06-.46-1.15.17.31,2.16,1.17-.17-.07-.48-.74.1L16,6.87l.66-.1-.06-.43ZM29.85,15.6h0l1.71-1.32s0-.07,0-.1a2.36,2.36,0,0,1-.12-.28.11.11,0,0,0-.14-.07l-1.44.27-.67.12.18.4.36-.08L30,15l-.3.22Zm2.85,2.06-2.24-.14a2.57,2.57,0,0,1,.06.35c0,.07,0,.09.11.09a2.61,2.61,0,0,1,.28,0c0,.15.05.3.07.45s0,.05-.05.06l-.28.11.08.44.46-.2,1.51-.66a.13.13,0,0,0,.07-.09A2.93,2.93,0,0,0,32.7,17.66Zm-13.06,13v-1.8h-.36v1.05a.18.18,0,0,1-.07-.09c-.17-.29-.34-.59-.52-.88,0,0-.05-.08-.08-.08s-.21,0-.32,0v1.79h.35v-1a.29.29,0,0,1,.09.11c.17.28.33.57.5.84a.15.15,0,0,0,.08.08ZM4.58,20.23V20a.44.44,0,0,0-.32-.46,1.17,1.17,0,0,0-.74,0,.39.39,0,0,0-.31.41c0,.16,0,.32,0,.48v.23l2.18,0v-.44Zm20-11.72.22.13a.44.44,0,0,0,.52,0,1.12,1.12,0,0,0,.41-.7.35.35,0,0,0-.13-.37c-.22-.15-.45-.28-.69-.42L23.83,9l.37.22Zm-8,21.2c0-.09,0-.19,0-.29a.79.79,0,0,0-.79-.64.76.76,0,0,0-.8.63,1.61,1.61,0,0,0,0,.49.82.82,0,0,0,1.62.06Zm3.3.9h1.3v-.34h-.92v-.42h.82V29.5h-.81v-.34h.87v-.34H20ZM11.41,11.05a1.27,1.27,0,0,0-.57.39.55.55,0,0,0,.11.89c.1.08.22.15.32.22a.75.75,0,0,1,.37.6c0,.11,0,.21,0,.34a2.41,2.41,0,0,0,.48-.81.65.65,0,0,0-.33-.78l-.25-.15a.43.43,0,0,1-.2-.45C11.37,11.22,11.39,11.14,11.41,11.05Zm13.34,0,0,.15a.49.49,0,0,1-.25.6l-.26.15a.61.61,0,0,0-.28.55,1.72,1.72,0,0,0,.5,1,.28.28,0,0,0,0-.09.91.91,0,0,1,.5-.91,1.1,1.1,0,0,0,.28-.2.49.49,0,0,0,.19-.55A1.15,1.15,0,0,0,24.75,11ZM21.5,28.8v1.81h.38V30c.16,0,.3,0,.45,0a.48.48,0,0,0,.46-.38.61.61,0,0,0-.18-.65.3.3,0,0,0-.16-.08Zm6.83-15.92,1.31-1,.27.35.43-.32-.79-1.05-.43.32.26.35-1.31,1ZM6.73,14.7l.18-.39-1.47-.72.19-.4L5.15,13l-.58,1.19.48.23.2-.39ZM13.9,30a4.38,4.38,0,0,0,.52,0,.52.52,0,0,0,.41-.6.48.48,0,0,0-.47-.5c-.26,0-.53,0-.79,0h-.05v1.78h.38ZM3.66,16.72l2.1.57.29-1.08-.51-.13-.18.65-1.59-.42Zm8.91-6.31-.18.08a1,1,0,0,0-.4.43.55.55,0,0,0,.12.69l.19.18a.6.6,0,0,1,.22.39c0,.13,0,.27,0,.4a.31.31,0,0,1,0,.1,3.54,3.54,0,0,0,.41-.47.81.81,0,0,0,.13-.3.66.66,0,0,0-.23-.63.69.69,0,0,1-.24-.83S12.57,10.43,12.57,10.41ZM23.62,12.7l0,0c0-.08,0-.17,0-.25a.73.73,0,0,1,.31-.71l.13-.12a.55.55,0,0,0,.12-.65,1,1,0,0,0-.45-.48l-.16-.06a.81.81,0,0,0,0,.11.63.63,0,0,1-.15.64l-.17.18a.61.61,0,0,0-.1.77C23.32,12.32,23.48,12.5,23.62,12.7ZM13.5,9.89l-.11,0A.69.69,0,0,0,13.17,11a.8.8,0,0,1,.23.74s0,.1,0,.18c.14-.14.27-.26.38-.39a.9.9,0,0,0,.14-.2.53.53,0,0,0-.14-.72l-.09-.07a.46.46,0,0,1-.19-.47A1.62,1.62,0,0,1,13.5,9.89Zm9.15,0a.62.62,0,0,1-.28.77.5.5,0,0,0-.11.68,2.09,2.09,0,0,0,.53.59c0-.08,0-.13,0-.19A.76.76,0,0,1,23,11a1.49,1.49,0,0,0,.2-.29.35.35,0,0,0,0-.33A.91.91,0,0,0,22.65,9.88ZM18.08,30.27h-.83V28.84h-.37v1.77h1.2ZM22.75,8.55l.82-2-.4-.16-.82,2ZM10.94,9.85l.36-.23L10.11,7.79,9.75,8Zm19.72,2.56-1.85,1.15.23.37,1.85-1.16ZM6.37,15.47l-2-.79-.15.41,2,.78Zm15.32-4.32,0,0v-.25a.59.59,0,0,1,.22-.52l.14-.14a.59.59,0,0,0-.35-.9c0,.36,0,.43-.24.59a.5.5,0,0,0-.17.75C21.43,10.83,21.57,11,21.69,11.15Zm-7.24,0,0,0c.13-.17.27-.33.38-.5a.5.5,0,0,0-.17-.74.5.5,0,0,1-.25-.55s0,0,0-.06a.81.81,0,0,0-.44.43.37.37,0,0,0,0,.38,1.81,1.81,0,0,0,.25.3.57.57,0,0,1,.18.39Zm6.08-2.32a.85.85,0,0,1,0,.68.63.63,0,0,0,.28.78C21.41,9.76,21.11,9.15,20.53,8.81Zm-5.16,1.47c.08-.1.17-.19.24-.29a.43.43,0,0,0,.05-.41.91.91,0,0,1,0-.76A.83.83,0,0,0,15.37,10.28Z"/><path d="M23.3,14.66,21.73,13l-.65.6L19.94,13v4.32H18.31V9.93A1.35,1.35,0,0,1,18.7,9a.67.67,0,0,1,.9.06,1.31,1.31,0,0,1,.33.87c0,.33,0,.67,0,1a.12.12,0,0,0,.11.14,7,7,0,0,1,4.83,4.76,7.07,7.07,0,0,1-4.82,8.87c-.09,0-.12.06-.12.16,0,.75,0,1.51,0,2.26a.46.46,0,0,1-.18.37,1.41,1.41,0,0,1-.9.31h-.55V19.22a.76.76,0,0,1,.77-.77.88.88,0,0,1,.64.22.67.67,0,0,1,.21.5v3.68l.59-.28c.18-.09.36-.21.55-.32l.66.61,1.57-1.68-.67-.62.05-.09a5,5,0,0,0,.5-1.3c0-.08.05-.1.13-.1h.8v-2.3h-.89l-.09-.31a5,5,0,0,0-.46-1.1.09.09,0,0,1,0-.14Z"/><path d="M17.85,17.29H16.23V13a5.28,5.28,0,0,0-1.13.59L14.43,13l-1.56,1.69.54.51c.12.11.12.11.05.26A5.16,5.16,0,0,0,13,16.77h-.9v2.3h.82a.14.14,0,0,1,.1.06,5.48,5.48,0,0,0,.57,1.43l-.67.62,1.56,1.68.67-.61a6,6,0,0,0,1.13.59v-.15c0-1.16,0-2.32,0-3.48a.79.79,0,0,1,.75-.77.82.82,0,0,1,.78.39.86.86,0,0,1,.09.34c0,2.86,0,5.71,0,8.56v.09a1.89,1.89,0,0,1-1.43-.29.42.42,0,0,1-.19-.39c0-.75,0-1.5,0-2.25,0-.09,0-.13-.12-.16a7.09,7.09,0,0,1,0-13.63c.09,0,.11-.06.11-.15,0-.36,0-.72,0-1.08A1.22,1.22,0,0,1,16.67,9a.62.62,0,0,1,.81.07,1.34,1.34,0,0,1,.38.93c0,2.39,0,4.77,0,7.16Z"/><path d="M7.54,27l.09.08a7.64,7.64,0,0,0,.66.5.87.87,0,0,0,1.17-.19,4.78,4.78,0,0,0,.45-.63c.11-.18.2-.37.3-.56a2.9,2.9,0,0,1,2-1.52,3.66,3.66,0,0,1,2.26.21c.3.12.58.26.87.39v0h-.08a2.06,2.06,0,0,0-1.86.78,6.28,6.28,0,0,0-.82,1.39l-.62,1.24a4,4,0,0,1-.28.43A2.14,2.14,0,0,1,9.57,30,2.83,2.83,0,0,1,9,29.92a1.84,1.84,0,0,1-1.06-.77A3.28,3.28,0,0,1,7.54,27Z"/><path d="M20.87,25.27a4.31,4.31,0,0,1,2.72-.71,2.94,2.94,0,0,1,2.35,1.56c.17.31.33.62.52.92a1.8,1.8,0,0,0,.34.39.82.82,0,0,0,.93.16,2.17,2.17,0,0,0,.79-.55l.12-.11a3.38,3.38,0,0,1-.39,2.19,1.91,1.91,0,0,1-1.08.81,2.89,2.89,0,0,1-1.43,0,2.11,2.11,0,0,1-1.18-.83,7.74,7.74,0,0,1-.77-1.38c-.2-.4-.39-.8-.61-1.2A3.29,3.29,0,0,0,22.8,26,2.07,2.07,0,0,0,21,25.26Z"/><path d="M23,24.05a8.07,8.07,0,0,1,.58-.59,2.83,2.83,0,0,1,1.8-.79,2,2,0,0,1,1.41.46,7.52,7.52,0,0,0,.62.5,2.54,2.54,0,0,0,.49.26.77.77,0,0,0,.84-.16,3.44,3.44,0,0,0,.35-.41l.06-.09h0v.66A3.47,3.47,0,0,1,29,25.16a1.57,1.57,0,0,1-2.21.7,4.43,4.43,0,0,1-.6-.47c-.17-.14-.32-.3-.48-.46a2.81,2.81,0,0,0-2.54-.86h-.07Z"/><path d="M13.11,24.05c-.29,0-.59,0-.87,0a2.54,2.54,0,0,0-1.5.66c-.24.21-.46.44-.7.66l-.37.33a1.59,1.59,0,0,1-2.57-.83A4.6,4.6,0,0,1,7,23.21s0,.07.07.09a3.09,3.09,0,0,0,.37.43.75.75,0,0,0,.83.16,2.77,2.77,0,0,0,.56-.31,5.71,5.71,0,0,0,.48-.38,2.07,2.07,0,0,1,2.06-.44A3.56,3.56,0,0,1,13.11,24.05Z"/><path d="M11.83,22.4c-.28-.14-.51-.28-.75-.38a1.31,1.31,0,0,0-1.42.18L9,22.72A1.38,1.38,0,0,1,7.79,23a1.3,1.3,0,0,1-.71-.46,2.62,2.62,0,0,1-.5-1.26,2.59,2.59,0,0,1,0-.83l.07.12a4.17,4.17,0,0,0,.36.47.87.87,0,0,0,.93.24A6,6,0,0,0,8.54,21c.14-.08.28-.18.41-.27a1.45,1.45,0,0,1,1.63,0,2.26,2.26,0,0,1,.86.9C11.58,21.88,11.69,22.13,11.83,22.4Z"/><path d="M24.36,22.38c.06-.14.12-.29.19-.43a3.06,3.06,0,0,1,.75-1,1.54,1.54,0,0,1,1.49-.38,1.73,1.73,0,0,1,.37.16c.2.12.38.25.58.36a2,2,0,0,0,.45.19.89.89,0,0,0,1-.25c.15-.16.27-.35.41-.53l0,.14a2.87,2.87,0,0,1-.38,1.72,1.32,1.32,0,0,1-1.26.69,1.22,1.22,0,0,1-.73-.28c-.2-.14-.39-.31-.58-.46l-.27-.2A1.25,1.25,0,0,0,25.14,22C24.88,22.1,24.63,22.25,24.36,22.38Z"/><path d="M6.32,17.69a6.8,6.8,0,0,0,.36.6,1,1,0,0,0,.65.42A1.22,1.22,0,0,0,8,18.64l.75-.31a2.6,2.6,0,0,1,.46-.12,1.13,1.13,0,0,1,1.16.56A2.85,2.85,0,0,1,10.71,20a1.69,1.69,0,0,1,0,.25l-.11-.07a3.47,3.47,0,0,0-.33-.18,1.3,1.3,0,0,0-1.33,0,4.14,4.14,0,0,1-.55.29,1.39,1.39,0,0,1-1.82-.58A2.86,2.86,0,0,1,6.32,17.69Z"/><path d="M29.83,17.67a3,3,0,0,1,.06,1.14,2.54,2.54,0,0,1-.33,1,1.41,1.41,0,0,1-1.78.58,2.55,2.55,0,0,1-.46-.25,1.43,1.43,0,0,0-1.66,0l-.23.14A2.78,2.78,0,0,1,26,18.59a1.15,1.15,0,0,1,1.28-.33c.23.07.45.19.68.27a3.38,3.38,0,0,0,.54.17.9.9,0,0,0,.9-.28,6.17,6.17,0,0,0,.39-.6A.53.53,0,0,0,29.83,17.67Z"/><path d="M22.83,17.62v.59H15.57a1.8,1.8,0,0,0,.26.79L13.3,17.92l2.53-1.09a2.39,2.39,0,0,0-.27.79Z"/><path d="M10.31,18.09l-.3-.24a1.29,1.29,0,0,0-1.42-.16,2.66,2.66,0,0,1-.65.23,1.06,1.06,0,0,1-1.29-1A3.06,3.06,0,0,1,7,15.26a.3.3,0,0,1,0,.1s0,.07,0,.11a3.68,3.68,0,0,0,.15.47.41.41,0,0,0,.57.27,4.81,4.81,0,0,0,.53-.2,1.53,1.53,0,0,1,1-.07,1.42,1.42,0,0,1,1,1.09,3.07,3.07,0,0,1,.07,1A.14.14,0,0,1,10.31,18.09Z"/><path d="M25.84,18.1a2.43,2.43,0,0,1,.28-1.57,1.41,1.41,0,0,1,1.6-.58c.2.06.39.15.59.22.42.16.63,0,.77-.38.05-.17.08-.35.13-.54a.59.59,0,0,0,0,.08,3,3,0,0,1,.24,1.72,1.06,1.06,0,0,1-1.4.84,3.28,3.28,0,0,1-.52-.2,1.26,1.26,0,0,0-1.4.15Z"/><path d="M25.54,16.47a3.29,3.29,0,0,1,0-1.65,1.08,1.08,0,0,1,1-.73l.61,0a.61.61,0,0,0,.64-.68c0-.12,0-.25,0-.37h0a3.08,3.08,0,0,1,.75.93,1.31,1.31,0,0,1,.13.91.7.7,0,0,1-.72.58c-.21,0-.42,0-.63,0a3.47,3.47,0,0,0-.72,0,1.22,1.22,0,0,0-.86.62C25.68,16.18,25.62,16.32,25.54,16.47Z"/><path d="M8.39,13c0,.18,0,.33,0,.49a.58.58,0,0,0,.6.58l.51,0a1.15,1.15,0,0,1,1.18,1.07,4,4,0,0,1-.06,1.33c0-.06,0-.1-.06-.14s-.15-.28-.24-.41a1.24,1.24,0,0,0-1-.53c-.25,0-.5,0-.75,0a2.9,2.9,0,0,1-.51,0,.6.6,0,0,1-.5-.37,1.12,1.12,0,0,1,0-.88A2.83,2.83,0,0,1,8.39,13Z"/><path d="M26.21,11.8a2,2,0,0,1,.91.79.56.56,0,0,1-.3.82,4,4,0,0,1-.59.17,1.16,1.16,0,0,0-1,1.23.15.15,0,0,0,0,.07h0a3.63,3.63,0,0,1-.38-1.06.73.73,0,0,1,.6-.89c.15,0,.3-.07.44-.12a.56.56,0,0,0,.4-.65C26.25,12,26.23,11.94,26.21,11.8Z"/><path d="M10,11.82l-.06.35a.54.54,0,0,0,.37.61,2.7,2.7,0,0,0,.43.13.72.72,0,0,1,.63.94,3.41,3.41,0,0,1-.39,1.06c0-.16,0-.28,0-.41a1,1,0,0,0-.76-.86l-.49-.13-.23-.07a.59.59,0,0,1-.32-.92A2.07,2.07,0,0,1,10,11.82Z"/><path d="M32.48,16.52l-2.08.67c0-.12-.08-.23-.11-.34a.19.19,0,0,1,.05-.1l.79-.7a.26.26,0,0,0,.07-.1l-1.09.35L30,15.92l2.07-.68c0,.13.08.23.11.35s0,.07-.05.09l-.8.72a.22.22,0,0,0-.07.09l1.1-.36Z"/><path d="M14.58,7.07,14.27,6l.39-.11.6,2.09a2.42,2.42,0,0,1-.36.1s-.07,0-.09-.06l-.68-.81A.22.22,0,0,0,14,7.1l.32,1.1L14,8.31l-.6-2.09.35-.1a.16.16,0,0,1,.09.06l.68.81.07.09Z"/><path d="M26.91,11.23l-.28-.29,1.6-1.49c.08.09.16.17.24.27s0,.07,0,.1c-.13.33-.28.66-.42,1a.43.43,0,0,0,0,.12l.84-.79.28.3-1.6,1.49c-.08-.09-.17-.18-.24-.27a.14.14,0,0,1,0-.11l.41-.95a.29.29,0,0,0,0-.14Z"/><path d="M10.54,10.14l-.28.22a.14.14,0,0,1-.11,0l-.93-.48a.24.24,0,0,0-.12,0l.71.89L9.5,11,8.12,9.28l.28-.22a.17.17,0,0,1,.12,0c.35.17.69.35,1.06.51L8.85,8.7l.32-.26Z"/><path d="M21.38,7.15,21.13,8l-.41-.12.6-2.11.86.27a.35.35,0,0,1,.23.34.91.91,0,0,1-.22.67,1.59,1.59,0,0,1-.27.18,2.89,2.89,0,0,1,.13,1c-.16,0-.3-.08-.43-.13s0-.06-.05-.09c0-.24,0-.48,0-.72A.16.16,0,0,0,21.38,7.15Zm.24-.83c0,.08,0,.14-.06.21l-.06.22c.13,0,.25.11.36,0a.22.22,0,0,0,.08-.27C21.89,6.34,21.73,6.38,21.62,6.32Z"/><path d="M31.64,20a1,1,0,0,0-.87-.21v-.43l2.17,0v.43h-.77v0l.66.34a.2.2,0,0,1,.14.23c0,.13,0,.26,0,.41l-.37-.22-.38-.22a.13.13,0,0,0-.16,0l-1.27.52c0-.18,0-.34,0-.5s0,0,.08-.06Z"/><path d="M9.27,11.2,9,11.52a.09.09,0,0,1-.13,0l-.66-.31-.1,0c0,.36.24.55.48.76l-.29.32-1.6-1.49L7,10.48l.58.53h0a1.55,1.55,0,0,0-.07-.23c-.06-.19-.12-.37-.17-.55a.13.13,0,0,1,0-.12c.1-.12.22-.24.34-.37l0,.12c.06.23.13.46.19.69A.19.19,0,0,0,8,10.7l1.13.45Z"/><path d="M11.9,8.27c-.13.34,0,.6.21.88l-.39.21-1-1.93.38-.2.38.71a.62.62,0,0,0,0-.12c0-.24,0-.48,0-.73A.21.21,0,0,1,11.55,7L12,6.74c0,.26,0,.5-.05.74a.34.34,0,0,0,.15.37l.94.81-.44.23s-.06,0-.09,0Z"/><path d="M27.38,9a2.55,2.55,0,0,1-.13.39,2.24,2.24,0,0,1-.67.83l-.22.12a.58.58,0,0,1-.65-.08.57.57,0,0,1-.23-.63,1.8,1.8,0,0,1,1-1.22A.65.65,0,0,1,27.38,9Zm-.5.11a.23.23,0,0,0-.37-.22,1.44,1.44,0,0,0-.56.68.3.3,0,0,0,0,.13.22.22,0,0,0,.27.21.45.45,0,0,0,.17-.08c.16-.18.31-.36.45-.55A.5.5,0,0,0,26.88,9.1Z"/><path d="M4.21,17.46a2.93,2.93,0,0,1,.83.18,1.92,1.92,0,0,1,.31.18.58.58,0,0,1,.24.59.6.6,0,0,1-.43.51,1.81,1.81,0,0,1-1.55-.27A.56.56,0,0,1,3.36,18a.59.59,0,0,1,.45-.5C3.94,17.5,4.08,17.49,4.21,17.46Zm0,.43L4,18a.22.22,0,0,0-.06.37.51.51,0,0,0,.2.12,5.4,5.4,0,0,0,.58.1.49.49,0,0,0,.24,0A.22.22,0,0,0,5,18.13a.44.44,0,0,0-.16-.1Z"/><path d="M18.62,6l-.42.13A.67.67,0,0,0,18.14,6a.22.22,0,0,0-.38,0,.38.38,0,0,0-.08.17,1.56,1.56,0,0,0,0,.8.29.29,0,0,0,.51.14c.09-.08.05-.16.05-.26H18a1.7,1.7,0,0,1,0-.22,1.76,1.76,0,0,1,0-.23h.66l0,.88s0,0,0,.06a.81.81,0,0,1-.79.33.58.58,0,0,1-.46-.34,1.77,1.77,0,0,1-.17-1,2.48,2.48,0,0,1,.12-.54.67.67,0,0,1,.9-.36.55.55,0,0,1,.23.2A2.67,2.67,0,0,1,18.62,6Z"/><path d="M19.12,7.67l.3-2.16,1.15.16-.06.46L19.79,6l-.05.35.67.09-.07.44-.66-.09-.06.42.74.11-.07.49Z"/><path d="M6.17,12.27l.28.2.39-.55.36.25-.38.56.35.25.43-.62.41.28-.68,1L5.54,12.36l.67-.95.38.27Z"/><path d="M16,6.43l.67-.09.06.43-.66.1.06.43.74-.1.07.48-1.17.17-.31-2.16,1.15-.17.06.46-.71.11Z"/><path d="M29.85,15.6l-.17-.39L30,15l-.2-.45-.36.08-.18-.4.67-.12,1.44-.27a.11.11,0,0,1,.14.07,2.36,2.36,0,0,0,.12.28s0,.09,0,.1L29.88,15.6Zm.52-.88.61-.43v0l-.73.16Z"/><path d="M32.7,17.66a2.93,2.93,0,0,1,.07.41.13.13,0,0,1-.07.09l-1.51.66-.46.2-.08-.44.28-.11s.05,0,.05-.06-.05-.3-.07-.45a2.61,2.61,0,0,0-.28,0c-.07,0-.1,0-.11-.09a2.57,2.57,0,0,0-.06-.35ZM31.39,18l.05.3.7-.27v0Z"/><path d="M19.64,30.62h-.33a.15.15,0,0,1-.08-.08c-.17-.27-.33-.56-.5-.84a.29.29,0,0,0-.09-.11v1h-.35V28.82c.11,0,.21,0,.32,0s.06.05.08.08c.18.29.35.59.52.88a.18.18,0,0,0,.07.09V28.82h.36Z"/><path d="M4.58,20.23h.8v.44l-2.18,0V20.4c0-.16,0-.32,0-.48a.39.39,0,0,1,.31-.41,1.17,1.17,0,0,1,.74,0,.44.44,0,0,1,.32.46Zm-.45,0c0-.11,0-.22-.08-.29a.32.32,0,0,0-.33,0,.3.3,0,0,0-.07.29Z"/><path d="M24.62,8.51l-.42.69L23.83,9,25,7.11c.24.14.47.27.69.42a.35.35,0,0,1,.13.37,1.12,1.12,0,0,1-.41.7.44.44,0,0,1-.52,0Zm.47-.8-.24.41c.2.15.3.14.4,0S25.32,7.83,25.09,7.71Z"/><path d="M16.66,29.71l0,.25A.82.82,0,0,1,15,29.9a1.61,1.61,0,0,1,0-.49.76.76,0,0,1,.8-.63.79.79,0,0,1,.79.64C16.64,29.52,16.65,29.62,16.66,29.71Zm-.39,0a2.11,2.11,0,0,0-.06-.29.38.38,0,0,0-.38-.28.39.39,0,0,0-.39.27.91.91,0,0,0,0,.63.39.39,0,0,0,.39.25A.37.37,0,0,0,16.2,30,2.17,2.17,0,0,0,16.27,29.71Z"/><path d="M20,30.61V28.82h1.26v.34h-.87v.34h.81v.35h-.82v.42h.92v.34Z"/><path d="M11.41,11.05c0,.09,0,.17-.05.25a.43.43,0,0,0,.2.45l.25.15a.65.65,0,0,1,.33.78,2.41,2.41,0,0,1-.48.81c0-.13,0-.23,0-.34a.75.75,0,0,0-.37-.6c-.1-.07-.22-.14-.32-.22a.55.55,0,0,1-.11-.89A1.27,1.27,0,0,1,11.41,11.05Z"/><path d="M24.75,11a1.15,1.15,0,0,1,.73.68.49.49,0,0,1-.19.55,1.1,1.1,0,0,1-.28.2.91.91,0,0,0-.5.91.28.28,0,0,1,0,.09,1.72,1.72,0,0,1-.5-1,.61.61,0,0,1,.28-.55l.26-.15a.49.49,0,0,0,.25-.6Z"/><path d="M21.5,28.8l.95,0a.3.3,0,0,1,.16.08.61.61,0,0,1,.18.65.48.48,0,0,1-.46.38c-.15,0-.29,0-.45,0v.66H21.5Zm.39.82c.13,0,.25,0,.37,0a.18.18,0,0,0,.16-.2.19.19,0,0,0-.16-.21c-.12,0-.24,0-.37,0Z"/><path d="M28.33,12.88l-.26-.35,1.31-1-.26-.35.43-.32.79,1.05-.43.32-.27-.35Z"/><path d="M6.73,14.7,5.25,14l-.2.39-.48-.23L5.15,13l.48.24-.19.4,1.47.72Z"/><path d="M13.9,30v.64h-.38V28.83h.05c.26,0,.53,0,.79,0a.48.48,0,0,1,.47.5.52.52,0,0,1-.41.6A4.38,4.38,0,0,1,13.9,30Zm0-.36h.35a.22.22,0,0,0,.18-.22.21.21,0,0,0-.18-.21c-.12,0-.23,0-.35,0Z"/><path d="M3.66,16.72l.11-.41,1.59.42.18-.65.51.13-.29,1.08Z"/><path d="M12.57,10.41s0,0,0,0a.69.69,0,0,0,.24.83.66.66,0,0,1,.23.63.81.81,0,0,1-.13.3,3.54,3.54,0,0,1-.41.47.31.31,0,0,0,0-.1c0-.13,0-.27,0-.4a.6.6,0,0,0-.22-.39l-.19-.18a.55.55,0,0,1-.12-.69,1,1,0,0,1,.4-.43Z"/><path d="M23.62,12.7c-.14-.2-.3-.38-.43-.59a.61.61,0,0,1,.1-.77l.17-.18a.63.63,0,0,0,.15-.64.81.81,0,0,1,0-.11l.16.06a1,1,0,0,1,.45.48.55.55,0,0,1-.12.65l-.13.12a.73.73,0,0,0-.31.71c0,.08,0,.17,0,.25Z"/><path d="M13.5,9.89a1.62,1.62,0,0,0,0,.18.46.46,0,0,0,.19.47l.09.07a.53.53,0,0,1,.14.72.9.9,0,0,1-.14.2c-.11.13-.24.25-.38.39,0-.08,0-.13,0-.18a.8.8,0,0,0-.23-.74.69.69,0,0,1,.22-1.06Z"/><path d="M22.65,9.88a.91.91,0,0,1,.54.51.35.35,0,0,1,0,.33A1.49,1.49,0,0,1,23,11a.76.76,0,0,0-.23.72c0,.06,0,.11,0,.19a2.09,2.09,0,0,1-.53-.59.5.5,0,0,1,.11-.68A.62.62,0,0,0,22.65,9.88Z"/><path d="M18.08,30.27v.34h-1.2V28.84h.37v1.43Z"/><path d="M22.75,8.55l-.4-.16.82-2,.4.16Z"/><path d="M10.94,9.85,9.75,8l.36-.23L11.3,9.62Z"/><path d="M30.66,12.41l.23.36L29,13.93l-.23-.37Z"/><path d="M6.37,15.47l-.16.4-2-.78.15-.41Z"/><path d="M21.69,11.15c-.12-.17-.26-.32-.37-.49a.5.5,0,0,1,.17-.75c.23-.16.26-.23.24-.59a.59.59,0,0,1,.35.9l-.14.14a.59.59,0,0,0-.22.52v.25Z"/><path d="M14.45,11.13V10.8a.57.57,0,0,0-.18-.39,1.81,1.81,0,0,1-.25-.3.37.37,0,0,1,0-.38.81.81,0,0,1,.44-.43s0,0,0,.06a.5.5,0,0,0,.25.55.5.5,0,0,1,.17.74c-.11.17-.25.33-.38.5Z"/><path d="M20.53,8.81c.58.34.88.95.28,1.46a.63.63,0,0,1-.28-.78A.85.85,0,0,0,20.53,8.81Z"/><path d="M15.37,10.28a.83.83,0,0,1,.26-1.46.91.91,0,0,0,0,.76.43.43,0,0,1-.05.41C15.54,10.09,15.45,10.18,15.37,10.28Z"/><path class="cls-1" d="M21.62,6.32c.11.06.27,0,.32.17a.22.22,0,0,1-.08.27c-.11.1-.23,0-.36,0l.06-.22C21.58,6.46,21.6,6.4,21.62,6.32Z"/><path class="cls-1" d="M26.88,9.1a.5.5,0,0,1-.06.17c-.14.19-.29.37-.45.55a.45.45,0,0,1-.17.08.22.22,0,0,1-.27-.21.3.3,0,0,1,0-.13,1.44,1.44,0,0,1,.56-.68A.23.23,0,0,1,26.88,9.1Z"/><path class="cls-1" d="M4.26,17.89l.59.14a.44.44,0,0,1,.16.1.22.22,0,0,1-.06.38.49.49,0,0,1-.24,0,5.4,5.4,0,0,1-.58-.1.51.51,0,0,1-.2-.12A.22.22,0,0,1,4,18Z"/><path class="cls-1" d="M30.37,14.72l-.13-.29.73-.16v0Z"/><path class="cls-1" d="M31.39,18h.74v0l-.7.27Z"/><path class="cls-1" d="M4.13,20.21H3.65a.3.3,0,0,1,.07-.29.32.32,0,0,1,.33,0C4.16,20,4.14,20.1,4.13,20.21Z"/><path class="cls-1" d="M25.09,7.71c.23.12.27.22.16.39s-.2.17-.4,0Z"/><path class="cls-1" d="M16.27,29.71a2.17,2.17,0,0,1-.07.33.37.37,0,0,1-.37.25.39.39,0,0,1-.39-.25.91.91,0,0,1,0-.63.39.39,0,0,1,.39-.27.38.38,0,0,1,.38.28A2.11,2.11,0,0,1,16.27,29.71Z"/><path class="cls-1" d="M21.89,29.62v-.46c.13,0,.25,0,.37,0a.19.19,0,0,1,.16.21.18.18,0,0,1-.16.2C22.14,29.61,22,29.61,21.89,29.62Z"/><path class="cls-1" d="M13.91,29.61v-.44c.12,0,.23,0,.35,0a.21.21,0,0,1,.18.21.22.22,0,0,1-.18.22Z"/><path class="cls-2" d="M0,12.8c.07,0,.1-.07.14-.11,1.11-1,2.13-2.13,3.17-3.22s2.1-2.16,3.24-3.15a25.13,25.13,0,0,1,5.26-3.45C13.18,2.2,14.58,1.61,16,1,16.62.69,17.26.37,17.9,0c0,0,0,0,0,0h0c.36.21.74.39,1.11.58,1.21.61,2.46,1.16,3.69,1.73A39.82,39.82,0,0,1,27,4.56a25.11,25.11,0,0,1,4.52,3.7c.9.91,1.75,1.86,2.62,2.79.55.59,1.12,1.16,1.7,1.72a.16.16,0,0,1,.06.16c-.25,1.33-.43,2.67-.59,4-.19,1.5-.4,3-.71,4.5a24,24,0,0,1-2.38,6.44c-.65,1.21-1.36,2.39-2,3.59-.39.67-.75,1.35-1.09,2a.17.17,0,0,1-.15.11c-1.87.24-3.72.64-5.57,1-1.29.23-2.58.42-3.88.52a22,22,0,0,1-3.72,0,37.53,37.53,0,0,1-4.73-.74c-1.37-.28-2.73-.56-4.12-.75a.1.1,0,0,1-.1-.07c-1-2-2.09-3.81-3.11-5.73a31.24,31.24,0,0,1-1.84-4.14A24.73,24.73,0,0,1,1,20c-.24-1.4-.38-2.82-.54-4.23-.1-.94-.23-1.88-.4-2.81,0,0,0,0,0,0ZM18,34.61c.34,0,.94,0,1.54-.07A40.62,40.62,0,0,0,23.59,34c1.66-.3,3.31-.65,5-.87a.2.2,0,0,0,.16-.12c.29-.58.6-1.16.93-1.73.7-1.23,1.43-2.43,2.09-3.68a23.72,23.72,0,0,0,2.09-5.33,43.74,43.74,0,0,0,.86-5c.17-1.38.34-2.77.59-4.14a.16.16,0,0,0,0-.16c-.48-.45-.94-.93-1.4-1.41-.92-1-1.81-2-2.76-2.93A24.47,24.47,0,0,0,26.57,5a41.62,41.62,0,0,0-4.29-2.24c-1.42-.66-2.86-1.29-4.24-2a.15.15,0,0,0-.16,0c-.51.27-1,.52-1.56.76C15.1,2,13.85,2.54,12.64,3.12A26.3,26.3,0,0,0,8.35,5.63,31.66,31.66,0,0,0,4.54,9C3.25,10.36,2,11.73.68,13a.13.13,0,0,0,0,.13c.17.94.29,1.89.39,2.83.14,1.29.28,2.57.49,3.84a23.12,23.12,0,0,0,1.24,4.56,34.87,34.87,0,0,0,2,4.22C5.62,30,6.48,31.49,7.22,33c0,0,.06.06.11.07.56.08,1.11.17,1.66.27,1.5.29,3,.63,4.5.88A27.66,27.66,0,0,0,18,34.61Z"/><path class="cls-3" d="M18,34.61a27.66,27.66,0,0,1-4.47-.37c-1.51-.25-3-.59-4.5-.88-.55-.1-1.1-.19-1.66-.27,0,0-.09,0-.11-.07-.74-1.53-1.6-3-2.42-4.46a34.87,34.87,0,0,1-2-4.22,23.12,23.12,0,0,1-1.24-4.56c-.21-1.27-.35-2.55-.49-3.84C.93,15,.81,14.05.64,13.11a.13.13,0,0,1,0-.13C2,11.73,3.25,10.36,4.54,9A31.66,31.66,0,0,1,8.35,5.63a26.3,26.3,0,0,1,4.29-2.51c1.21-.58,2.46-1.1,3.68-1.66.53-.24,1.05-.49,1.56-.76a.15.15,0,0,1,.16,0c1.38.74,2.82,1.37,4.24,2A41.62,41.62,0,0,1,26.57,5a24.47,24.47,0,0,1,4.51,3.67c1,.95,1.84,1.95,2.76,2.93.46.48.92,1,1.4,1.41a.16.16,0,0,1,0,.16c-.25,1.37-.42,2.76-.59,4.14a43.74,43.74,0,0,1-.86,5,23.72,23.72,0,0,1-2.09,5.33c-.66,1.25-1.39,2.45-2.09,3.68-.33.57-.64,1.15-.93,1.73a.2.2,0,0,1-.16.12c-1.67.22-3.32.57-5,.87a40.62,40.62,0,0,1-4.09.57C18.9,34.58,18.3,34.61,18,34.61Zm-.09-.56L19,34a37.73,37.73,0,0,0,4.74-.63c1.51-.28,3-.6,4.52-.8a.17.17,0,0,0,.14-.1c.23-.46.48-.92.74-1.37.64-1.14,1.32-2.26,1.95-3.41a23.49,23.49,0,0,0,2.11-5.08,37.16,37.16,0,0,0,1-5.34c.16-1.32.32-2.64.55-3.95a.17.17,0,0,0,0-.18q-.36-.35-.69-.69c-1-1-1.91-2.06-2.87-3.07a25.55,25.55,0,0,0-4.55-3.81,37,37,0,0,0-4.4-2.33C20.76,2.62,19.38,2,18,1.31c-.06,0-.1,0-.16,0-.46.24-.94.47-1.41.68-1.23.56-2.47,1.08-3.68,1.66a24,24,0,0,0-5,3.12,36.51,36.51,0,0,0-3.2,3c-1.09,1.13-2.16,2.29-3.3,3.38-.06.05-.05.1,0,.16.15.87.26,1.75.35,2.63.14,1.25.27,2.5.48,3.74A22.52,22.52,0,0,0,3.4,24.46a38.26,38.26,0,0,0,1.95,4c.76,1.36,1.55,2.69,2.24,4.08,0,.07.08.08.14.09L9,32.8c1.32.25,2.63.55,4,.79A25.86,25.86,0,0,0,17.87,34.05Z"/><path class="cls-2" d="M17.87,34.05A25.86,25.86,0,0,1,13,33.59c-1.32-.24-2.63-.54-4-.79l-1.28-.21c-.06,0-.11,0-.14-.09-.69-1.39-1.48-2.72-2.24-4.08a38.26,38.26,0,0,1-1.95-4,22.52,22.52,0,0,1-1.33-4.75c-.21-1.24-.34-2.49-.48-3.74-.09-.88-.2-1.76-.35-2.63,0-.06,0-.11,0-.16,1.14-1.09,2.21-2.25,3.3-3.38a36.51,36.51,0,0,1,3.2-3,24,24,0,0,1,5-3.12C14,3.08,15.24,2.56,16.47,2c.47-.21,1-.44,1.41-.68.06,0,.1,0,.16,0,1.34.7,2.72,1.31,4.09,1.95a37,37,0,0,1,4.4,2.33A25.55,25.55,0,0,1,31.08,9.4c1,1,1.89,2.07,2.87,3.07q.33.34.69.69a.17.17,0,0,1,0,.18c-.23,1.31-.39,2.63-.55,3.95a37.16,37.16,0,0,1-1,5.34,23.49,23.49,0,0,1-2.11,5.08c-.63,1.15-1.31,2.27-1.95,3.41-.26.45-.51.91-.74,1.37a.17.17,0,0,1-.14.1c-1.51.2-3,.52-4.52.8A37.73,37.73,0,0,1,19,34Zm-.14-.29c.7,0,1.43,0,2.16-.1,1.43-.14,2.85-.39,4.27-.66s2.58-.5,3.89-.68a.13.13,0,0,0,.11-.09c.12-.24.25-.47.38-.7.65-1.21,1.37-2.37,2-3.56A24.39,24.39,0,0,0,33,22a44.13,44.13,0,0,0,.86-5.1c.15-1.16.28-2.31.49-3.46a.2.2,0,0,0-.06-.19c-.32-.33-.65-.65-1-1-.93-1-1.82-2-2.76-2.95a23.9,23.9,0,0,0-4.22-3.48A37.21,37.21,0,0,0,22,3.5C20.65,2.89,19.32,2.31,18,1.64a.15.15,0,0,0-.16,0l-1.24.6c-1.23.56-2.48,1.08-3.7,1.66A24.16,24.16,0,0,0,8.23,6.79,33.52,33.52,0,0,0,5,9.82C3.85,11,2.77,12.15,1.62,13.26a.16.16,0,0,0-.06.19c.11.69.2,1.39.28,2.08.12,1.09.23,2.17.38,3.26a24.13,24.13,0,0,0,.91,4.09A28,28,0,0,0,5.2,27.53c.85,1.58,1.78,3.11,2.58,4.72a.14.14,0,0,0,.12.07q.69.1,1.38.24c1.32.25,2.63.55,4,.78A24.78,24.78,0,0,0,17.73,33.76Z"/><path class="cls-3" d="M17.73,33.76a24.78,24.78,0,0,1-4.5-.42c-1.32-.23-2.63-.53-4-.78q-.69-.14-1.38-.24a.14.14,0,0,1-.12-.07C7,30.64,6.05,29.11,5.2,27.53a28,28,0,0,1-2.07-4.65,24.13,24.13,0,0,1-.91-4.09c-.15-1.09-.26-2.17-.38-3.26-.08-.69-.17-1.39-.28-2.08a.16.16,0,0,1,.06-.19C2.77,12.15,3.85,11,5,9.82a33.52,33.52,0,0,1,3.27-3,24.16,24.16,0,0,1,4.71-2.88c1.22-.58,2.47-1.1,3.7-1.66l1.24-.6a.15.15,0,0,1,.16,0c1.28.67,2.61,1.25,3.92,1.86a37.21,37.21,0,0,1,4.41,2.34,23.9,23.9,0,0,1,4.22,3.48c.94,1,1.83,2,2.76,2.95.32.34.65.66,1,1a.2.2,0,0,1,.06.19c-.21,1.15-.34,2.3-.49,3.46A44.13,44.13,0,0,1,33,22a24.39,24.39,0,0,1-2.45,6c-.67,1.19-1.39,2.35-2,3.56-.13.23-.26.46-.38.7a.13.13,0,0,1-.11.09c-1.31.18-2.6.44-3.89.68s-2.84.52-4.27.66C19.16,33.72,18.43,33.77,17.73,33.76Zm5.4-11.12,0,0h0s.05,0,0-.06h0c.08,0,.11-.07.14-.13h0s0,0,0-.05h0c.06,0,.08,0,.09-.09h0s0,0,0,0h0c.05,0,.06,0,.07-.07h0a.17.17,0,0,0,.09-.11h0a.36.36,0,0,0,.11-.16h0c.05,0,.06-.06.08-.09a7,7,0,0,0,1.24-3.76,7,7,0,0,0-1-4s0-.07-.07-.09h0a.07.07,0,0,0,0-.07h0s0-.05,0-.06h0a.05.05,0,0,0,0-.07h0a.08.08,0,0,0,0-.07h0a.11.11,0,0,0-.06-.09h0a.4.4,0,0,0-.14-.18h0a.11.11,0,0,0-.07-.09h0s0,0,0,0h0a.14.14,0,0,0-.09-.11h0s0,0,0,0h0a.15.15,0,0,0-.11-.11h0s0,0,0,0h0s0,0,0,0h0a1.75,1.75,0,0,0-.45-.45h0s0,0,0,0h0s0,0-.05,0h0s0,0,0,0h0a.15.15,0,0,0-.11-.11h0s0-.05,0,0h0s-.05-.07-.09-.09h0a.27.27,0,0,0-.12-.09h0a.1.1,0,0,0-.09-.06h0a.11.11,0,0,0-.09-.07h0s-.05,0-.07-.06a6.76,6.76,0,0,0-2.13-1c-.08,0-.11-.06-.11-.15v-1A1.4,1.4,0,0,0,19.49,9a.66.66,0,0,0-.89-.06,1.27,1.27,0,0,0-.4.9q0,3.65,0,7.29a.13.13,0,0,0,0,.1h1.61v-4.3a5.06,5.06,0,0,1,1.13.59l.67-.62,1.56,1.69-.67.62a5.65,5.65,0,0,1,.59,1.49H24v2.29h-.9a5.39,5.39,0,0,1-.59,1.5l.67.61-1.56,1.69L21,22.12q-.27.18-.54.33a5.26,5.26,0,0,1-.59.26V19a.67.67,0,0,0-.2-.48.86.86,0,0,0-.67-.24.78.78,0,0,0-.76.76c0,2.83,0,5.66,0,8.49v.13a2.74,2.74,0,0,0,.57,0,1.33,1.33,0,0,0,.88-.31.41.41,0,0,0,.18-.37c0-.75,0-1.5,0-2.25a.29.29,0,0,1,0-.13l.1,0a7.26,7.26,0,0,0,1.84-.83s.07,0,.09-.07h0s.06,0,.07,0h0a.07.07,0,0,0,.07,0h0a.36.36,0,0,0,.16-.11h0a.13.13,0,0,0,.09-.07h0a.13.13,0,0,0,.09-.07h0a.16.16,0,0,0,.11-.09h0s.1,0,.11-.11h0s0,0,.05,0h0c.06,0,.12-.06.13-.14h0s0,0,.06,0h0l0,0h0s0,0,0,0h0a.87.87,0,0,0,.27-.27h0s0,0,0,0Zm-10.33,0h0s0,0,0,0h0a1.18,1.18,0,0,0,.29.3h0s0,0,0,0h0s0,.05.06,0h0c0,.08.08.11.14.14h0s0,0,0,0h0c0,.07.07.09.12.11h0a.14.14,0,0,0,.11.09h0a.13.13,0,0,0,.09.07h0a.13.13,0,0,0,.09.07h0a.31.31,0,0,0,.16.11h0a.05.05,0,0,0,.06,0h0a.06.06,0,0,0,.07,0h0a.88.88,0,0,0,.29.18h0s0,0,.07.05a6.31,6.31,0,0,0,1.56.66.14.14,0,0,1,.12.16c0,.75,0,1.5,0,2.25a.46.46,0,0,0,.19.38,1.88,1.88,0,0,0,1.44.3V19.06a.67.67,0,0,0-.18-.47.77.77,0,0,0-.57-.27.79.79,0,0,0-.88.88c0,1.12,0,2.24,0,3.37a.3.3,0,0,1,0,.13A5,5,0,0,1,15,22.12l-.67.62-1.56-1.69.67-.62a5.31,5.31,0,0,1-.58-1.49h-.9V16.65h.9a5.63,5.63,0,0,1,.58-1.49l-.67-.62,1.56-1.69.67.62a5.59,5.59,0,0,1,1.14-.59v4.29h1.62V9.86a1.38,1.38,0,0,0-.37-.94.64.64,0,0,0-.82-.06,1.21,1.21,0,0,0-.43.89c0,.37,0,.73,0,1.09,0,.08,0,.12-.1.13a5.78,5.78,0,0,0-.7.24,4.27,4.27,0,0,0-.68.33h0a4,4,0,0,0-.83.52h0a.13.13,0,0,0-.09.07h0a.11.11,0,0,0-.09.06h0a.2.2,0,0,0-.11.09h0s-.09,0-.09.09h0s0,0,0,0h0a.15.15,0,0,0-.11.11h0s0,0,0,0h0s0,0-.05,0h0s0,0,0,0h0a1.92,1.92,0,0,0-.45.45h0s0,0,0,0h0s0,0,0,0h0c-.07,0-.09.06-.11.11h0a0,0,0,0,0,0,0h0a.2.2,0,0,0-.09.11h0a0,0,0,0,0,0,0h0a.13.13,0,0,0-.07.09h0a.38.38,0,0,0-.13.18h0a.13.13,0,0,0-.07.09h0a.07.07,0,0,0,0,.07h0s-.05,0-.05.07h0s-.05,0,0,.06h0A.06.06,0,0,0,12,14h0s-.05.06-.07.09a7.13,7.13,0,0,0,.18,7.71s.05.09.09.11h0a.31.31,0,0,0,.12.16h0a.14.14,0,0,0,.09.11h0s0,.07.06.07h0s0,0,0,0h0s0,.09.09.09h0s0,0,0,.05h0c0,.06.06.12.13.13h0s0,0,0,.06h0S12.78,22.64,12.8,22.64ZM7.41,10.87l-.57-.51-.3.31,1.6,1.49.3-.32c-.24-.21-.5-.4-.48-.76l.76.35s.07,0,.11,0,.21-.23.32-.35a.16.16,0,0,0-.1-.05l-1.13-.45a.22.22,0,0,1-.16-.16c0-.24-.12-.48-.19-.72,0,0,0-.06,0-.09l-.31.33a.17.17,0,0,0,0,.18c.08.24.18.49.24.74ZM9,9.71l.1,0,.91.47s.07,0,.12,0l.28-.23L9.05,8.32l-.31.25a.22.22,0,0,0,.07.09l.63.79,0,0L8.41,9s-.07-.06-.12,0L8,9.16l1.37,1.7.32-.26-.09-.11L9,9.73Zm6.43,8.37h7.27v-.59H15.45a2.27,2.27,0,0,1,.27-.78L13.18,17.8l2.54,1.09A2.16,2.16,0,0,1,15.45,18.08Zm15.69-1.72a.18.18,0,0,1,.09-.1l.78-.7s.07,0,.05-.1-.07-.22-.11-.34l-2.08.67.13.39,1.05-.33v0L31,16c-.25.22-.5.44-.74.67,0,0-.08,0-.06.08l.12.36,2.08-.67L32.24,16Zm-16-8.54-.6-2.1-.39.12L14.47,7a.15.15,0,0,1-.06,0c-.24-.29-.48-.57-.71-.86,0,0,0-.07-.11,0l-.34.1.6,2.09.4-.11L13.94,7c.21.22.4.45.59.68s.13.23.23.25a.88.88,0,0,0,.34-.08Zm12.47,2.53h0a.36.36,0,0,1,0,.11c-.13.32-.27.63-.41.95,0,0,0,.07,0,.11l.25.27L29,10.31l-.28-.3-.42.39a4.71,4.71,0,0,1-.42.36q.22-.55.45-1.08s0-.06,0-.09a3.2,3.2,0,0,1-.25-.27l-1.6,1.5.28.29Zm3.06,10.36.14-.06,1.11-.46a.19.19,0,0,1,.19,0c.21.14.43.26.65.39,0,0,.05.05.08,0s0-.32,0-.48,0-.09-.09-.12l-.63-.34s-.07,0-.07-.07h.76v-.44l-2.17,0v.44c.32,0,.64-.06.88.21l-.86.3Zm-9.46-15-.61,2.1.42.12L21.27,7a.16.16,0,0,1,.14.15c0,.25,0,.49,0,.73,0,0,0,.09.06.11l.43.12c-.06-.36,0-.72-.15-1.05a.52.52,0,0,0,.39-.31,1.1,1.1,0,0,0,.11-.35.44.44,0,0,0-.35-.56ZM10.58,7.31l1,1.93L12,9c-.15-.28-.34-.54-.2-.87a.46.46,0,0,1,.07.07l.53.5s0,.07.1,0l.43-.23-1-.86a.24.24,0,0,1-.1-.25l.06-.81-.17.09c-.12.06-.27.1-.32.19s0,.25,0,.37v.51h0l-.18-.35L11,7.1ZM18.09,6l.39-.13a.8.8,0,0,0-.15-.39.33.33,0,0,0-.2-.17.7.7,0,0,0-.91.36,1.63,1.63,0,0,0-.12.53,1.92,1.92,0,0,0,.17,1,.6.6,0,0,0,.37.33.82.82,0,0,0,.89-.32l0,0,0-.9-.65,0v.45h.29c0,.07,0,.15,0,.2a.33.33,0,0,1-.27.15.23.23,0,0,1-.25-.15,1.38,1.38,0,0,1,0-1,.23.23,0,0,1,.45,0Zm9.15,2.8a.62.62,0,0,0-.92-.54,1.83,1.83,0,0,0-1,1.18.59.59,0,0,0,.22.64.6.6,0,0,0,.66.09,1.23,1.23,0,0,0,.25-.14,2.33,2.33,0,0,0,.64-.79A.9.9,0,0,0,27.24,8.84ZM4.1,17.35l-.2,0a.67.67,0,0,0-.61.4.63.63,0,0,0,.29.83,1.93,1.93,0,0,0,1.33.24.65.65,0,0,0,.17-1.25A2.22,2.22,0,0,0,4.1,17.35ZM20.23,6.79l.06-.44-.66-.1.05-.34.71.1.07-.46-1.15-.16L19,7.55l1.18.17.06-.49-.74-.11.07-.42ZM15.31,5.56l.3,2.17,1.17-.17-.06-.49-.75.1-.05-.42.66-.1-.06-.43-.66.09a2.11,2.11,0,0,1,0-.35l.71-.1-.06-.46ZM6.09,11.29l-.67,1,1.8,1.25.67-1-.4-.28-.43.61-.35-.25.38-.55-.36-.25-.39.55-.28-.2.41-.6Zm24.7,6.55c0,.14,0,.27.07.4s0,.1-.07.12a1.12,1.12,0,0,0-.26.11l.08.43,2.06-.9-.08-.46-2.24-.14.06.37c0,.06,0,.07.09.07A2.8,2.8,0,0,1,30.79,17.84ZM29.12,14.1l.18.4.36-.08.2.45-.3.21.18.42.3-.24,1.41-1.08s.08,0,.05-.11-.11-.25-.17-.38ZM19.53,30.5V28.7h-.36v1a.2.2,0,0,1-.08-.08l-.51-.88s0-.08-.09-.08h-.32v1.8h.36v-1a.85.85,0,0,1,.09.15c.17.28.33.56.49.84,0,0,0,.07.09.07ZM4.47,20.11v-.24a.46.46,0,0,0-.34-.48,1.28,1.28,0,0,0-.7,0,.43.43,0,0,0-.34.45v.69l2.18,0v-.44Zm20-11.72.23.13a.44.44,0,0,0,.51,0,1.11,1.11,0,0,0,.42-.71.37.37,0,0,0-.17-.4L24.84,7,23.71,8.86l.37.22.21-.34Zm-8,21.2c0-.05,0-.11,0-.17a.8.8,0,0,0-.77-.76.78.78,0,0,0-.86.68,1.6,1.6,0,0,0,0,.49.79.79,0,0,0,.74.7.8.8,0,0,0,.87-.59A1.39,1.39,0,0,0,16.54,29.59Zm4.57-.89H19.84v1.79h1.31v-.35h-.92v-.41h.82v-.36h-.82V29h.88Zm-7.7,0v1.8h.38v-.66h.45a.47.47,0,0,0,.46-.38.62.62,0,0,0-.19-.66.37.37,0,0,0-.2-.07C14,28.68,13.71,28.69,13.41,28.69ZM5.52,13.07,5,12.83,4.45,14l.49.23.19-.39,1.48.72.19-.39-1.47-.73ZM21.39,28.69v1.8h.38v-.66h.42a.57.57,0,0,0,.14-1.11A4.93,4.93,0,0,0,21.39,28.69Zm7.87-17.27-1.31,1,.26.35,1.32-1,.27.35.43-.32-.8-1.06-.43.33Zm-24,5.19-1.59-.43-.11.42,2.11.57.29-1.08L5.42,16ZM7.41,26.82a4.61,4.61,0,0,0,0,1.05A2.42,2.42,0,0,0,8,29.28a2,2,0,0,0,1.4.63A2.25,2.25,0,0,0,11,29.53a3,3,0,0,0,.74-.85,11.5,11.5,0,0,0,.62-1.21A7,7,0,0,1,13.18,26a2.06,2.06,0,0,1,2-.84s0,0,0,0l-.38-.2a5.1,5.1,0,0,0-.73-.3,3.42,3.42,0,0,0-2.32,0A2.86,2.86,0,0,0,10.09,26c-.09.19-.19.38-.29.57a2.87,2.87,0,0,1-.51.69.9.9,0,0,1-1,.18,2.73,2.73,0,0,1-.76-.55A.25.25,0,0,0,7.41,26.82Zm13.34-1.68a2.81,2.81,0,0,1,.82.05,2.24,2.24,0,0,1,1.32,1,8.39,8.39,0,0,1,.71,1.32A10.4,10.4,0,0,0,24.39,29a2.15,2.15,0,0,0,1.1.85,2.57,2.57,0,0,0,1.17.09,2,2,0,0,0,1.67-1.27,3.55,3.55,0,0,0,.19-1.8c-.05,0-.08.07-.11.1a2.4,2.4,0,0,1-.81.56.85.85,0,0,1-.9-.16,1.72,1.72,0,0,1-.36-.4,8.13,8.13,0,0,1-.51-.91A2.85,2.85,0,0,0,24,24.53,4.11,4.11,0,0,0,20.75,25.14Zm-4,3.57v1.78H18v-.35h-.83V28.71Zm12.16-14.9,1.86-1.16-.23-.37-1.86,1.16ZM23.06,6.24l-.82,2,.4.17.82-2ZM4.06,15l2,.78.16-.41-2-.78ZM9.64,7.9l1.19,1.84.36-.24L10,7.69l0,0ZM22.93,24h0l.22,0a2.75,2.75,0,0,1,2.08.6c.19.16.38.35.56.53s.41.4.64.58a1.6,1.6,0,0,0,2.46-.77,4.17,4.17,0,0,0,.18-1.68s0-.06,0-.11a2.18,2.18,0,0,1-.42.52.79.79,0,0,1-.67.21,1.38,1.38,0,0,1-.64-.29,7.42,7.42,0,0,1-.62-.49,2,2,0,0,0-1.81-.44,3.44,3.44,0,0,0-2,1.33A0,0,0,0,1,22.93,24ZM13,24s0,0,0,0a3.82,3.82,0,0,0-1.19-1,2.49,2.49,0,0,0-1.75-.29,2.36,2.36,0,0,0-1,.58,3,3,0,0,1-.71.51.89.89,0,0,1-1.19-.21,4.62,4.62,0,0,1-.28-.4,3.73,3.73,0,0,0,.3,2.07,1.35,1.35,0,0,0,.72.67,1.65,1.65,0,0,0,1.78-.3c.26-.22.49-.47.73-.71a3,3,0,0,1,1.34-.8A3.29,3.29,0,0,1,13,24Zm16.45-3.61c-.05,0-.06.08-.08.12A1.84,1.84,0,0,1,29,21a.93.93,0,0,1-.8.2,1.52,1.52,0,0,1-.5-.19A6,6,0,0,1,27,20.6a1.35,1.35,0,0,0-.61-.21,1.63,1.63,0,0,0-1.32.5,3.45,3.45,0,0,0-.85,1.36s0,0,0,0a4.66,4.66,0,0,1,.72-.4,1.37,1.37,0,0,1,1.39.18l.44.36a2.56,2.56,0,0,0,.46.33,1.3,1.3,0,0,0,.84.17,1.39,1.39,0,0,0,1.09-.85A2.9,2.9,0,0,0,29.46,20.35ZM11.69,22.29a3.5,3.5,0,0,0-.24-.55,2.72,2.72,0,0,0-1-1.12,1.43,1.43,0,0,0-1.63,0l-.39.25a2.4,2.4,0,0,1-.61.28A.94.94,0,0,1,6.93,21a2.21,2.21,0,0,1-.39-.52s0-.07-.06-.07a2.17,2.17,0,0,0,0,.62,2.55,2.55,0,0,0,.42,1.32,1.36,1.36,0,0,0,.8.59,1.34,1.34,0,0,0,1.19-.26l.65-.52a1.35,1.35,0,0,1,1.51-.2A4.55,4.55,0,0,1,11.69,22.29ZM6.21,17.57a2.85,2.85,0,0,0,.33,2.17,1.32,1.32,0,0,0,.92.59,1.52,1.52,0,0,0,1-.17l.54-.3a1.24,1.24,0,0,1,1-.07,4.37,4.37,0,0,1,.57.29s0,.05.09,0,0-.17,0-.26a2.77,2.77,0,0,0-.38-1.21,1.15,1.15,0,0,0-1.16-.57,1.93,1.93,0,0,0-.52.15,7.12,7.12,0,0,1-.76.31,1,1,0,0,1-1.29-.48A3.9,3.9,0,0,1,6.21,17.57Zm19.1,2.56.38-.21a1.32,1.32,0,0,1,1.43,0l.42.23a1.43,1.43,0,0,0,2-.68,2.9,2.9,0,0,0,.26-1,2.67,2.67,0,0,0-.08-.93s0,.06-.06.1a2,2,0,0,1-.41.63,1,1,0,0,1-.89.28,2.74,2.74,0,0,1-.51-.15c-.21-.09-.41-.19-.62-.26a1.17,1.17,0,0,0-1.44.38A2.91,2.91,0,0,0,25.31,20.13ZM25.72,18l.24-.2a1.3,1.3,0,0,1,1.54-.2,3.59,3.59,0,0,0,.51.2,1.08,1.08,0,0,0,1.37-.85,3.11,3.11,0,0,0-.28-1.82s0,.08,0,.11a2.42,2.42,0,0,1-.1.45c-.14.42-.35.52-.76.37-.2-.07-.39-.16-.59-.22a1.42,1.42,0,0,0-1.65.64A2.71,2.71,0,0,0,25.72,18ZM10.21,18a3.32,3.32,0,0,0,0-1A1.45,1.45,0,0,0,8.12,15.9l-.25.1-.3.1a.41.41,0,0,1-.52-.25,2.24,2.24,0,0,1-.16-.5.64.64,0,0,0,0-.23,3.2,3.2,0,0,0-.3,1.71,1,1,0,0,0,.84,1,1.18,1.18,0,0,0,.72-.07l.47-.2a1.21,1.21,0,0,1,1.19.11A4.26,4.26,0,0,1,10.21,18ZM8.29,12.84a2.9,2.9,0,0,0-.92,1.28,1.11,1.11,0,0,0,.06.8.68.68,0,0,0,.5.38,2.06,2.06,0,0,0,.43,0c.25,0,.5,0,.74,0a1.3,1.3,0,0,1,1.21.7c.07.12.13.24.2.38A3.83,3.83,0,0,0,10.56,15,1.13,1.13,0,0,0,9.4,14c-.17,0-.34,0-.52,0a.59.59,0,0,1-.6-.59A2.82,2.82,0,0,1,8.29,12.84Zm19.35,0a2.55,2.55,0,0,1,0,.55.56.56,0,0,1-.49.52c-.25.05-.5,0-.75.06a1.1,1.1,0,0,0-1,.82,1.87,1.87,0,0,0-.07.4,4.22,4.22,0,0,0,.08,1.17,3.21,3.21,0,0,1,.25-.49,1.28,1.28,0,0,1,.93-.58,2.91,2.91,0,0,1,.59,0,3.8,3.8,0,0,0,.67,0,.7.7,0,0,0,.7-.56,1.27,1.27,0,0,0-.05-.77A3.11,3.11,0,0,0,27.64,12.84Zm-2.52,2c0-.13,0-.22,0-.32a1.1,1.1,0,0,1,.83-1l.11,0a3.82,3.82,0,0,0,.66-.19.57.57,0,0,0,.28-.76,1,1,0,0,0-.16-.26,2.27,2.27,0,0,0-.69-.54.29.29,0,0,0-.1,0,1.72,1.72,0,0,1,.07.37.52.52,0,0,1-.34.59l-.2.07c-.15,0-.3.07-.44.12a.63.63,0,0,0-.46.62A2.87,2.87,0,0,0,25.12,14.8ZM9.86,11.67a2.19,2.19,0,0,0-.89.72.59.59,0,0,0,.31.93l.23.07.49.13a1,1,0,0,1,.76.86,2.57,2.57,0,0,1,.05.4,2.92,2.92,0,0,0,.42-1.2.7.7,0,0,0-.59-.78l-.18,0a1.93,1.93,0,0,1-.34-.11.54.54,0,0,1-.34-.59A2.26,2.26,0,0,1,9.86,11.67Zm14.77-.75,0,.13a.49.49,0,0,1-.27.63c-.07,0-.16.08-.23.13a.61.61,0,0,0-.28.63,2.09,2.09,0,0,0,.49.93l0,0v-.08a.9.9,0,0,1,.51-.93,1.25,1.25,0,0,0,.3-.21.54.54,0,0,0,.11-.66A1.32,1.32,0,0,0,24.63,10.92ZM11.54,13.38a2.26,2.26,0,0,0,.48-.81.65.65,0,0,0-.33-.8l-.26-.16a.41.41,0,0,1-.18-.41,2,2,0,0,1,0-.26,1.25,1.25,0,0,0-.58.39.56.56,0,0,0,.11.88l.32.21a.79.79,0,0,1,.39.62C11.54,13.15,11.54,13.25,11.54,13.38ZM23.47,10.3a.11.11,0,0,0,0,.08.64.64,0,0,1-.15.66l-.15.16a.64.64,0,0,0-.1.83,4.68,4.68,0,0,0,.45.57v-.08a.9.9,0,0,1,.38-1,.47.47,0,0,0,.18-.27A.82.82,0,0,0,23.47,10.3Zm-11,0a1,1,0,0,0-.63.54.57.57,0,0,0,.12.66l.1.09a.83.83,0,0,1,.33.85c0,.05,0,.11,0,.18a5.52,5.52,0,0,0,.45-.56.63.63,0,0,0-.1-.84A.75.75,0,0,1,12.49,10.28Zm10.07-.51v0a.13.13,0,0,0,0,.06.51.51,0,0,1-.21.58l-.08.06a.52.52,0,0,0-.17.61,1.89,1.89,0,0,0,.57.69c0-.13,0-.23,0-.34a.6.6,0,0,1,.19-.52,1.13,1.13,0,0,0,.22-.27.45.45,0,0,0,0-.42A.92.92,0,0,0,22.56,9.77Zm-9.18,0a.91.91,0,0,0-.52.48.4.4,0,0,0,0,.37,1.07,1.07,0,0,0,.25.34.6.6,0,0,1,.18.45q0,.18,0,.39a2.15,2.15,0,0,0,.51-.58.57.57,0,0,0,.06-.49.66.66,0,0,0-.27-.3.49.49,0,0,1-.2-.53S13.4,9.82,13.38,9.77ZM14.33,11a2.8,2.8,0,0,0,.41-.5.5.5,0,0,0-.18-.74.5.5,0,0,1-.24-.55s0,0,0-.07a.9.9,0,0,0-.44.44.39.39,0,0,0,0,.38,1,1,0,0,0,.21.25.6.6,0,0,1,.22.52ZM21.6,9.17a.34.34,0,0,1,0,.09.46.46,0,0,1-.22.52.47.47,0,0,0-.09.06.45.45,0,0,0-.18.49,1.57,1.57,0,0,0,.5.71c0-.1,0-.18,0-.26a.62.62,0,0,1,.24-.55A.76.76,0,0,0,22,10a.41.41,0,0,0,.07-.28A.83.83,0,0,0,21.6,9.17Zm-.91,1a.84.84,0,0,0-.27-1.46.84.84,0,0,1,0,.71.48.48,0,0,0,.06.49A1.38,1.38,0,0,0,20.69,10.16Zm-5.45,0a.63.63,0,0,0,.25-.86.71.71,0,0,1,0-.43,1.36,1.36,0,0,1,0-.17C14.83,9.08,14.72,9.71,15.24,10.15Z"/><path class="cls-2" d="M21.86,23.72s-.06.05-.09.07a7.26,7.26,0,0,1-1.84.83l-.1,0a.29.29,0,0,0,0,.13c0,.75,0,1.5,0,2.25a.41.41,0,0,1-.18.37,1.33,1.33,0,0,1-.88.31,2.74,2.74,0,0,1-.57,0v-.13c0-2.83,0-5.66,0-8.49a.78.78,0,0,1,.76-.76.86.86,0,0,1,.67.24.67.67,0,0,1,.2.48v3.67a5.26,5.26,0,0,0,.59-.26q.27-.15.54-.33l.67.62,1.56-1.69-.67-.61a5.39,5.39,0,0,0,.59-1.5H24V16.65h-.9a5.65,5.65,0,0,0-.59-1.49l.67-.62-1.56-1.69-.67.62a5.06,5.06,0,0,0-1.13-.59v4.3H18.21a.13.13,0,0,1,0-.1q0-3.64,0-7.29a1.27,1.27,0,0,1,.4-.9.66.66,0,0,1,.89.06,1.4,1.4,0,0,1,.33.87v1c0,.09,0,.13.11.15a6.76,6.76,0,0,1,2.13,1s.06,0,.07.06S22,12,22,12a6.89,6.89,0,0,0-1.66-.86,4.32,4.32,0,0,0-.51-.16.15.15,0,0,0,0,.06c0,.57,0,1.14,0,1.71,0,.06,0,.08.08.1a4.93,4.93,0,0,1,.83.41c.22.14.22.13.42,0l.47-.44,1.62,1.75-.67.63a5.53,5.53,0,0,1,.49,1.15c0,.09,0,.21.08.27s.19,0,.29,0H24V19h-.81a.11.11,0,0,0-.13.1,5.32,5.32,0,0,1-.43,1.15c-.11.19-.1.19.07.35l.5.46L21.62,22.8c-.21-.19-.41-.37-.6-.56a.1.1,0,0,0-.15,0,4.28,4.28,0,0,1-.95.49.14.14,0,0,0-.1.15c0,.54,0,1.09,0,1.63a.18.18,0,0,0,0,.1.11.11,0,0,0,.08,0,6.92,6.92,0,0,0,1.8-.8S21.79,23.69,21.86,23.72Z"/><path class="cls-2" d="M14.64,11.54a4.27,4.27,0,0,1,.68-.33A5.78,5.78,0,0,1,16,11c.08,0,.1-.05.1-.13,0-.36,0-.72,0-1.09a1.21,1.21,0,0,1,.43-.89.64.64,0,0,1,.82.06,1.38,1.38,0,0,1,.37.94v7.31H16.12V12.88a5.59,5.59,0,0,0-1.14.59l-.67-.62-1.56,1.69.67.62a5.63,5.63,0,0,0-.58,1.49h-.9v2.29h.9a5.31,5.31,0,0,0,.58,1.49l-.67.62,1.56,1.69.67-.62a5,5,0,0,0,1.12.58.3.3,0,0,0,0-.13c0-1.13,0-2.25,0-3.37a.79.79,0,0,1,.88-.88.77.77,0,0,1,.57.27.67.67,0,0,1,.18.47V27.7a1.88,1.88,0,0,1-1.44-.3.46.46,0,0,1-.19-.38c0-.75,0-1.5,0-2.25a.14.14,0,0,0-.12-.16A6.31,6.31,0,0,1,14.44,24s-.06,0-.07-.05.09,0,.13,0a6.88,6.88,0,0,0,1.45.62.4.4,0,0,0,.15,0s0,0,0,0V22.82a.08.08,0,0,0-.06-.09l-.13-.05a6,6,0,0,1-.93-.5l-.68.62L12.7,21.05l.67-.62a5.45,5.45,0,0,1-.55-1.38c0-.06-.05-.06-.09-.06h-.84V16.6h.82c.07,0,.1,0,.12-.09a2.07,2.07,0,0,1,.1-.33,4.76,4.76,0,0,1,.44-1l-.67-.63,1.61-1.75.68.63a5.38,5.38,0,0,1,1-.55.11.11,0,0,0,.09-.13V11.11a.17.17,0,0,0,0-.1c-.05,0-.08,0-.12,0a6.72,6.72,0,0,0-1.22.48S14.69,11.57,14.64,11.54Z"/><path class="cls-4" d="M14.64,11.54s.08,0,.12,0A6.72,6.72,0,0,1,16,11s.07,0,.12,0a.17.17,0,0,1,0,.1v1.63a.11.11,0,0,1-.09.13,5.38,5.38,0,0,0-1,.55l-.68-.63L12.7,14.54l.67.63a4.76,4.76,0,0,0-.44,1,2.07,2.07,0,0,0-.1.33c0,.08-.05.1-.12.09h-.82V19h.84s.08,0,.09.06a5.45,5.45,0,0,0,.55,1.38l-.67.62,1.61,1.75.68-.62a6,6,0,0,0,.93.5l.13.05a.08.08,0,0,1,.06.09v1.74s0,0,0,0a.4.4,0,0,1-.15,0,6.88,6.88,0,0,1-1.45-.62s-.08-.07-.13,0h0a.43.43,0,0,0-.29-.18h0s0-.06-.07,0h0c0-.05,0-.05-.06,0h0a.15.15,0,0,0-.16-.11h0c0-.06,0-.08-.09-.07h0c0-.06,0-.08-.09-.07h0a.09.09,0,0,0-.11-.09h0c0-.07-.06-.09-.12-.11h0s0,0,0,0h0c0-.08-.07-.11-.14-.14h0s0,0-.06,0h0s0,0,0,0h0a.65.65,0,0,0-.29-.3h0s0,0,0,0h0s0,0,0,0h0s0-.05,0-.06h0c0-.06-.05-.12-.13-.13h0s0,0,0-.05h0c0-.05,0-.09-.09-.09h0s0,0,0,0h0s0-.08-.06-.07h0c0-.07,0-.11-.09-.11h0a.16.16,0,0,0-.12-.16h0c0-.06,0-.09,0-.12A7,7,0,0,1,11,17.11a6.85,6.85,0,0,1,1-3S12,14,12,14h0s.06,0,0-.07h0c.05,0,.06,0,0-.06h0c.05,0,.06,0,.05-.07h0s.06,0,0-.07h0c.06,0,.08,0,.07-.09h0a.2.2,0,0,0,.13-.18h0c.06,0,.08,0,.07-.09h0s0,0,0,0h0c.07,0,.1-.05.09-.11h0s0,0,0,0h0c.06,0,.09,0,.11-.11h0s0,0,0,0h0s0,0,0,0h0s0,0,0,0,.27-.27.41-.41a0,0,0,0,0,0,0h0s0,0,0,0h0s0,0,.05,0h0s0,0,0,0h0c.06,0,.11,0,.11-.11h0s0,0,0,0h0a.08.08,0,0,0,.09-.09h0c.07,0,.1,0,.11-.09h0q.09,0,.09-.06h0c.06,0,.09,0,.09-.07h0s.06,0,.09,0a8,8,0,0,1,.69-.43s.07,0,.05-.06Z"/><path class="cls-4" d="M21.86,23.72c-.07,0-.1,0-.14.05a6.92,6.92,0,0,1-1.8.8.11.11,0,0,1-.08,0,.18.18,0,0,1,0-.1c0-.54,0-1.09,0-1.63a.14.14,0,0,1,.1-.15,4.28,4.28,0,0,0,.95-.49.1.1,0,0,1,.15,0c.19.19.39.37.6.56l1.62-1.75-.5-.46c-.17-.16-.18-.16-.07-.35a5.32,5.32,0,0,0,.43-1.15.11.11,0,0,1,.13-.1H24V16.6h-.61c-.1,0-.22,0-.29,0s-.06-.18-.08-.27a5.53,5.53,0,0,0-.49-1.15l.67-.63-1.62-1.75-.47.44c-.2.18-.2.19-.42,0a4.93,4.93,0,0,0-.83-.41s-.08,0-.08-.1c0-.57,0-1.14,0-1.71a.15.15,0,0,1,0-.06,4.32,4.32,0,0,1,.51.16A6.89,6.89,0,0,1,22,12s.06.07.12,0h0c0,.06,0,.08.09.07h0c0,.06,0,.08.09.06h0a.09.09,0,0,0,.12.09h0a.08.08,0,0,0,.09.09h0s0,.05,0,0h0a.14.14,0,0,0,.11.11h0s0,0,0,0h0s0,0,.05,0h0s0,0,0,0h0l.43.44h0s0,0,0,0h0s0,0,0,0h0c0,.06,0,.11.11.11h0s0,0,0,0h0a.09.09,0,0,0,.09.11h0s0,0,0,0h0c0,.06,0,.09.07.09h0a.19.19,0,0,0,.14.18h0c0,.06,0,.09.06.09h0s0,.07,0,.07h0s0,.07,0,.07h0s0,.07,0,.06h0c0,.05,0,.07,0,.07h0s0,.07,0,.1a7.23,7.23,0,0,1,.46.87A7,7,0,0,1,24.92,19a6.85,6.85,0,0,1-1.14,2.79s-.06.05,0,.1h0a.16.16,0,0,0-.11.16h0c-.07,0-.1,0-.09.11h0c-.05,0-.06,0-.07.07h0s0,0,0,0h0c-.06,0-.08,0-.09.09h0s0,0,0,.05h0c-.08,0-.11.07-.14.13h0s0,0,0,.06h0s0,0,0,0h0s0,0,0,0h0a.59.59,0,0,0-.27.27h0s0,0,0,0h0s0,0,0,0h0s-.05,0-.06,0h0c-.06,0-.12.06-.13.14h0s0,0-.05,0h0c-.06,0-.1,0-.11.11h0c-.07,0-.11,0-.11.09h0c-.06,0-.09,0-.09.07h0c-.06,0-.09,0-.09.07h0a.14.14,0,0,0-.16.11h0s-.07,0-.07,0h0s-.07,0-.07,0Z"/><path class="cls-5" d="M15.45,18.08a2.16,2.16,0,0,0,.27.81L13.18,17.8l2.54-1.09a2.27,2.27,0,0,0-.27.78h7.27v.59Z"/><path class="cls-2" d="M31.14,16.36l1.1-.35.13.39-2.08.67-.12-.36c0-.05,0-.06.06-.08.24-.23.49-.45.74-.67l.09-.08v0L30,16.18l-.13-.39L32,15.12c0,.12.07.23.11.34s0,.08-.05.1l-.78.7A.18.18,0,0,0,31.14,16.36Z"/><path class="cls-2" d="M15.14,7.82l0,0a.88.88,0,0,1-.34.08c-.1,0-.16-.16-.23-.25s-.38-.46-.59-.68l.31,1.09-.4.11-.6-2.09.34-.1c.06,0,.08,0,.11,0,.23.29.47.57.71.86a.15.15,0,0,0,.06,0l-.32-1.11.39-.12Z"/><path class="cls-2" d="M9.44,9.45l-.63-.79a.22.22,0,0,1-.07-.09l.31-.25L10.43,10l-.28.23c-.05,0-.08,0-.12,0l-.91-.47-.1,0s0,0,0,0v0l.61.76.09.11-.32.26L8,9.16l.28-.23c.05,0,.08,0,.12,0l1,.52s0,0,0,0Z"/><path class="cls-2" d="M27.61,10.35l-.82.76-.28-.29,1.6-1.5a3.2,3.2,0,0,0,.25.27s0,.06,0,.09q-.22.52-.45,1.08a4.71,4.71,0,0,0,.42-.36l.42-.39.28.3-1.6,1.49-.25-.27s0-.08,0-.11c.14-.32.28-.63.41-.95a.36.36,0,0,0,0-.11Z"/><path class="cls-2" d="M30.67,20.71v-.54l.86-.3c-.24-.27-.56-.23-.88-.21v-.44l2.17,0v.44h-.76c0,.06,0,.06.07.07l.63.34c.06,0,.09.06.09.12s0,.32,0,.48-.05,0-.08,0c-.22-.13-.44-.25-.65-.39a.19.19,0,0,0-.19,0l-1.11.46Z"/><path class="cls-2" d="M21.21,5.66l.73.21a.44.44,0,0,1,.35.56,1.1,1.1,0,0,1-.11.35.52.52,0,0,1-.39.31c.19.33.09.69.15,1.05L21.51,8c-.06,0-.05-.06-.06-.11,0-.24,0-.48,0-.73A.16.16,0,0,0,21.27,7L21,7.88l-.42-.12Zm.17,1c.14,0,.26.11.38,0a.27.27,0,0,0,.07-.27c-.06-.15-.21-.11-.32-.18Z"/><path class="cls-2" d="M7.42,10.86c-.06-.25-.16-.5-.24-.74a.17.17,0,0,1,0-.18l.31-.33s0,.06,0,.09c.07.24.14.48.19.72a.22.22,0,0,0,.16.16L9.05,11a.16.16,0,0,1,.1.05c-.11.12-.22.23-.32.35s-.07,0-.11,0L8,11.08c0,.36.24.55.48.76l-.3.32-1.6-1.49.3-.31.57.51v0A0,0,0,0,0,7.42,10.86Z"/><path class="cls-2" d="M10.58,7.31,11,7.1l.19.34.18.35h0V7.27c0-.12,0-.28,0-.37s.2-.13.32-.19l.17-.09-.06.81a.24.24,0,0,0,.1.25l1,.86-.43.23c-.05,0-.07,0-.1,0l-.53-.5a.46.46,0,0,0-.07-.07c-.14.33.05.59.2.87l-.38.21Z"/><path class="cls-2" d="M18.09,6l0-.08a.23.23,0,0,0-.45,0,1.38,1.38,0,0,0,0,1,.23.23,0,0,0,.25.15.33.33,0,0,0,.27-.15c0-.05,0-.13,0-.2h-.29V6.29l.65,0,0,.9,0,0a.82.82,0,0,1-.89.32.6.6,0,0,1-.37-.33,1.92,1.92,0,0,1-.17-1,1.63,1.63,0,0,1,.12-.53.7.7,0,0,1,.91-.36.33.33,0,0,1,.2.17.8.8,0,0,1,.15.39Z"/><path class="cls-2" d="M27.24,8.84a.9.9,0,0,1-.11.44,2.33,2.33,0,0,1-.64.79,1.23,1.23,0,0,1-.25.14.6.6,0,0,1-.66-.09.59.59,0,0,1-.22-.64,1.83,1.83,0,0,1,1-1.18A.62.62,0,0,1,27.24,8.84Zm-1.42.7a.22.22,0,0,0,.28.23.26.26,0,0,0,.13-.06,1.63,1.63,0,0,0,.49-.59.37.37,0,0,0,0-.18.22.22,0,0,0-.28-.22A1.29,1.29,0,0,0,25.82,9.54Z"/><path class="cls-2" d="M4.1,17.35a2.22,2.22,0,0,1,1,.24.65.65,0,0,1-.17,1.25,1.93,1.93,0,0,1-1.33-.24.63.63,0,0,1-.29-.83.67.67,0,0,1,.61-.4Zm0,.44a.61.61,0,0,0-.24,0,.23.23,0,0,0-.07.38.49.49,0,0,0,.18.11,2.11,2.11,0,0,0,.6.11.59.59,0,0,0,.23,0A.23.23,0,0,0,4.9,18a.39.39,0,0,0-.16-.1A2.13,2.13,0,0,0,4.13,17.79Z"/><path class="cls-2" d="M20.23,6.79l-.66-.09-.07.42.74.11-.06.49L19,7.55l.31-2.16,1.15.16L20.39,6l-.71-.1-.05.34.66.1Z"/><path class="cls-2" d="M15.31,5.56l1.15-.16.06.46-.71.1a2.11,2.11,0,0,0,0,.35l.66-.09.06.43-.66.1.05.42.75-.1.06.49-1.17.17Z"/><path class="cls-2" d="M6.09,11.29l.38.26-.41.6.28.2.39-.55.36.25-.38.55.35.25.43-.61.4.28-.67,1-1.8-1.25Z"/><path class="cls-2" d="M30.79,17.84a2.8,2.8,0,0,0-.29,0c-.05,0-.08,0-.09-.07l-.06-.37,2.24.14.08.46-2.06.9-.08-.43a1.12,1.12,0,0,1,.26-.11c.06,0,.09-.05.07-.12S30.81,18,30.79,17.84Zm1.23,0v0h-.74l0,.29Z"/><path class="cls-2" d="M29.12,14.1l2.21-.41c.06.13.11.26.17.38s0,.08-.05.11L30,15.26l-.3.24-.18-.42.3-.21-.2-.45-.36.08Zm1.75.06h0l-.73.17a2.24,2.24,0,0,0,.13.27Z"/><path class="cls-2" d="M19.53,30.5H19.2c-.05,0-.07,0-.09-.07-.16-.28-.32-.56-.49-.84a.85.85,0,0,0-.09-.15v1h-.36v-1.8h.32c.06,0,.07,0,.09.08l.51.88a.2.2,0,0,0,.08.08v-1h.36Z"/><path class="cls-2" d="M4.47,20.11h.8v.44l-2.18,0v-.69a.43.43,0,0,1,.34-.45,1.28,1.28,0,0,1,.7,0,.46.46,0,0,1,.34.48Zm-.45,0c0-.1,0-.22-.09-.28a.31.31,0,0,0-.32,0c-.1.07-.08.18-.07.28Z"/><path class="cls-2" d="M24.5,8.39l-.21.35-.21.34-.37-.22L24.84,7l.65.4a.37.37,0,0,1,.17.4,1.11,1.11,0,0,1-.42.71.44.44,0,0,1-.51,0ZM24.74,8c.13.1.2.13.28.09a.36.36,0,0,0,.17-.29c0-.12-.12-.15-.21-.21Z"/><path class="cls-2" d="M16.54,29.59a1.39,1.39,0,0,1,0,.35.8.8,0,0,1-.87.59.79.79,0,0,1-.74-.7,1.6,1.6,0,0,1,0-.49.78.78,0,0,1,.86-.68.8.8,0,0,1,.77.76C16.53,29.48,16.54,29.54,16.54,29.59Zm-.4,0a1,1,0,0,0-.06-.35.38.38,0,0,0-.37-.23.37.37,0,0,0-.37.23.89.89,0,0,0,0,.68.4.4,0,0,0,.74,0A.87.87,0,0,0,16.14,29.6Z"/><path class="cls-2" d="M21.11,28.7V29h-.88v.33h.82v.36h-.82v.41h.92v.35H19.84V28.7Z"/><path class="cls-2" d="M13.41,28.69c.3,0,.6,0,.9,0a.37.37,0,0,1,.2.07.62.62,0,0,1,.19.66.47.47,0,0,1-.46.38h-.45v.66h-.38Zm.38.79a1.26,1.26,0,0,0,.34,0c.13,0,.2-.1.19-.21a.19.19,0,0,0-.19-.21c-.11,0-.22,0-.34,0Z"/><path class="cls-2" d="M5.52,13.07l-.19.39,1.47.73-.19.39-1.48-.72-.19.39L4.45,14,5,12.83Z"/><path class="cls-2" d="M21.39,28.69a4.93,4.93,0,0,1,.94,0,.57.57,0,0,1-.14,1.11h-.42v.66h-.38Zm.39.36v.44h.32a.19.19,0,0,0,.2-.21.2.2,0,0,0-.21-.21C22,29,21.89,29.05,21.78,29.05Z"/><path class="cls-2" d="M29.26,11.42,29,11.07l.43-.33.8,1.06-.43.32-.27-.35-1.32,1L28,12.41Z"/><path class="cls-2" d="M5.24,16.61,5.42,16l.52.14-.29,1.08L3.54,16.6l.11-.42Z"/><path class="cls-2" d="M7.41,26.82a.25.25,0,0,1,.11.09,2.73,2.73,0,0,0,.76.55.9.9,0,0,0,1-.18,2.87,2.87,0,0,0,.51-.69c.1-.19.2-.38.29-.57a2.86,2.86,0,0,1,1.67-1.42,3.42,3.42,0,0,1,2.32,0,5.1,5.1,0,0,1,.73.3l.38.2s0,0,0,0a2.06,2.06,0,0,0-2,.84,7,7,0,0,0-.84,1.48,11.5,11.5,0,0,1-.62,1.21,3,3,0,0,1-.74.85,2.25,2.25,0,0,1-1.55.38A2,2,0,0,1,8,29.28a2.42,2.42,0,0,1-.62-1.41A4.61,4.61,0,0,1,7.41,26.82Zm0,.09a4.71,4.71,0,0,0,0,.92,2.81,2.81,0,0,0,.25.9,1.87,1.87,0,0,0,1.36,1.08A2.32,2.32,0,0,0,11,29.47a2.86,2.86,0,0,0,.71-.84,13.89,13.89,0,0,0,.7-1.39A6.45,6.45,0,0,1,13.12,26a2.14,2.14,0,0,1,1.37-.87,4.21,4.21,0,0,1,.5,0,4.06,4.06,0,0,0-.51-.26,3.82,3.82,0,0,0-2.21-.31A2.86,2.86,0,0,0,10.15,26c-.07.12-.13.24-.19.36a3.88,3.88,0,0,1-.54.84,1,1,0,0,1-1.26.24,2.25,2.25,0,0,1-.36-.24Z"/><path class="cls-2" d="M20.75,25.14A4.11,4.11,0,0,1,24,24.53,2.85,2.85,0,0,1,25.83,26a8.13,8.13,0,0,0,.51.91,1.72,1.72,0,0,0,.36.4.85.85,0,0,0,.9.16,2.4,2.4,0,0,0,.81-.56s.06-.08.11-.1a3.55,3.55,0,0,1-.19,1.8,2,2,0,0,1-1.67,1.27,2.57,2.57,0,0,1-1.17-.09,2.15,2.15,0,0,1-1.1-.85,10.4,10.4,0,0,1-.79-1.47,8.39,8.39,0,0,0-.71-1.32,2.24,2.24,0,0,0-1.32-1A2.81,2.81,0,0,0,20.75,25.14Zm.16-.06H21a2.15,2.15,0,0,1,1.86.94,8.25,8.25,0,0,1,.85,1.54,8.5,8.5,0,0,0,.74,1.36,2.19,2.19,0,0,0,1.08.84,2.81,2.81,0,0,0,1.15.08,1.92,1.92,0,0,0,1.49-1A3.29,3.29,0,0,0,28.49,27s0,0,0,0-.07,0-.09.07a2.42,2.42,0,0,1-.7.48.91.91,0,0,1-1.05-.15,2.24,2.24,0,0,1-.32-.37,8.13,8.13,0,0,1-.51-.91,2.62,2.62,0,0,0-.4-.6,3.13,3.13,0,0,0-2.95-.93A5.08,5.08,0,0,0,20.91,25.08Z"/><path class="cls-2" d="M16.76,28.71h.38v1.43H18v.35H16.76Z"/><path class="cls-2" d="M28.92,13.81l-.23-.37,1.86-1.16.23.37Z"/><path class="cls-2" d="M23.06,6.24l.4.16-.82,2-.4-.17Z"/><path class="cls-2" d="M4.06,15l.16-.41,2,.78-.16.41Z"/><path class="cls-2" d="M9.64,7.9,10,7.67l0,0L11.19,9.5l-.36.24Z"/><path class="cls-2" d="M22.93,24a0,0,0,0,0,0,0,3.44,3.44,0,0,1,2-1.33,2,2,0,0,1,1.81.44,7.42,7.42,0,0,0,.62.49,1.38,1.38,0,0,0,.64.29.79.79,0,0,0,.67-.21,2.18,2.18,0,0,0,.42-.52c0,.05,0,.08,0,.11a4.17,4.17,0,0,1-.18,1.68,1.6,1.6,0,0,1-2.46.77c-.23-.18-.43-.38-.64-.58s-.37-.37-.56-.53a2.75,2.75,0,0,0-2.08-.6L23,24ZM23,23.9h.17a2.78,2.78,0,0,1,2.11.62c.27.23.51.48.76.73a3.89,3.89,0,0,0,.5.41A1.54,1.54,0,0,0,28.82,25a3.41,3.41,0,0,0,.24-1.3,2.3,2.3,0,0,0,0-.45l-.15.2a1,1,0,0,1-1.38.26,4,4,0,0,1-.59-.43,4.21,4.21,0,0,0-.58-.44,2.18,2.18,0,0,0-1.9,0A3.62,3.62,0,0,0,23,23.9Z"/><path class="cls-2" d="M13,24a3.29,3.29,0,0,0-1.29,0,3,3,0,0,0-1.34.8c-.24.24-.47.49-.73.71a1.65,1.65,0,0,1-1.78.3,1.35,1.35,0,0,1-.72-.67,3.73,3.73,0,0,1-.3-2.07,4.62,4.62,0,0,0,.28.4.89.89,0,0,0,1.19.21A3,3,0,0,0,9,23.17a2.36,2.36,0,0,1,1-.58,2.49,2.49,0,0,1,1.75.29,3.82,3.82,0,0,1,1.19,1S13,23.94,13,24Zm-.1-.07,0,0a3.8,3.8,0,0,0-1-.87,2.5,2.5,0,0,0-1.38-.4,2,2,0,0,0-1.34.54,4.13,4.13,0,0,1-.83.61.94.94,0,0,1-1.25-.26l-.18-.22s0,0,0,.06a4,4,0,0,0,.18,1.53,1.53,1.53,0,0,0,2.47.71,9.58,9.58,0,0,0,.8-.76,2.85,2.85,0,0,1,2.5-.89A.12.12,0,0,0,12.91,23.89Z"/><path class="cls-2" d="M29.46,20.35a2.9,2.9,0,0,1-.26,1.72,1.39,1.39,0,0,1-1.09.85,1.3,1.3,0,0,1-.84-.17,2.56,2.56,0,0,1-.46-.33l-.44-.36A1.37,1.37,0,0,0,25,21.88a4.66,4.66,0,0,0-.72.4s0,0,0,0a3.45,3.45,0,0,1,.85-1.36,1.63,1.63,0,0,1,1.32-.5,1.35,1.35,0,0,1,.61.21,6,6,0,0,0,.63.39,1.52,1.52,0,0,0,.5.19A.93.93,0,0,0,29,21a1.84,1.84,0,0,0,.41-.51S29.41,20.38,29.46,20.35Zm-5.08,1.79.36-.19a1.63,1.63,0,0,1,1-.21,1.66,1.66,0,0,1,.81.42,7,7,0,0,0,.67.52A1.26,1.26,0,0,0,29,22.34a2.62,2.62,0,0,0,.46-1.78s0,0,0,0l-.18.25a1.06,1.06,0,0,1-1.39.37,4.38,4.38,0,0,1-.75-.45,1.41,1.41,0,0,0-1.67,0,2.92,2.92,0,0,0-1.06,1.41s0,0,0,.05Z"/><path class="cls-2" d="M11.69,22.29a4.55,4.55,0,0,0-.67-.38,1.35,1.35,0,0,0-1.51.2l-.65.52a1.34,1.34,0,0,1-1.19.26,1.36,1.36,0,0,1-.8-.59A2.55,2.55,0,0,1,6.45,21a2.17,2.17,0,0,1,0-.62s0,.05.06.07a2.21,2.21,0,0,0,.39.52.94.94,0,0,0,.91.22,2.4,2.4,0,0,0,.61-.28l.39-.25a1.43,1.43,0,0,1,1.63,0,2.72,2.72,0,0,1,1,1.12A3.5,3.5,0,0,1,11.69,22.29Zm-.14-.15,0,0s0,0,0-.05a3.11,3.11,0,0,0-.91-1.3,1.53,1.53,0,0,0-1.33-.35,1.71,1.71,0,0,0-.59.29,3.47,3.47,0,0,1-.83.44,1,1,0,0,1-1.06-.25,2.26,2.26,0,0,1-.28-.35s0-.07-.07-.09a0,0,0,0,1,0,0s0,0,0,0a2.83,2.83,0,0,0,.38,1.66A1.28,1.28,0,0,0,8,22.89a1.39,1.39,0,0,0,.95-.38c.23-.18.44-.38.69-.54a1.32,1.32,0,0,1,1.14-.19A3.68,3.68,0,0,1,11.55,22.14Z"/><path class="cls-2" d="M6.21,17.57a3.9,3.9,0,0,0,.28.49,1,1,0,0,0,1.29.48,7.12,7.12,0,0,0,.76-.31,1.93,1.93,0,0,1,.52-.15,1.15,1.15,0,0,1,1.16.57,2.77,2.77,0,0,1,.38,1.21c0,.09,0,.17,0,.26s-.07,0-.09,0a4.37,4.37,0,0,0-.57-.29,1.24,1.24,0,0,0-1,.07l-.54.3a1.52,1.52,0,0,1-1,.17,1.32,1.32,0,0,1-.92-.59A2.85,2.85,0,0,1,6.21,17.57ZM10.55,20h0v0c0-.11,0-.22,0-.33a2.44,2.44,0,0,0-.4-1.1,1.06,1.06,0,0,0-1-.48,1.88,1.88,0,0,0-.62.15,5.16,5.16,0,0,1-.77.31,1.06,1.06,0,0,1-1.28-.45,2.39,2.39,0,0,1-.21-.34s0-.07,0-.08a.51.51,0,0,0,0,.24,2.8,2.8,0,0,0,.33,1.68,1.29,1.29,0,0,0,.9.65,1.39,1.39,0,0,0,.94-.13l.58-.32A1.28,1.28,0,0,1,10,19.77,4.39,4.39,0,0,1,10.55,20Z"/><path class="cls-2" d="M25.31,20.13a2.91,2.91,0,0,1,.48-1.58,1.17,1.17,0,0,1,1.44-.38c.21.07.41.17.62.26a2.74,2.74,0,0,0,.51.15,1,1,0,0,0,.89-.28,2,2,0,0,0,.41-.63s0-.08.06-.1a2.67,2.67,0,0,1,.08.93,2.9,2.9,0,0,1-.26,1,1.43,1.43,0,0,1-2,.68L27.12,20a1.32,1.32,0,0,0-1.43,0Zm.07-.09.42-.22a1.36,1.36,0,0,1,.93-.1,2.43,2.43,0,0,1,.46.22,4.59,4.59,0,0,0,.49.26,1.37,1.37,0,0,0,1.74-.58A2.77,2.77,0,0,0,29.75,18a.91.91,0,0,0-.05-.26,2.42,2.42,0,0,1-.26.45,1,1,0,0,1-1,.5,1.88,1.88,0,0,1-.48-.12c-.26-.11-.51-.23-.78-.32a1.16,1.16,0,0,0-1.52.61,3,3,0,0,0-.3,1.22v0Z"/><path class="cls-2" d="M25.72,18A2.71,2.71,0,0,1,26,16.47a1.42,1.42,0,0,1,1.65-.64c.2.06.39.15.59.22.41.15.62.05.76-.37a2.42,2.42,0,0,0,.1-.45s0-.07,0-.11a3.11,3.11,0,0,1,.28,1.82,1.08,1.08,0,0,1-1.37.85,3.59,3.59,0,0,1-.51-.2,1.3,1.3,0,0,0-1.54.2Zm3.39-2.71c-.05.17-.08.34-.14.5a.49.49,0,0,1-.7.33c-.19-.06-.36-.13-.54-.2a1.4,1.4,0,0,0-1.63.43,2.28,2.28,0,0,0-.34,1.56l.21-.17a1.35,1.35,0,0,1,1.54-.19,2.43,2.43,0,0,0,.47.19,1,1,0,0,0,1.36-.81A2.9,2.9,0,0,0,29.11,15.28Z"/><path class="cls-2" d="M10.21,18a4.26,4.26,0,0,0-.45-.35,1.21,1.21,0,0,0-1.19-.11l-.47.2a1.18,1.18,0,0,1-.72.07,1,1,0,0,1-.84-1,3.2,3.2,0,0,1,.3-1.71.64.64,0,0,1,0,.23,2.24,2.24,0,0,0,.16.5.41.41,0,0,0,.52.25l.3-.1.25-.1A1.45,1.45,0,0,1,10.17,17,3.32,3.32,0,0,1,10.21,18Zm0-.09a3,3,0,0,0,0-.9,1.48,1.48,0,0,0-.45-.83,1.41,1.41,0,0,0-1.48-.26,6,6,0,0,1-.59.22A.47.47,0,0,1,7,15.86a1.73,1.73,0,0,1-.11-.32c0-.09,0-.17-.06-.27a3.07,3.07,0,0,0-.26,1.45,1.86,1.86,0,0,0,.06.34A1,1,0,0,0,8,17.73a6.44,6.44,0,0,0,.61-.24,1.2,1.2,0,0,1,1.2.11A3.2,3.2,0,0,1,10.17,17.9Z"/><path class="cls-2" d="M8.29,12.84a2.82,2.82,0,0,0,0,.5.59.59,0,0,0,.6.59c.18,0,.35,0,.52,0a1.13,1.13,0,0,1,1.16,1,3.83,3.83,0,0,1-.05,1.35c-.07-.14-.13-.26-.2-.38a1.3,1.3,0,0,0-1.21-.7c-.24,0-.49,0-.74,0a2.06,2.06,0,0,1-.43,0,.68.68,0,0,1-.5-.38,1.11,1.11,0,0,1-.06-.8A2.9,2.9,0,0,1,8.29,12.84ZM8.21,13a2.7,2.7,0,0,0-.76,1,1.15,1.15,0,0,0-.06.66.68.68,0,0,0,.66.59,1.7,1.7,0,0,0,.39,0,6.11,6.11,0,0,1,.74,0,1.32,1.32,0,0,1,1.1.61c.07.11.13.23.2.35s0,0,0-.05a3.62,3.62,0,0,0,0-1.09A1.14,1.14,0,0,0,9.34,14l-.46,0a.63.63,0,0,1-.64-.64,1.93,1.93,0,0,1,0-.34,0,0,0,0,0,0,0Z"/><path class="cls-2" d="M27.64,12.84A3.11,3.11,0,0,1,28.52,14a1.27,1.27,0,0,1,.05.77.7.7,0,0,1-.7.56,3.8,3.8,0,0,1-.67,0,2.91,2.91,0,0,0-.59,0,1.28,1.28,0,0,0-.93.58,3.21,3.21,0,0,0-.25.49,4.22,4.22,0,0,1-.08-1.17,1.87,1.87,0,0,1,.07-.4,1.1,1.1,0,0,1,1-.82c.25,0,.5,0,.75-.06a.56.56,0,0,0,.49-.52A2.55,2.55,0,0,0,27.64,12.84Zm.08.14,0,0s0,0,0,0,0,.26,0,.38a.62.62,0,0,1-.54.58,3.68,3.68,0,0,1-.58.05,1.1,1.1,0,0,0-1.15.93,2.61,2.61,0,0,0,0,.79,2.86,2.86,0,0,0,.06.48l.13-.24a1.37,1.37,0,0,1,.92-.7,2.54,2.54,0,0,1,.73,0,4,4,0,0,0,.6,0,.68.68,0,0,0,.71-.56,1,1,0,0,0,0-.39A2.33,2.33,0,0,0,27.72,13Z"/><path class="cls-2" d="M25.12,14.8a2.87,2.87,0,0,1-.41-1.34.63.63,0,0,1,.46-.62c.14-.05.29-.08.44-.12l.2-.07a.52.52,0,0,0,.34-.59,1.72,1.72,0,0,0-.07-.37.29.29,0,0,1,.1,0,2.27,2.27,0,0,1,.69.54,1,1,0,0,1,.16.26.57.57,0,0,1-.28.76,3.82,3.82,0,0,1-.66.19l-.11,0a1.1,1.1,0,0,0-.83,1C25.14,14.58,25.13,14.67,25.12,14.8Zm0-.18v0a.52.52,0,0,0,0-.11,1.13,1.13,0,0,1,.85-1l.3-.07a2.49,2.49,0,0,0,.44-.14.52.52,0,0,0,.28-.73.79.79,0,0,0-.14-.23,2.23,2.23,0,0,0-.61-.49s0,0-.08,0l0,.13a.64.64,0,0,1-.51.84l-.37.09a.67.67,0,0,0-.54.82A3,3,0,0,0,25.08,14.62Z"/><path class="cls-2" d="M9.86,11.67a2.26,2.26,0,0,0-.08.39.54.54,0,0,0,.34.59,1.93,1.93,0,0,0,.34.11l.18,0a.7.7,0,0,1,.59.78,2.92,2.92,0,0,1-.42,1.2,2.57,2.57,0,0,0-.05-.4,1,1,0,0,0-.76-.86l-.49-.13-.23-.07A.59.59,0,0,1,9,12.39,2.19,2.19,0,0,1,9.86,11.67Zm1,3a2.57,2.57,0,0,0,.33-1.06.64.64,0,0,0-.54-.73,3,3,0,0,1-.51-.14A.58.58,0,0,1,9.74,12c0-.09,0-.18,0-.27a1.91,1.91,0,0,0-.74.6.78.78,0,0,0-.11.2.53.53,0,0,0,.27.67,1.73,1.73,0,0,0,.32.11,5.69,5.69,0,0,1,.59.16,1.05,1.05,0,0,1,.67.76A3.29,3.29,0,0,1,10.85,14.63Z"/><path class="cls-2" d="M23.74,21.9s0-.07,0-.1A6.85,6.85,0,0,0,24.92,19,7,7,0,0,0,24.43,15a7.23,7.23,0,0,0-.46-.87s0-.06,0-.1,0,.06.07.09a7,7,0,0,1,1,4,7,7,0,0,1-1.24,3.76S23.79,21.89,23.74,21.9Z"/><path class="cls-2" d="M12,14s0,.08,0,.12a6.85,6.85,0,0,0-1,3,7,7,0,0,0,1.19,4.67s.08.06,0,.12-.06-.07-.09-.11a7.13,7.13,0,0,1-.18-7.71S12,14,12,14Z"/><path class="cls-2" d="M24.63,10.92a1.32,1.32,0,0,1,.69.55.54.54,0,0,1-.11.66,1.25,1.25,0,0,1-.3.21.9.9,0,0,0-.51.93v.08l0,0a2.09,2.09,0,0,1-.49-.93.61.61,0,0,1,.28-.63c.07-.05.16-.09.23-.13a.49.49,0,0,0,.27-.63Zm.07.07a1,1,0,0,1,0,.12.5.5,0,0,1-.27.59l-.25.14a.61.61,0,0,0-.28.55,1.71,1.71,0,0,0,.42.85.13.13,0,0,0,0-.05,1,1,0,0,1,.56-.9.86.86,0,0,0,.29-.21.49.49,0,0,0,.09-.57A1.25,1.25,0,0,0,24.7,11Z"/><path class="cls-2" d="M11.54,13.38c0-.13,0-.23,0-.34a.79.79,0,0,0-.39-.62l-.32-.21a.56.56,0,0,1-.11-.88,1.25,1.25,0,0,1,.58-.39,2,2,0,0,0,0,.26.41.41,0,0,0,.18.41l.26.16a.65.65,0,0,1,.33.8A2.26,2.26,0,0,1,11.54,13.38ZM11.24,11a1.36,1.36,0,0,0-.5.37.52.52,0,0,0,.11.81,3.53,3.53,0,0,0,.32.21.84.84,0,0,1,.4.68s0,.11,0,.17a1.76,1.76,0,0,0,.4-.72.59.59,0,0,0-.31-.7l-.19-.11a.5.5,0,0,1-.28-.6A1,1,0,0,1,11.24,11Z"/><path class="cls-2" d="M23.47,10.3a.82.82,0,0,1,.63.94.47.47,0,0,1-.18.27.9.9,0,0,0-.38,1v.08a4.68,4.68,0,0,1-.45-.57.64.64,0,0,1,.1-.83l.15-.16a.64.64,0,0,0,.15-.66A.11.11,0,0,1,23.47,10.3Zm0,2.13h0a0,0,0,0,0,0,0s0-.09,0-.13a.82.82,0,0,1,.32-.71l.15-.14a.48.48,0,0,0,.15-.37.88.88,0,0,0-.53-.69h0a.11.11,0,0,1,0,0,.65.65,0,0,1-.17.64l-.18.19a.6.6,0,0,0-.08.71A1.93,1.93,0,0,0,23.46,12.43Z"/><path class="cls-2" d="M12.49,10.28a.75.75,0,0,0,.25.92.63.63,0,0,1,.1.84,5.52,5.52,0,0,1-.45.56c0-.07,0-.13,0-.18a.83.83,0,0,0-.33-.85l-.1-.09a.57.57,0,0,1-.12-.66A1,1,0,0,1,12.49,10.28Zm0,2.15a2,2,0,0,0,.36-.46.62.62,0,0,0,0-.53,1,1,0,0,0-.25-.32.68.68,0,0,1-.21-.71.35.35,0,0,1,0-.06,1,1,0,0,0-.5.52.5.5,0,0,0,.06.51,1.52,1.52,0,0,0,.22.22.74.74,0,0,1,.29.6v.21a0,0,0,0,0,0,0Z"/><path class="cls-2" d="M22.56,9.77a.92.92,0,0,1,.51.48.45.45,0,0,1,0,.42,1.13,1.13,0,0,1-.22.27.6.6,0,0,0-.19.52c0,.11,0,.21,0,.34a1.89,1.89,0,0,1-.57-.69.52.52,0,0,1,.17-.61l.08-.06a.51.51,0,0,0,.21-.58.13.13,0,0,1,0-.06Zm0,.09a.56.56,0,0,1-.26.64l-.05,0a.47.47,0,0,0-.16.52,1.54,1.54,0,0,0,.48.63v-.1a.77.77,0,0,1,.24-.72l.1-.12A.57.57,0,0,0,22.6,9.86Z"/><path class="cls-2" d="M13.38,9.77c0,.05,0,.09,0,.13a.49.49,0,0,0,.2.53.66.66,0,0,1,.27.3.57.57,0,0,1-.06.49,2.15,2.15,0,0,1-.51.58q0-.21,0-.39a.6.6,0,0,0-.18-.45,1.07,1.07,0,0,1-.25-.34.4.4,0,0,1,0-.37A.91.91,0,0,1,13.38,9.77Zm-.06.08a.58.58,0,0,0-.26,1l.12.14a.55.55,0,0,1,.16.4v.31a1.77,1.77,0,0,0,.44-.54.5.5,0,0,0,0-.49.76.76,0,0,0-.21-.19.52.52,0,0,1-.22-.5Z"/><path class="cls-2" d="M14.33,11v-.27a.6.6,0,0,0-.22-.52A1,1,0,0,1,13.9,10a.39.39,0,0,1,0-.38.9.9,0,0,1,.44-.44s0,.05,0,.07a.5.5,0,0,0,.24.55.5.5,0,0,1,.18.74A2.8,2.8,0,0,1,14.33,11Zm0-.11a1.42,1.42,0,0,0,.38-.52.43.43,0,0,0-.16-.54.55.55,0,0,1-.31-.62.8.8,0,0,0-.32.31A.39.39,0,0,0,14,10a1.55,1.55,0,0,0,.21.23.55.55,0,0,1,.18.4A2.25,2.25,0,0,1,14.37,10.92Z"/><path class="cls-2" d="M21.6,9.17a.83.83,0,0,1,.49.56A.41.41,0,0,1,22,10a.76.76,0,0,1-.18.22.62.62,0,0,0-.24.55c0,.08,0,.16,0,.26a1.57,1.57,0,0,1-.5-.71.45.45,0,0,1,.18-.49.47.47,0,0,1,.09-.06.46.46,0,0,0,.22-.52A.34.34,0,0,0,21.6,9.17Zm0,.07a.51.51,0,0,1-.25.58l-.06,0a.41.41,0,0,0-.18.45,1.28,1.28,0,0,0,.4.61v-.13a.69.69,0,0,1,.25-.6A.67.67,0,0,0,22,10a.35.35,0,0,0,0-.3A.76.76,0,0,0,21.65,9.24Z"/><path class="cls-2" d="M20.69,10.16a1.38,1.38,0,0,1-.23-.26.48.48,0,0,1-.06-.49.84.84,0,0,0,0-.71A.84.84,0,0,1,20.69,10.16ZM20.5,8.8a.94.94,0,0,1-.05.6.56.56,0,0,0,.25.69C21.14,9.71,21.06,9.16,20.5,8.8Z"/><path class="cls-2" d="M15.24,10.15c-.52-.44-.41-1.07.27-1.46a1.36,1.36,0,0,0,0,.17.71.71,0,0,0,0,.43A.63.63,0,0,1,15.24,10.15Zm0-.06a.55.55,0,0,0,.23-.73.86.86,0,0,1,0-.55C14.9,9.14,14.78,9.7,15.24,10.09Z"/><path class="cls-2" d="M14.64,11.54c0,.05,0,.05-.05.06a8,8,0,0,0-.69.43s-.05.06-.09,0A4,4,0,0,1,14.64,11.54Z"/><path class="cls-2" d="M23.2,13h0l-.43-.44h0A1.75,1.75,0,0,1,23.2,13Z"/><path class="cls-2" d="M13.18,12.58a0,0,0,0,1,0,0c-.14.14-.27.28-.41.41s0,0,0,0A1.92,1.92,0,0,1,13.18,12.58Z"/><path class="cls-2" d="M12.82,22.66a.65.65,0,0,1,.29.3A1.18,1.18,0,0,1,12.82,22.66Z"/><path class="cls-2" d="M22.84,22.93a.59.59,0,0,1,.27-.27A.87.87,0,0,1,22.84,22.93Z"/><path class="cls-2" d="M14.08,23.72a.43.43,0,0,1,.29.18A.88.88,0,0,1,14.08,23.72Z"/><path class="cls-2" d="M12.37,13.45a.2.2,0,0,1-.13.18A.38.38,0,0,1,12.37,13.45Z"/><path class="cls-2" d="M23.7,13.63a.19.19,0,0,1-.14-.18A.4.4,0,0,1,23.7,13.63Z"/><path class="cls-2" d="M22.6,23.16c0-.08.07-.11.13-.14S22.66,23.13,22.6,23.16Z"/><path class="cls-2" d="M12.6,22.42c.08,0,.11.07.13.13S12.63,22.48,12.6,22.42Z"/><path class="cls-2" d="M23.2,22.55c0-.06.06-.12.14-.13S23.28,22.54,23.2,22.55Z"/><path class="cls-2" d="M13.2,23c.07,0,.13.06.14.14S13.22,23.1,13.2,23Z"/><path class="cls-2" d="M13.79,23.52a.15.15,0,0,1,.16.11A.31.31,0,0,1,13.79,23.52Z"/><path class="cls-2" d="M22,23.63a.14.14,0,0,1,.16-.11A.36.36,0,0,1,22,23.63Z"/><path class="cls-2" d="M23.63,22.06a.16.16,0,0,1,.11-.16A.36.36,0,0,1,23.63,22.06Z"/><path class="cls-2" d="M12.19,21.9a.16.16,0,0,1,.12.16A.31.31,0,0,1,12.19,21.9Z"/><path class="cls-2" d="M22.66,12.51a.14.14,0,0,1-.11-.11A.15.15,0,0,1,22.66,12.51Z"/><path class="cls-2" d="M23.36,13.2c-.07,0-.1,0-.11-.11A.15.15,0,0,1,23.36,13.2Z"/><path class="cls-2" d="M12.69,13.09c0,.06,0,.11-.11.11S12.62,13.1,12.69,13.09Z"/><path class="cls-2" d="M22.44,23.29c0-.07,0-.09.11-.11S22.49,23.27,22.44,23.29Z"/><path class="cls-2" d="M13.38,23.18c.06,0,.11,0,.12.11S13.39,23.25,13.38,23.18Z"/><path class="cls-2" d="M13.38,12.4c0,.06-.05.09-.11.11A.15.15,0,0,1,13.38,12.4Z"/><path class="cls-2" d="M23.47,13.34a.09.09,0,0,1-.09-.11A.14.14,0,0,1,23.47,13.34Z"/><path class="cls-2" d="M23.54,22.17c0-.07,0-.11.09-.11A.17.17,0,0,1,23.54,22.17Z"/><path class="cls-2" d="M12.55,13.23c0,.06,0,.1-.09.11A.2.2,0,0,1,12.55,13.23Z"/><path class="cls-2" d="M12.31,22.06c.07,0,.09,0,.09.11A.14.14,0,0,1,12.31,22.06Z"/><path class="cls-2" d="M22.33,23.38c0-.07,0-.09.11-.09A.16.16,0,0,1,22.33,23.38Z"/><path class="cls-2" d="M13.5,23.29a.09.09,0,0,1,.11.09A.14.14,0,0,1,13.5,23.29Z"/><path class="cls-2" d="M22.42,12.28a.09.09,0,0,1-.12-.09A.27.27,0,0,1,22.42,12.28Z"/><path class="cls-2" d="M13.63,12.19c0,.07,0,.1-.11.09A.2.2,0,0,1,13.63,12.19Z"/><path class="cls-2" d="M22.51,12.37a.08.08,0,0,1-.09-.09S22.5,12.32,22.51,12.37Z"/><path class="cls-2" d="M12.49,22.28c.06,0,.08,0,.09.09S12.5,22.33,12.49,22.28Z"/><path class="cls-2" d="M13.52,12.28a.08.08,0,0,1-.09.09S13.48,12.3,13.52,12.28Z"/><path class="cls-2" d="M23.36,22.37c0-.05,0-.09.09-.09S23.42,22.37,23.36,22.37Z"/><path class="cls-2" d="M13.7,23.45c.05,0,.09,0,.09.07A.13.13,0,0,1,13.7,23.45Z"/><path class="cls-2" d="M22.24,23.45c0-.06,0-.08.09-.07A.13.13,0,0,1,22.24,23.45Z"/><path class="cls-2" d="M12.44,13.36c0,.06,0,.09-.07.09A.13.13,0,0,1,12.44,13.36Z"/><path class="cls-2" d="M13.81,12.06c0,.06,0,.08-.09.07A.13.13,0,0,1,13.81,12.06Z"/><path class="cls-2" d="M22.15,23.52c0-.06,0-.08.09-.07A.13.13,0,0,1,22.15,23.52Z"/><path class="cls-2" d="M22.3,12.19c-.05,0-.09,0-.09-.06A.1.1,0,0,1,22.3,12.19Z"/><path class="cls-2" d="M13.72,12.13q0,.09-.09.06A.11.11,0,0,1,13.72,12.13Z"/><path class="cls-2" d="M22.21,12.13c-.05,0-.09,0-.09-.07A.11.11,0,0,1,22.21,12.13Z"/><path class="cls-2" d="M13.61,23.38c.05,0,.09,0,.09.07A.13.13,0,0,1,13.61,23.38Z"/><path class="cls-2" d="M23.76,13.72c-.06,0-.07,0-.06-.09A.11.11,0,0,1,23.76,13.72Z"/><path class="cls-2" d="M12.24,13.63c0,.06,0,.09-.07.09A.13.13,0,0,1,12.24,13.63Z"/><path class="cls-2" d="M23.56,13.45c-.06,0-.08,0-.07-.09A.11.11,0,0,1,23.56,13.45Z"/><path class="cls-2" d="M12.4,22.17s.06,0,.06.07S12.4,22.21,12.4,22.17Z"/><path class="cls-2" d="M23.47,22.24s0-.08.07-.07S23.52,22.24,23.47,22.24Z"/><path class="cls-2" d="M21.85,23.72s0-.06.07,0S21.89,23.72,21.85,23.72Z"/><path class="cls-2" d="M23.85,13.86c-.05,0-.06,0,0-.07A.05.05,0,0,1,23.85,13.86Z"/><path class="cls-2" d="M14,23.63s.07,0,.06,0A.05.05,0,0,1,14,23.63Z"/><path class="cls-2" d="M23.9,13.92s-.06,0,0-.06S23.9,13.89,23.9,13.92Z"/><path class="cls-2" d="M21.92,23.67c0-.05,0-.05.07,0A.07.07,0,0,1,21.92,23.67Z"/><path class="cls-2" d="M12.08,13.86s0,.07,0,.06S12.05,13.87,12.08,13.86Z"/><path class="cls-2" d="M23.94,14c-.05,0-.06,0,0-.07A.07.07,0,0,1,23.94,14Z"/><path class="cls-2" d="M12,13.92c0,.05,0,.07,0,.07A.06.06,0,0,1,12,13.92Z"/><path class="cls-2" d="M23.81,13.79s-.07,0,0-.07A.08.08,0,0,1,23.81,13.79Z"/><path class="cls-2" d="M12.17,13.72s0,.07,0,.07A.07.07,0,0,1,12.17,13.72Z"/><path class="cls-2" d="M14,23.67s.07,0,.07,0A.06.06,0,0,1,14,23.67Z"/><path class="cls-2" d="M12.13,13.79s0,.07-.05.07S12.09,13.8,12.13,13.79Z"/><path class="cls-2" d="M13.15,23s0,0,.06,0S13.17,23,13.15,23Z"/><path class="cls-2" d="M22.73,23s0,0,.06,0S22.76,23.05,22.73,23Z"/><path class="cls-2" d="M13.34,23.16s0,0,0,0S13.35,23.18,13.34,23.16Z"/><path class="cls-2" d="M22.55,23.18s0,0,.05,0S22.58,23.2,22.55,23.18Z"/><path class="cls-2" d="M23.25,13.09s-.05,0,0,0S23.27,13.06,23.25,13.09Z"/><path class="cls-2" d="M22.73,12.55s0,0-.05,0S22.72,12.53,22.73,12.55Z"/><path class="cls-2" d="M13.25,12.53s0,0-.05,0S13.22,12.51,13.25,12.53Z"/><path class="cls-2" d="M23.45,22.28s0,0,0,0S23.47,22.28,23.45,22.28Z"/><path class="cls-2" d="M12.46,22.24s0,0,0,0S12.44,22.27,12.46,22.24Z"/><path class="cls-2" d="M12.57,22.37s0,0,0,.05S12.55,22.4,12.57,22.37Z"/><path class="cls-2" d="M23.34,22.42s0,0,0-.05S23.36,22.41,23.34,22.42Z"/><path class="cls-2" d="M12.73,22.55s0,0,0,.06S12.71,22.59,12.73,22.55Z"/><path class="cls-2" d="M23.18,22.61s0-.05,0-.06S23.19,22.59,23.18,22.61Z"/><path class="cls-2" d="M22.55,12.4s0,0,0,0S22.54,12.37,22.55,12.4Z"/><path class="cls-2" d="M12.71,13.05s0,0,0,0S12.69,13.05,12.71,13.05Z"/><path class="cls-2" d="M13.43,12.37s0,.05,0,0S13.4,12.35,13.43,12.37Z"/><path class="cls-2" d="M22.75,12.58s0,0,0,0S22.76,12.56,22.75,12.58Z"/><path class="cls-2" d="M12.73,13s0,0,0,0S12.71,13,12.73,13Z"/><path class="cls-2" d="M23.22,13.05s0,0,0,0S23.23,13,23.22,13.05Z"/><path class="cls-2" d="M12.58,13.2s0,0,0,0A0,0,0,0,1,12.58,13.2Z"/><path class="cls-2" d="M23.38,13.23s0,0,0,0S23.38,13.21,23.38,13.23Z"/><path class="cls-2" d="M12.46,13.34s0,0,0,0A0,0,0,0,1,12.46,13.34Z"/><path class="cls-2" d="M23.49,13.36s0,0,0,0S23.49,13.35,23.49,13.36Z"/><path class="cls-2" d="M22.82,23s0,0,0,0S22.84,23,22.82,23Z"/><path class="cls-2" d="M13.11,23s0,0,0,0S13.11,23,13.11,23Z"/><path class="cls-2" d="M22.8,23s0,0,0,0Z"/><path class="cls-2" d="M12.8,22.64s0,0,0,0S12.8,22.66,12.8,22.64Z"/><path class="cls-2" d="M23.11,22.66s0,0,0,0S23.13,22.67,23.11,22.66Z"/><path class="cls-2" d="M12.77,22.62s0,0,0,0S12.77,22.63,12.77,22.62Z"/><path class="cls-2" d="M23.13,22.64s0,0,0,0Z"/><path class="cls-2" d="M13.27,12.51s0,0,0,0S13.25,12.5,13.27,12.51Z"/><path class="cls-2" d="M22.69,12.53s0,0,0,0S22.7,12.51,22.69,12.53Z"/><path class="cls-2" d="M13.2,12.55s0,0,0,0S13.19,12.55,13.2,12.55Z"/><path class="cls-3" d="M9,9.73v0s0,0,0,0Z"/><path class="cls-3" d="M9.44,9.45v0s0,0,0,0Z"/><path class="cls-3" d="M21.38,6.63l.13-.44c.11.07.26,0,.32.18a.27.27,0,0,1-.07.27C21.64,6.74,21.52,6.65,21.38,6.63Z"/><path class="cls-3" d="M7.42,10.86a0,0,0,0,1,0,0v0Z"/><path class="cls-3" d="M25.82,9.54a1.29,1.29,0,0,1,.66-.82.22.22,0,0,1,.28.22.37.37,0,0,1,0,.18,1.63,1.63,0,0,1-.49.59.26.26,0,0,1-.13.06A.22.22,0,0,1,25.82,9.54Z"/><path class="cls-3" d="M4.13,17.79a2.13,2.13,0,0,1,.61.12.39.39,0,0,1,.16.1.23.23,0,0,1-.07.38.59.59,0,0,1-.23,0,2.11,2.11,0,0,1-.6-.11.49.49,0,0,1-.18-.11.23.23,0,0,1,.07-.38A.61.61,0,0,1,4.13,17.79Z"/><path class="cls-3" d="M32,17.88l-.69.27,0-.29H32Z"/><path class="cls-3" d="M30.87,14.16l-.61.43a2.24,2.24,0,0,1-.13-.27l.73-.17Z"/><path class="cls-3" d="M4,20.08H3.54c0-.1,0-.21.07-.28a.31.31,0,0,1,.32,0C4.05,19.86,4,20,4,20.08Z"/><path class="cls-3" d="M24.74,8,25,7.59c.09.06.2.09.21.21a.36.36,0,0,1-.17.29C24.94,8.13,24.87,8.1,24.74,8Z"/><path class="cls-3" d="M16.14,29.6a.87.87,0,0,1-.06.32.4.4,0,0,1-.74,0,.89.89,0,0,1,0-.68.37.37,0,0,1,.37-.23.38.38,0,0,1,.37.23A1,1,0,0,1,16.14,29.6Z"/><path class="cls-3" d="M13.79,29.48v-.43c.12,0,.23,0,.34,0a.19.19,0,0,1,.19.21c0,.11-.06.19-.19.21A1.26,1.26,0,0,1,13.79,29.48Z"/><path class="cls-3" d="M21.78,29.05c.11,0,.21,0,.31,0a.2.2,0,0,1,.21.21.19.19,0,0,1-.2.21h-.32Z"/><path class="cls-6" d="M7.45,26.91l.35.3a2.25,2.25,0,0,0,.36.24,1,1,0,0,0,1.26-.24,3.88,3.88,0,0,0,.54-.84c.06-.12.12-.24.19-.36a2.86,2.86,0,0,1,2.12-1.5,3.82,3.82,0,0,1,2.21.31,4.06,4.06,0,0,1,.51.26,4.21,4.21,0,0,0-.5,0,2.14,2.14,0,0,0-1.37.87,6.45,6.45,0,0,0-.72,1.25,13.89,13.89,0,0,1-.7,1.39,2.86,2.86,0,0,1-.71.84,2.32,2.32,0,0,1-1.93.34A1.87,1.87,0,0,1,7.7,28.73a2.81,2.81,0,0,1-.25-.9A4.71,4.71,0,0,1,7.45,26.91Z"/><path class="cls-6" d="M20.91,25.08a5.08,5.08,0,0,1,1.55-.56,3.13,3.13,0,0,1,2.95.93,2.62,2.62,0,0,1,.4.6,8.13,8.13,0,0,0,.51.91,2.24,2.24,0,0,0,.32.37.91.91,0,0,0,1.05.15,2.42,2.42,0,0,0,.7-.48s0-.07.09-.07,0,0,0,0a3.29,3.29,0,0,1-.34,1.93,1.92,1.92,0,0,1-1.49,1,2.81,2.81,0,0,1-1.15-.08,2.19,2.19,0,0,1-1.08-.84,8.5,8.5,0,0,1-.74-1.36A8.25,8.25,0,0,0,22.84,26,2.15,2.15,0,0,0,21,25.09Z"/><path class="cls-6" d="M23,23.9a3.62,3.62,0,0,1,1.44-1.12,2.18,2.18,0,0,1,1.9,0,4.21,4.21,0,0,1,.58.44,4,4,0,0,0,.59.43,1,1,0,0,0,1.38-.26l.15-.2a2.3,2.3,0,0,1,0,.45,3.41,3.41,0,0,1-.24,1.3,1.54,1.54,0,0,1-2.27.68,3.89,3.89,0,0,1-.5-.41c-.25-.25-.49-.5-.76-.73a2.78,2.78,0,0,0-2.11-.62Z"/><path class="cls-6" d="M12.91,23.89a.12.12,0,0,1-.08,0,2.85,2.85,0,0,0-2.5.89,9.58,9.58,0,0,1-.8.76,1.53,1.53,0,0,1-2.47-.71,4,4,0,0,1-.18-1.53s0,0,0-.06l.18.22a.94.94,0,0,0,1.25.26,4.13,4.13,0,0,0,.83-.61,2,2,0,0,1,1.34-.54,2.5,2.5,0,0,1,1.38.4,3.8,3.8,0,0,1,1,.87Z"/><path class="cls-6" d="M24.36,22.11a2.92,2.92,0,0,1,1.06-1.41,1.41,1.41,0,0,1,1.67,0,4.38,4.38,0,0,0,.75.45,1.06,1.06,0,0,0,1.39-.37l.18-.25s0,0,0,0A2.62,2.62,0,0,1,29,22.34a1.26,1.26,0,0,1-1.75.34,7,7,0,0,1-.67-.52,1.66,1.66,0,0,0-.81-.42,1.63,1.63,0,0,0-1,.21l-.36.19Z"/><path class="cls-6" d="M24.38,22.14l0,0s0,0,0-.05Z"/><path class="cls-6" d="M11.55,22.14a3.68,3.68,0,0,0-.78-.36A1.32,1.32,0,0,0,9.63,22c-.25.16-.46.36-.69.54a1.39,1.39,0,0,1-.95.38,1.28,1.28,0,0,1-1.12-.67,2.83,2.83,0,0,1-.38-1.66s0,0,0,0a0,0,0,0,0,0,0s0,.06.07.09a2.26,2.26,0,0,0,.28.35,1,1,0,0,0,1.06.25,3.47,3.47,0,0,0,.83-.44,1.71,1.71,0,0,1,.59-.29,1.53,1.53,0,0,1,1.33.35,3.11,3.11,0,0,1,.91,1.3Z"/><path class="cls-6" d="M11.58,22.11s0,0,0,.05l0,0Z"/><path class="cls-6" d="M10.55,20a4.39,4.39,0,0,0-.53-.27,1.28,1.28,0,0,0-1.08.06l-.58.32a1.39,1.39,0,0,1-.94.13,1.29,1.29,0,0,1-.9-.65A2.8,2.8,0,0,1,6.19,18a.51.51,0,0,1,0-.24s0,.05,0,.08a2.39,2.39,0,0,0,.21.34,1.06,1.06,0,0,0,1.28.45,5.16,5.16,0,0,0,.77-.31,1.88,1.88,0,0,1,.62-.15,1.06,1.06,0,0,1,1,.48,2.44,2.44,0,0,1,.4,1.1c0,.11,0,.22,0,.33Z"/><path class="cls-6" d="M10.56,20v0h0Z"/><path class="cls-6" d="M25.37,20a3,3,0,0,1,.3-1.22,1.16,1.16,0,0,1,1.52-.61c.27.09.52.21.78.32a1.88,1.88,0,0,0,.48.12,1,1,0,0,0,1-.5,2.42,2.42,0,0,0,.26-.45.91.91,0,0,1,.05.26,2.77,2.77,0,0,1-.33,1.67,1.37,1.37,0,0,1-1.74.58,4.59,4.59,0,0,1-.49-.26,2.43,2.43,0,0,0-.46-.22,1.36,1.36,0,0,0-.93.1l-.42.22Z"/><path class="cls-6" d="M25.38,20h0v0Z"/><path class="cls-6" d="M29.11,15.28a2.9,2.9,0,0,1,.23,1.64,1,1,0,0,1-1.36.81,2.43,2.43,0,0,1-.47-.19,1.35,1.35,0,0,0-1.54.19l-.21.17a2.28,2.28,0,0,1,.34-1.56,1.4,1.4,0,0,1,1.63-.43c.18.07.35.14.54.2a.49.49,0,0,0,.7-.33C29,15.62,29.06,15.45,29.11,15.28Z"/><path class="cls-6" d="M10.17,17.9a3.2,3.2,0,0,0-.4-.3,1.2,1.2,0,0,0-1.2-.11,6.44,6.44,0,0,1-.61.24,1,1,0,0,1-1.33-.67,1.86,1.86,0,0,1-.06-.34,3.07,3.07,0,0,1,.26-1.45c0,.1,0,.18.06.27a1.73,1.73,0,0,0,.11.32.47.47,0,0,0,.61.27,6,6,0,0,0,.59-.22,1.41,1.41,0,0,1,1.48.26,1.48,1.48,0,0,1,.45.83A3,3,0,0,1,10.17,17.9Z"/><path class="cls-6" d="M8.23,13a1.93,1.93,0,0,0,0,.34.63.63,0,0,0,.64.64l.46,0a1.14,1.14,0,0,1,1.19,1.06,3.62,3.62,0,0,1,0,1.09s0,0,0,.05-.13-.24-.2-.35a1.32,1.32,0,0,0-1.1-.61,6.11,6.11,0,0,0-.74,0,1.7,1.7,0,0,1-.39,0,.68.68,0,0,1-.66-.59A1.15,1.15,0,0,1,7.45,14a2.7,2.7,0,0,1,.76-1Z"/><path class="cls-6" d="M8.21,13l0,0a0,0,0,0,1,0,0Z"/><path class="cls-6" d="M27.72,13a2.33,2.33,0,0,1,.84,1.34,1,1,0,0,1,0,.39.68.68,0,0,1-.71.56,4,4,0,0,1-.6,0,2.54,2.54,0,0,0-.73,0,1.37,1.37,0,0,0-.92.7l-.13.24a2.86,2.86,0,0,1-.06-.48,2.61,2.61,0,0,1,0-.79A1.1,1.1,0,0,1,26.58,14a3.68,3.68,0,0,0,.58-.05.62.62,0,0,0,.54-.58c0-.12,0-.25,0-.38Z"/><path class="cls-6" d="M27.7,13s0,0,0,0l0,0Z"/><path class="cls-6" d="M25.08,14.62a3,3,0,0,1-.32-1,.67.67,0,0,1,.54-.82l.37-.09a.64.64,0,0,0,.51-.84l0-.13s.06,0,.08,0a2.23,2.23,0,0,1,.61.49.79.79,0,0,1,.14.23.52.52,0,0,1-.28.73,2.49,2.49,0,0,1-.44.14l-.3.07a1.13,1.13,0,0,0-.85,1,.52.52,0,0,1,0,.11Z"/><path class="cls-6" d="M10.85,14.63a3.29,3.29,0,0,0-.07-.36,1.05,1.05,0,0,0-.67-.76,5.69,5.69,0,0,0-.59-.16,1.73,1.73,0,0,1-.32-.11.53.53,0,0,1-.27-.67.78.78,0,0,1,.11-.2,1.91,1.91,0,0,1,.74-.6c0,.09,0,.18,0,.27a.58.58,0,0,0,.39.66,3,3,0,0,0,.51.14.64.64,0,0,1,.54.73A2.57,2.57,0,0,1,10.85,14.63Z"/><path class="cls-6" d="M24.7,11a1.25,1.25,0,0,1,.59.52.49.49,0,0,1-.09.57.86.86,0,0,1-.29.21,1,1,0,0,0-.56.9.13.13,0,0,1,0,.05,1.71,1.71,0,0,1-.42-.85.61.61,0,0,1,.28-.55l.25-.14a.5.5,0,0,0,.27-.59A1,1,0,0,0,24.7,11Z"/><path class="cls-6" d="M11.24,11a1,1,0,0,0,0,.11.5.5,0,0,0,.28.6l.19.11a.59.59,0,0,1,.31.7,1.76,1.76,0,0,1-.4.72c0-.06,0-.12,0-.17a.84.84,0,0,0-.4-.68,3.53,3.53,0,0,1-.32-.21.52.52,0,0,1-.11-.81A1.36,1.36,0,0,1,11.24,11Z"/><path class="cls-6" d="M23.46,12.43a1.93,1.93,0,0,1-.35-.46.6.6,0,0,1,.08-.71l.18-.19a.65.65,0,0,0,.17-.64.11.11,0,0,0,0,0h0a.88.88,0,0,1,.53.69.48.48,0,0,1-.15.37l-.15.14a.82.82,0,0,0-.32.71s0,.09,0,.13Z"/><path class="cls-6" d="M23.48,12.41a0,0,0,0,1,0,0h0Z"/><path class="cls-6" d="M12.46,12.41V12.2a.74.74,0,0,0-.29-.6,1.52,1.52,0,0,1-.22-.22.5.5,0,0,1-.06-.51,1,1,0,0,1,.5-.52.35.35,0,0,0,0,.06.68.68,0,0,0,.21.71,1,1,0,0,1,.25.32.62.62,0,0,1,0,.53,2,2,0,0,1-.36.46Z"/><path class="cls-6" d="M12.47,12.43h0a0,0,0,0,1,0,0Z"/><path class="cls-6" d="M22.6,9.86a.57.57,0,0,1,.34.89l-.1.12a.77.77,0,0,0-.24.72v.1a1.54,1.54,0,0,1-.48-.63.47.47,0,0,1,.16-.52l.05,0A.56.56,0,0,0,22.6,9.86Z"/><path class="cls-6" d="M13.32,9.85V10a.52.52,0,0,0,.22.5.76.76,0,0,1,.21.19.5.5,0,0,1,0,.49,1.77,1.77,0,0,1-.44.54v-.31a.55.55,0,0,0-.16-.4l-.12-.14A.58.58,0,0,1,13.32,9.85Z"/><path class="cls-6" d="M14.37,10.92a2.25,2.25,0,0,0,0-.26.55.55,0,0,0-.18-.4A1.55,1.55,0,0,1,14,10a.39.39,0,0,1,0-.48.8.8,0,0,1,.32-.31.55.55,0,0,0,.31.62.43.43,0,0,1,.16.54A1.42,1.42,0,0,1,14.37,10.92Z"/><path class="cls-6" d="M21.65,9.24a.76.76,0,0,1,.38.43.35.35,0,0,1,0,.3.67.67,0,0,1-.19.22.69.69,0,0,0-.25.6v.13a1.28,1.28,0,0,1-.4-.61.41.41,0,0,1,.18-.45l.06,0A.51.51,0,0,0,21.65,9.24Z"/><path class="cls-6" d="M20.5,8.8c.56.36.64.91.2,1.29a.56.56,0,0,1-.25-.69A.94.94,0,0,0,20.5,8.8Z"/><path class="cls-6" d="M15.24,10.09c-.46-.39-.34-.95.19-1.28a.86.86,0,0,0,0,.55A.55.55,0,0,1,15.24,10.09Z"/><path d="M60.61,2H62A1.2,1.2,0,0,1,63.3,3.25,1.2,1.2,0,0,1,62,4.51h-.87V6h-.48Zm1.33,2.09a.78.78,0,0,0,.89-.83c0-.48-.25-.83-.9-.83h-.84V4.08Z"/><path d="M64,3h.44v.45h0a.79.79,0,0,1,.77-.49h.24v.47a1.28,1.28,0,0,0-.28,0,.7.7,0,0,0-.75.7V6H64Z"/><path d="M65.8,4.49a1.36,1.36,0,1,1,2.69,0,1.36,1.36,0,1,1-2.69,0Zm2.24,0c0-.6-.28-1.13-.9-1.13s-.89.53-.89,1.13.28,1.12.89,1.12S68,5.08,68,4.49Z"/><path d="M69.17,6.54l.36-.25a.94.94,0,0,0,.86.44c.48,0,.82-.22.82-.72v-.6h0a.92.92,0,0,1-.87.5A1.28,1.28,0,0,1,69,4.46c0-.92.52-1.52,1.27-1.52a.91.91,0,0,1,.87.52h0V3h.44V6.05c0,.76-.57,1.09-1.28,1.09A1.31,1.31,0,0,1,69.17,6.54Zm2-2.09c0-.64-.29-1.09-.85-1.09s-.87.48-.87,1.09.3,1,.87,1S71.22,5.11,71.22,4.45Z"/><path d="M72.5,3h.44v.45h0a.82.82,0,0,1,.78-.49H74v.47a1.28,1.28,0,0,0-.28,0,.7.7,0,0,0-.75.7V6H72.5Z"/><path d="M74.39,5.12c0-.69.6-.81,1.15-.88s.77,0,.77-.27V4a.55.55,0,0,0-.63-.6.8.8,0,0,0-.77.45l-.44-.16a1.22,1.22,0,0,1,1.2-.7A1,1,0,0,1,76.77,4V6h-.46v-.4h0A1,1,0,0,1,75.4,6,.92.92,0,0,1,74.39,5.12Zm1.92-.24V4.46a2.15,2.15,0,0,1-.79.17c-.36,0-.68.16-.68.51s.27.48.63.48A.77.77,0,0,0,76.31,4.88Z"/><path d="M77.6,3H78v.47h0a.87.87,0,0,1,1.59,0h0a1,1,0,0,1,.9-.51c.53,0,.9.33.9,1V6h-.45V4a.56.56,0,0,0-.61-.61.62.62,0,0,0-.66.66V6h-.46v-2a.55.55,0,0,0-.59-.56.7.7,0,0,0-.68.74V6H77.6Z"/><path d="M85.2,2.36c-.53,0-.87.28-.87.66s.47.58.76.66l.41.11c.41.11,1.11.35,1.11,1.09S86.09,6,85.18,6s-1.38-.44-1.43-1.09h.5c0,.45.46.66.93.66s1-.29,1-.73-.38-.54-.79-.65l-.49-.14c-.62-.18-1-.5-1-1A1.39,1.39,0,0,1,86.56,3h-.47C86.05,2.59,85.68,2.36,85.2,2.36Z"/><path d="M88.63,3.37H88V5.11c0,.38.19.45.4.45a.7.7,0,0,0,.2,0l.09.41a.79.79,0,0,1-.34.06.76.76,0,0,1-.81-.77V3.37h-.45V3h.45V2.27H88V3h.64Z"/><path d="M91.19,3h.45V6h-.45v-.5h0a.94.94,0,0,1-.89.54c-.55,0-1-.37-1-1.13V3h.46V4.84a.65.65,0,0,0,.65.72.78.78,0,0,0,.77-.82Z"/><path d="M92.34,4.48c0-.94.51-1.54,1.27-1.54a.9.9,0,0,1,.86.52h0V2H95V6h-.44V5.5h0A.92.92,0,0,1,93.6,6C92.85,6,92.34,5.43,92.34,4.48Zm2.17,0c0-.66-.29-1.11-.85-1.11s-.87.48-.87,1.11.3,1.14.87,1.14S94.51,5.15,94.51,4.47Z"/><path d="M95.76,2.18a.33.33,0,0,1,.65,0,.33.33,0,0,1-.65,0Zm.09.8h.46V6h-.46Z"/><path d="M60.65,10.8h6.8v1.44H64.92v6.84H63.19V12.24H60.65Z"/><path d="M67.39,16a3,3,0,0,1,3-3.22,2.82,2.82,0,0,1,2.92,3.15v.48H69.1a1.35,1.35,0,0,0,1.4,1.5,1.18,1.18,0,0,0,1.2-.72l1.59.1a2.58,2.58,0,0,1-2.81,1.9A2.91,2.91,0,0,1,67.39,16Zm4.32-.66a1.23,1.23,0,0,0-1.27-1.27,1.3,1.3,0,0,0-1.34,1.27Z"/><path d="M74.46,10.8h1.72v4.43h.09l2-2.36h2l-2.3,2.69,2.42,3.52h-2l-1.69-2.5-.47.53v2H74.46Z"/><path d="M82.81,19.08H81.09V12.87h1.64V14h.07a1.88,1.88,0,0,1,1.87-1.18,2.09,2.09,0,0,1,2.14,2.34v3.95H85.09V15.43A1.06,1.06,0,0,0,84,14.22a1.14,1.14,0,0,0-1.18,1.27Z"/><path d="M88.11,11.2a.94.94,0,1,1,.93.87A.9.9,0,0,1,88.11,11.2Zm.07,1.67H89.9v6.21H88.18Z"/><path d="M91.28,10.8H93v4.43h.09l2-2.36h2l-2.31,2.69,2.43,3.52h-2l-1.7-2.5-.46.53v2H91.28Z"/><path d="M102.33,19.08h-1.75V10.8h1.75Z"/><path d="M105.47,19.08h-1.72V12.87h1.64V14h.07a1.88,1.88,0,0,1,1.87-1.18,2.09,2.09,0,0,1,2.14,2.34v3.95h-1.72V15.43a1.06,1.06,0,0,0-1.1-1.21,1.14,1.14,0,0,0-1.18,1.27Z"/><path d="M114.18,14.17h-1.24v4.91h-1.72V14.17h-.88v-1.3h.88v-.45a1.87,1.87,0,0,1,2-2,4.81,4.81,0,0,1,1.22.17l-.31,1.3a1.76,1.76,0,0,0-.55-.09c-.51,0-.68.24-.68.66v.42h1.24Z"/><path d="M114.76,16a3.06,3.06,0,1,1,6.12,0,3.06,3.06,0,1,1-6.12,0Zm4.37,0c0-1.08-.45-1.89-1.3-1.89s-1.32.81-1.32,1.89.45,1.88,1.32,1.88S119.13,17.07,119.13,16Z"/><path d="M122,12.87h1.67V14h.06a1.52,1.52,0,0,1,1.49-1.17,3.19,3.19,0,0,1,.55.06v1.53a3,3,0,0,0-.73-.09,1.25,1.25,0,0,0-1.32,1.29v3.51H122Z"/><path d="M126.67,12.87h1.64V14h.07a1.75,1.75,0,0,1,1.73-1.18A1.64,1.64,0,0,1,131.8,14h.06a2,2,0,0,1,3.83.94v4.17H134V15.24a.92.92,0,0,0-1-1,1,1,0,0,0-1,1.08v3.79h-1.67V15.21a.92.92,0,0,0-.95-1,1,1,0,0,0-1,1.14v3.73h-1.72Z"/><path d="M136.77,17.35c0-1.39,1.11-1.8,2.33-1.92s1.51-.15,1.51-.55v0c0-.51-.34-.8-.92-.8a1,1,0,0,0-1.11.71L137,14.63a2.47,2.47,0,0,1,2.7-1.84c1.39,0,2.64.62,2.64,2.1v4.19H140.7v-.86h0a1.91,1.91,0,0,1-1.82,1A1.82,1.82,0,0,1,136.77,17.35Zm3.85-.49V16.2a4,4,0,0,1-1.2.28c-.6.09-1,.33-1,.81s.38.72.91.72A1.19,1.19,0,0,0,140.62,16.86Z"/><path d="M147,14.17h-1.17v3c0,.48.24.61.58.61a1.91,1.91,0,0,0,.43-.06l.27,1.29a3.79,3.79,0,0,1-.93.16c-1.25,0-2.08-.55-2.07-1.77V14.17h-.85v-1.3h.85V11.38h1.72v1.49H147Z"/><path d="M148,11.2a.93.93,0,1,1,.93.87A.9.9,0,0,1,148,11.2Zm.06,1.67h1.73v6.21H148.1Z"/><path d="M151.21,10.8h1.72v4.43H153l2-2.36h2l-2.31,2.69,2.42,3.52h-2l-1.7-2.5-.46.53v2h-1.72Z"/><path d="M157.55,17.35c0-1.39,1.1-1.8,2.33-1.92s1.5-.15,1.5-.55v0c0-.51-.33-.8-.92-.8a1,1,0,0,0-1.1.71l-1.6-.13a2.48,2.48,0,0,1,2.71-1.84c1.38,0,2.63.62,2.63,2.1v4.19h-1.63v-.86h-.05a1.89,1.89,0,0,1-1.81,1A1.81,1.81,0,0,1,157.55,17.35Zm3.84-.49V16.2a3.93,3.93,0,0,1-1.19.28c-.61.09-1,.33-1,.81s.38.72.91.72A1.19,1.19,0,0,0,161.39,16.86Z"/><path d="M60.62,24.77h2.22a1.9,1.9,0,1,1,0,3.8h-1v1.82H60.62Zm2,2.85a.9.9,0,0,0,1-.94.89.89,0,0,0-1-.94h-.8v1.88Z"/><path d="M65.36,28.3a2.08,2.08,0,1,1,4.15,0,2.08,2.08,0,1,1-4.15,0Zm3,0c0-.73-.3-1.28-.88-1.28s-.9.55-.9,1.28.31,1.28.9,1.28S68.32,29,68.32,28.29Z"/><path d="M71.43,30.39H70.26V24.77h1.17Z"/><path d="M72.32,25a.64.64,0,1,1,.63.59A.61.61,0,0,1,72.32,25Zm.05,1.14h1.17v4.21H72.37Z"/><path d="M76.71,27.05h-.79V29.1c0,.32.16.41.39.41a1.55,1.55,0,0,0,.29,0l.19.87a2.26,2.26,0,0,1-.64.11c-.85,0-1.41-.37-1.4-1.2v-2.2h-.58v-.87h.58v-1h1.17v1h.79Z"/><path d="M77.25,28.3a2,2,0,0,1,2-2.18,1.92,1.92,0,0,1,2,2.14v.32H78.41a.91.91,0,0,0,1,1,.8.8,0,0,0,.82-.49l1.08.08a1.76,1.76,0,0,1-1.91,1.29A2,2,0,0,1,77.25,28.3Zm2.93-.44a.83.83,0,0,0-.86-.87.89.89,0,0,0-.91.87Z"/><path d="M82,24.77h1.17v3h.06l1.35-1.6H86L84.4,28l1.65,2.39H84.68l-1.16-1.7-.31.36v1.34H82Z"/><path d="M87.7,30.39H86.53V26.18h1.12v.74h0a1.28,1.28,0,0,1,1.27-.8,1.42,1.42,0,0,1,1.46,1.59v2.68H89.25V27.92a.73.73,0,0,0-.75-.83.78.78,0,0,0-.8.86Z"/><path d="M91.29,25a.61.61,0,0,1,.63-.59.59.59,0,1,1,0,1.18A.61.61,0,0,1,91.29,25Zm0,1.14H92.5v4.21H91.33Z"/><path d="M93.43,24.77H94.6v3h.07L96,26.18h1.34L95.8,28l1.64,2.39H96.07l-1.15-1.7-.32.36v1.34H93.43Z"/><path d="M104.44,30.39h-1L101,26.85h0v3.54H99.74V24.77h1l2.43,3.54h.05V24.77h1.18Z"/><path d="M105.22,28.3a2,2,0,0,1,2-2.18,1.91,1.91,0,0,1,2,2.14v.32h-2.87a.91.91,0,0,0,1,1,.79.79,0,0,0,.81-.49l1.08.08a1.76,1.76,0,0,1-1.91,1.29A2,2,0,0,1,105.22,28.3Zm2.93-.44a.83.83,0,0,0-.86-.87.89.89,0,0,0-.91.87Z"/><path d="M110,30.89l1.08-.15a.87.87,0,0,0,.88.46c.51,0,.88-.23.88-.78v-.77h0a1.23,1.23,0,0,1-1.21.68c-1,0-1.71-.65-1.71-2s.79-2.16,1.71-2.16a1.26,1.26,0,0,1,1.21.76h0v-.7H114v4.25c0,1.06-.85,1.61-2.06,1.61S110.12,31.53,110,30.89Zm2.84-2.62c0-.74-.32-1.22-.89-1.22s-.88.5-.88,1.22.31,1.18.88,1.18S112.82,29,112.82,28.27Z"/><path d="M114.73,28.3a2,2,0,0,1,2-2.18,1.92,1.92,0,0,1,2,2.14v.32h-2.87a.91.91,0,0,0,1,1,.79.79,0,0,0,.81-.49l1.08.08a1.75,1.75,0,0,1-1.91,1.29A2,2,0,0,1,114.73,28.3Zm2.93-.44a.85.85,0,0,0-.87-.87.88.88,0,0,0-.9.87Z"/><path d="M119.51,26.18h1.14v.73h0a1,1,0,0,1,1-.8,1.42,1.42,0,0,1,.36.05v1a2.18,2.18,0,0,0-.49-.06.86.86,0,0,0-.9.88v2.38h-1.17Z"/><path d="M122.63,25a.63.63,0,1,1,.63.59A.61.61,0,0,1,122.63,25Zm0,1.14h1.17v4.21h-1.17Z"/><path d="M126.59,24.77h2.21a1.9,1.9,0,1,1,0,3.8h-1v1.82h-1.18Zm2,2.85a.9.9,0,0,0,1-.94.89.89,0,0,0-1-.94h-.81v1.88Z"/><path d="M131.32,28.3a2.08,2.08,0,1,1,4.16,0,2.08,2.08,0,1,1-4.16,0Zm3,0c0-.73-.31-1.28-.88-1.28s-.9.55-.9,1.28.3,1.28.9,1.28S134.29,29,134.29,28.29Z"/><path d="M137.4,30.39h-1.17V26.18h1.12v.74h.05a1.28,1.28,0,0,1,1.27-.8,1.42,1.42,0,0,1,1.45,1.59v2.68H139V27.92a.72.72,0,0,0-.75-.83.78.78,0,0,0-.8.86Z"/><path d="M143.28,27.05h-.79V29.1c0,.32.16.41.39.41a1.68,1.68,0,0,0,.29,0l.19.87a2.26,2.26,0,0,1-.64.11c-.85,0-1.41-.37-1.4-1.2v-2.2h-.58v-.87h.58v-1h1.17v1h.79Z"/><path d="M144,25a.64.64,0,1,1,.63.59A.61.61,0,0,1,144,25Zm0,1.14h1.17v4.21H144Z"/><path d="M145.94,29.22c0-.95.75-1.23,1.58-1.3s1-.11,1-.38v0c0-.34-.23-.55-.63-.55a.71.71,0,0,0-.75.49l-1.08-.09a1.67,1.67,0,0,1,1.83-1.25c.94,0,1.8.42,1.8,1.43v2.84h-1.11v-.58h0a1.29,1.29,0,0,1-1.23.66A1.23,1.23,0,0,1,145.94,29.22Zm2.61-.33v-.45a3,3,0,0,1-.81.19c-.41.06-.68.22-.68.55s.25.49.61.49A.81.81,0,0,0,148.55,28.89Z"/><path d="M151.79,30.39h-1.17V26.18h1.11v.74h.05a1.28,1.28,0,0,1,1.27-.8,1.42,1.42,0,0,1,1.46,1.59v2.68h-1.17V27.92a.73.73,0,0,0-.75-.83.77.77,0,0,0-.8.86Z"/><path d="M155.22,29.22c0-.95.75-1.23,1.59-1.3s1-.11,1-.38v0c0-.34-.23-.55-.63-.55a.71.71,0,0,0-.75.49l-1.08-.09a1.68,1.68,0,0,1,1.84-1.25c.94,0,1.79.42,1.79,1.43v2.84h-1.11v-.58h0a1.31,1.31,0,0,1-1.24.66A1.24,1.24,0,0,1,155.22,29.22Zm2.62-.33v-.45a3.1,3.1,0,0,1-.82.19c-.41.06-.68.22-.68.55s.26.49.62.49A.81.81,0,0,0,157.84,28.89Z"/><path d="M159.9,24.77h1.17v3h.06l1.36-1.6h1.34L162.26,28l1.65,2.39h-1.37l-1.15-1.7-.32.36v1.34H159.9Z"/><rect x="47.66" y="1.05" width="1.65" height="33.47"/></g></g></svg>